<svg width="25" height="25" viewBox="0 0 25 25" fill="none" xmlns="http://www.w3.org/2000/svg">
<rect x="0.791667" y="0.791667" width="23.4167" height="23.4167" rx="11.7083" fill="#0D8FC6"/>
<rect x="0.791667" y="0.791667" width="23.4167" height="23.4167" rx="11.7083" stroke="#11141300" stroke-width="1.58333"/>
<path d="M11.7246 11.9082C11.6723 11.903 11.6094 11.903 11.5517 11.9082C10.3047 11.8663 9.31445 10.8446 9.31445 9.5871C9.31445 8.30341 10.3519 7.26074 11.6408 7.26074C12.9245 7.26074 13.9672 8.30341 13.9672 9.5871C13.9619 10.8446 12.9717 11.8663 11.7246 11.9082Z" fill="#FAFAFA" stroke="#FAFAFA" stroke-width="1.5" stroke-linecap="round" stroke-linejoin="round"/>
<path d="M15.5232 8.30859C16.5397 8.30859 17.357 9.1312 17.357 10.1424C17.357 11.1327 16.5711 11.9396 15.5913 11.9763C15.5494 11.971 15.5022 11.971 15.4551 11.9763" fill="#FAFAFA"/>
<path d="M15.5232 8.30859C16.5397 8.30859 17.357 9.1312 17.357 10.1424C17.357 11.1327 16.5711 11.9396 15.5913 11.9763C15.5494 11.971 15.5022 11.971 15.4551 11.9763" stroke="#FAFAFA" stroke-width="2" stroke-linecap="round" stroke-linejoin="round"/>
<path d="M8.15064 8.30859C7.13416 8.30859 6.31679 9.1312 6.31679 10.1424C6.31679 11.1327 7.10273 11.9396 8.08252 11.9763C8.12444 11.971 8.17159 11.971 8.21875 11.9763" fill="#FAFAFA"/>
<path d="M8.15064 8.30859C7.13416 8.30859 6.31679 9.1312 6.31679 10.1424C6.31679 11.1327 7.10273 11.9396 8.08252 11.9763C8.12444 11.971 8.17159 11.971 8.21875 11.9763" stroke="#FAFAFA" stroke-width="2" stroke-linecap="round" stroke-linejoin="round"/>
<path d="M9.10528 13.8412C7.8373 14.69 7.8373 16.0732 9.10528 16.9168C10.5462 17.8809 12.9092 17.8809 14.3501 16.9168C15.618 16.068 15.618 14.6848 14.3501 13.8412C12.9144 12.8824 10.5514 12.8824 9.10528 13.8412Z" fill="#FAFAFA" stroke="#FAFAFA" stroke-width="1.5" stroke-linecap="round" stroke-linejoin="round"/>
<path d="M16.5352 16.6916C16.9124 16.613 17.2687 16.461 17.5621 16.2357C18.3795 15.6227 18.3795 14.6115 17.5621 13.9985C17.2739 13.7784 16.9229 13.6317 16.5509 13.5479" fill="#FAFAFA"/>
<path d="M16.5352 16.6916C16.9124 16.613 17.2687 16.461 17.5621 16.2357C18.3795 15.6227 18.3795 14.6115 17.5621 13.9985C17.2739 13.7784 16.9229 13.6317 16.5509 13.5479" stroke="#FAFAFA" stroke-width="2" stroke-linecap="round" stroke-linejoin="round"/>
<path d="M7.14062 16.6916C6.76338 16.613 6.40709 16.461 6.11367 16.2357C5.2963 15.6227 5.2963 14.6115 6.11367 13.9985C6.40185 13.7784 6.7529 13.6317 7.12491 13.5479" fill="#FAFAFA"/>
<path d="M7.14062 16.6916C6.76338 16.613 6.40709 16.461 6.11367 16.2357C5.2963 15.6227 5.2963 14.6115 6.11367 13.9985C6.40185 13.7784 6.7529 13.6317 7.12491 13.5479" stroke="#FAFAFA" stroke-width="2" stroke-linecap="round" stroke-linejoin="round"/>
</svg>
