<svg width="25" height="25" viewBox="0 0 25 25" fill="none" xmlns="http://www.w3.org/2000/svg">
<rect x="0.791667" y="0.791667" width="23.4167" height="23.4167" rx="11.7083" fill="#1FB356"/>
<rect x="0.791667" y="0.791667" width="23.4167" height="23.4167" rx="11.7083" stroke="#11141300" stroke-width="1.58333"/>
<path d="M9.56285 14.3855C8.79652 14.8418 6.78724 15.7736 8.01102 16.9395C8.60883 17.509 9.27464 17.9163 10.1117 17.9163H14.8883C15.7254 17.9163 16.3912 17.509 16.989 16.9395C18.2128 15.7736 16.2035 14.8418 15.4371 14.3855C13.6401 13.3155 11.3599 13.3155 9.56285 14.3855Z" fill="#FAFAFA"/>
<path d="M14.9375 9.52051C14.9375 10.8667 13.8462 11.958 12.5 11.958C11.1538 11.958 10.0625 10.8667 10.0625 9.52051C10.0625 8.17431 11.1538 7.08301 12.5 7.08301C13.8462 7.08301 14.9375 8.17431 14.9375 9.52051Z" fill="#FAFAFA"/>
</svg>
