<svg width="25" height="25" viewBox="0 0 25 25" fill="none" xmlns="http://www.w3.org/2000/svg">
<rect x="0.791667" y="0.791667" width="23.4167" height="23.4167" rx="11.7083" fill="#9F10B7"/>
<rect x="0.791667" y="0.791667" width="23.4167" height="23.4167" rx="11.7083" stroke="#11141300" stroke-width="1.58333"/>
<path d="M17.375 11.6875H15.3438V8.4375C15.3438 8.19375 15.1813 8.03125 14.9375 8.03125H7.625C7.38125 8.03125 7.21875 8.19375 7.21875 8.4375V15.75C7.21875 16.6438 7.95 17.375 8.84375 17.375H15.75C15.7906 17.375 15.8312 17.375 15.8719 17.3344C15.9531 17.3344 16.0344 17.375 16.1562 17.375C17.05 17.375 17.7812 16.6438 17.7812 15.75V12.0938C17.7812 11.85 17.6187 11.6875 17.375 11.6875ZM10.0625 12.5H9.25C9.00625 12.5 8.84375 12.3375 8.84375 12.0938C8.84375 11.85 9.00625 11.6875 9.25 11.6875H10.0625C10.3063 11.6875 10.4688 11.85 10.4688 12.0938C10.4688 12.3375 10.3063 12.5 10.0625 12.5ZM11.6875 10.875H9.25C9.00625 10.875 8.84375 10.7125 8.84375 10.4688C8.84375 10.225 9.00625 10.0625 9.25 10.0625H11.6875C11.9313 10.0625 12.0938 10.225 12.0938 10.4688C12.0938 10.7125 11.9313 10.875 11.6875 10.875ZM16.9688 15.75C16.9688 16.1969 16.6031 16.5625 16.1562 16.5625C16.075 16.5625 15.9937 16.5625 15.9125 16.5219C15.6687 16.4406 15.5063 16.2375 15.425 16.0344V15.9938C15.3438 15.9125 15.3438 15.8313 15.3438 15.75V12.5H16.9688V15.75Z" fill="#FAFAFA"/>
</svg>
