<svg width="25" height="25" viewBox="0 0 25 25" fill="none" xmlns="http://www.w3.org/2000/svg">
<rect x="0.791667" y="0.791667" width="23.4167" height="23.4167" rx="11.7083" fill="#C6870D"/>
<rect x="0.791667" y="0.791667" width="23.4167" height="23.4167" rx="11.7083" stroke="#11141300" stroke-width="1.58333"/>
<path d="M16.9361 13.6158L16.324 12.5974C16.1886 12.3754 16.0694 11.9474 16.0694 11.6874V10.6745C16.0694 8.70827 14.4715 7.11035 12.5107 7.11035C10.5444 7.11577 8.94649 8.70827 8.94649 10.6745V11.682C8.94649 11.942 8.82733 12.3699 8.69733 12.592L8.08524 13.6104C7.85232 14.0058 7.79816 14.4554 7.94441 14.8454C8.09066 15.2408 8.42108 15.5549 8.85441 15.6958C9.43941 15.8908 10.0298 16.0316 10.6311 16.1345C10.6907 16.1454 10.7502 16.1508 10.8098 16.1616C10.8857 16.1724 10.9669 16.1833 11.0482 16.1941C11.189 16.2158 11.3298 16.232 11.4761 16.2429C11.8173 16.2754 12.164 16.2916 12.5107 16.2916C12.8519 16.2916 13.1932 16.2754 13.529 16.2429C13.6536 16.232 13.7782 16.2212 13.8973 16.2049C13.9948 16.1941 14.0923 16.1833 14.1898 16.167C14.2494 16.1616 14.309 16.1508 14.3686 16.1399C14.9752 16.0424 15.5765 15.8908 16.1615 15.6958C16.5786 15.5549 16.8982 15.2408 17.0498 14.8399C17.2015 14.4337 17.1582 13.9895 16.9361 13.6158ZM12.9061 11.4166C12.9061 11.6441 12.7219 11.8283 12.4944 11.8283C12.2669 11.8283 12.0827 11.6441 12.0827 11.4166V9.73744C12.0827 9.50994 12.2669 9.32577 12.4944 9.32577C12.7219 9.32577 12.9061 9.50994 12.9061 9.73744V11.4166Z" fill="#FAFAFA"/>
<path d="M14.0331 16.8384C13.8056 17.4668 13.2043 17.9163 12.5002 17.9163C12.0722 17.9163 11.6497 17.743 11.3518 17.4343C11.1785 17.2718 11.0485 17.0551 10.9727 16.833C11.0431 16.8438 11.1135 16.8493 11.1893 16.8601C11.3139 16.8763 11.4439 16.8926 11.5739 16.9034C11.8827 16.9305 12.1968 16.9468 12.511 16.9468C12.8197 16.9468 13.1285 16.9305 13.4318 16.9034C13.5456 16.8926 13.6593 16.8872 13.7677 16.8709C13.8543 16.8601 13.941 16.8493 14.0331 16.8384Z" fill="#FAFAFA"/>
</svg>
