<svg width="25" height="25" viewBox="0 0 25 25" fill="none" xmlns="http://www.w3.org/2000/svg">
<rect x="0.791667" y="0.791667" width="23.4167" height="23.4167" rx="11.7083" fill="#0588A5"/>
<rect x="0.791667" y="0.791667" width="23.4167" height="23.4167" rx="11.7083" stroke="#11141300" stroke-width="1.58333"/>
<path d="M17.5091 10.9558C16.2579 8.9895 14.427 7.85742 12.4987 7.85742C11.5345 7.85742 10.5974 8.13909 9.74161 8.66451C8.88578 9.19534 8.11661 9.96992 7.48828 10.9558C6.94661 11.8062 6.94661 13.1874 7.48828 14.0378C8.73953 16.0095 10.5704 17.1362 12.4987 17.1362C13.4629 17.1362 14.3999 16.8545 15.2558 16.3291C16.1116 15.7983 16.8808 15.0237 17.5091 14.0378C18.0508 13.1928 18.0508 11.8062 17.5091 10.9558ZM12.4987 14.6878C11.2854 14.6878 10.3104 13.7074 10.3104 12.4995C10.3104 11.2916 11.2854 10.3112 12.4987 10.3112C13.712 10.3112 14.687 11.2916 14.687 12.4995C14.687 13.7074 13.712 14.6878 12.4987 14.6878Z" fill="#FAFAFA"/>
<path d="M12.5008 10.9512C11.6504 10.9512 10.957 11.6445 10.957 12.5003C10.957 13.3508 11.6504 14.0441 12.5008 14.0441C13.3512 14.0441 14.0499 13.3508 14.0499 12.5003C14.0499 11.6499 13.3512 10.9512 12.5008 10.9512Z" fill="#FAFAFA"/>
</svg>
