<svg width="22" height="22" viewBox="0 0 22 22" fill="none" xmlns="http://www.w3.org/2000/svg">
<path d="M8.27326 9.18324C9.27741 9.18324 10.0914 8.36921 10.0914 7.36506C10.0914 6.3609 9.27741 5.54688 8.27326 5.54688C7.26911 5.54688 6.45508 6.3609 6.45508 7.36506C6.45508 8.36921 7.26911 9.18324 8.27326 9.18324Z" stroke="#090D09" stroke-width="1.66667" stroke-linecap="round" stroke-linejoin="round"/>
<path d="M11.9102 1.91016H8.27379C3.72834 1.91016 1.91016 3.72834 1.91016 8.27379V13.7283C1.91016 18.2738 3.72834 20.092 8.27379 20.092H13.7283C18.2738 20.092 20.092 18.2738 20.092 13.7283V9.18288" stroke="#090D09" stroke-width="1.66667" stroke-linecap="round" stroke-linejoin="round"/>
<path d="M17.4931 2.44728L14.1931 5.74728C14.0658 5.87455 13.9386 6.12001 13.9204 6.30182L13.7386 7.56546C13.6749 8.02001 13.9931 8.33819 14.4477 8.27455L15.7113 8.09273C15.884 8.06546 16.1386 7.94728 16.2658 7.82L19.5658 4.52001C20.1386 3.94728 20.4022 3.29273 19.5658 2.45637C18.7204 1.60182 18.0658 1.87455 17.4931 2.44728Z" stroke="#090D09" stroke-width="1.66667" stroke-miterlimit="10" stroke-linecap="round" stroke-linejoin="round"/>
<path d="M17.0176 2.91797C17.2994 3.91797 18.0812 4.69979 19.0812 4.98161" stroke="#090D09" stroke-width="1.66667" stroke-miterlimit="10" stroke-linecap="round" stroke-linejoin="round"/>
<path d="M2.51953 17.3205L7.00135 14.3114C7.71953 13.8295 8.75589 13.8841 9.40135 14.4386L9.70135 14.7023C10.4104 15.3114 11.5559 15.3114 12.265 14.7023L16.0468 11.4568C16.7559 10.8477 17.9013 10.8477 18.6104 11.4568L20.0923 12.7295" stroke="#090D09" stroke-width="1.66667" stroke-linecap="round" stroke-linejoin="round"/>
</svg>
