<svg width="31" height="31" viewBox="0 0 31 31" fill="none" xmlns="http://www.w3.org/2000/svg">
<path d="M20.5446 3H10.0696C5.51963 3 2.80713 5.7125 2.80713 10.2625V20.725C2.80713 25.2875 5.51963 28 10.0696 28H20.5321C25.0821 28 27.7946 25.2875 27.7946 20.7375V10.2625C27.8071 5.7125 25.0946 3 20.5446 3ZM10.3071 16.75C9.60713 16.75 9.05713 16.1875 9.05713 15.5C9.05713 14.8125 9.61963 14.25 10.3071 14.25C10.9946 14.25 11.5571 14.8125 11.5571 15.5C11.5571 16.1875 11.0071 16.75 10.3071 16.75ZM15.3071 16.75C14.6071 16.75 14.0571 16.1875 14.0571 15.5C14.0571 14.8125 14.6196 14.25 15.3071 14.25C15.9946 14.25 16.5571 14.8125 16.5571 15.5C16.5571 16.1875 16.0071 16.75 15.3071 16.75ZM20.3071 16.75C19.6071 16.75 19.0571 16.1875 19.0571 15.5C19.0571 14.8125 19.6196 14.25 20.3071 14.25C20.9946 14.25 21.5571 14.8125 21.5571 15.5C21.5571 16.1875 21.0071 16.75 20.3071 16.75Z" fill="#FAFAFA"/>
</svg>
