<svg width="30" height="33" viewBox="0 0 30 33" fill="none" xmlns="http://www.w3.org/2000/svg">
<path d="M18.4604 0H11.5385C8.98946 0 6.92308 2.06637 6.92308 4.61538V9.70403C8.02346 9.3928 9.18459 9.22626 10.3846 9.22626C17.3944 9.22626 23.0769 14.9088 23.0769 21.9186C23.0769 26.2084 20.9487 30.0012 17.6905 32.2987H25.3846C27.9336 32.2987 30 30.2323 30 27.6833V11.5406H21.922C20.0102 11.5406 18.4604 9.99084 18.4604 8.07908V0ZM29.9924 9.23293H21.922C21.2847 9.23293 20.7681 8.71634 20.7681 8.07908V0H20.7885L29.9924 9.23293ZM20.7692 21.9231C20.7692 27.6583 16.1199 32.3077 10.3846 32.3077C4.64935 32.3077 0 27.6583 0 21.9231C0 16.1878 4.64935 11.5385 10.3846 11.5385C16.1199 11.5385 20.7692 16.1878 20.7692 21.9231ZM9.56781 27.3534L9.57363 27.3592C9.68312 27.4674 9.80886 27.5493 9.94294 27.6048C10.077 27.6603 10.2238 27.6914 10.3777 27.6923L10.3846 27.6923L10.3915 27.6923C10.5455 27.6914 10.6923 27.6603 10.8263 27.6048C10.9624 27.5484 11.0899 27.465 11.2005 27.3544L15.8159 22.739C16.2665 22.2884 16.2665 21.5578 15.8159 21.1072C15.3653 20.6566 14.6347 20.6566 14.1841 21.1072L11.5385 23.7528V17.3077C11.5385 16.6704 11.0219 16.1538 10.3846 16.1538C9.74736 16.1538 9.23077 16.6704 9.23077 17.3077V23.7528L6.58512 21.1072C6.13452 20.6566 5.40394 20.6566 4.95334 21.1072C4.50273 21.5578 4.50273 22.2884 4.95334 22.739L9.56781 27.3534Z" fill="#7C7C7C"/>
</svg>
