<svg width="19" height="21" viewBox="0 0 19 21" fill="none" xmlns="http://www.w3.org/2000/svg">
<path d="M15.0236 5.89648C15.7365 6.04429 16.2744 6.29098 16.7066 6.7027C17.785 7.72986 17.785 9.38305 17.785 12.6894C17.785 15.9958 17.785 17.649 16.7066 18.6761C15.6282 19.7033 13.8926 19.7033 10.4213 19.7033H8.58043C5.10918 19.7033 3.37356 19.7033 2.29518 18.6761C1.2168 17.649 1.2168 15.9958 1.2168 12.6894C1.2168 9.38305 1.2168 7.72986 2.29518 6.7027C2.72743 6.29098 3.26527 6.04429 3.97816 5.89648" stroke="#C8C8C8" stroke-width="1.38068" stroke-linecap="round"/>
<path d="M9.52488 1.29487L9.5016 12.3398M9.52488 1.29487C9.37519 1.28867 9.22459 1.34217 9.09046 1.45539C8.2561 2.15967 6.74023 3.99027 6.74023 3.99027M9.52488 1.29487C9.65911 1.30043 9.79261 1.35399 9.91287 1.45554C10.7471 2.15995 12.263 3.99027 12.263 3.99027" stroke="#C8C8C8" stroke-width="1.38068" stroke-linecap="round" stroke-linejoin="round"/>
</svg>
