<svg width="20" height="20" viewBox="0 0 20 20" fill="none" xmlns="http://www.w3.org/2000/svg">
<path d="M16.3897 3.47053C14.8462 2.6988 13.4259 2.77908 12.2708 3.2243C11.2984 3.59908 10.5179 4.23003 9.99993 4.81831C9.48193 4.23003 8.7015 3.59908 7.72906 3.2243C6.57393 2.77908 5.15365 2.6988 3.61018 3.47053C1.608 4.47161 0.852759 6.24041 0.977184 8.10675C1.10028 9.95325 2.07929 11.8964 3.52896 13.346C4.88547 14.7025 7.4975 17.1582 9.13037 18.4762C9.639 18.8867 10.3567 18.9069 10.8821 18.5074C12.6667 17.1502 15.0937 14.7232 16.4622 13.3547L16.4709 13.346C17.9206 11.8964 18.8996 9.95325 19.0227 8.10675C19.1471 6.24041 18.3919 4.47161 16.3897 3.47053Z" fill="#A9A9A9"/>
<path d="M10.2501 5.50006C10.6898 4.91368 11.4784 4.19955 12.4957 3.8075C13.5023 3.41953 14.7382 3.34357 16.1102 4.02957C17.8581 4.90348 18.5091 6.41593 18.3992 8.06518C18.2879 9.73437 17.3919 11.5412 16.0291 12.9041C14.6512 14.2819 12.251 16.6812 10.5039 18.0099C10.2125 18.2315 9.81287 18.2238 9.523 17.9899C7.915 16.6919 5.32079 14.2539 3.971 12.9041C2.60817 11.5412 1.71218 9.73437 1.6009 8.06518C1.49095 6.41593 2.14196 4.90348 3.88978 4.02957C5.26179 3.34357 6.49775 3.41953 7.50437 3.8075C8.52162 4.19955 9.31025 4.91368 9.75006 5.50006L10.0001 5.83339L10.2501 5.50006Z" fill="#AFAFAF"/>
<path d="M14.9967 3.62355C14.0671 3.40991 13.2217 3.52742 12.4956 3.80726C11.4784 4.19931 10.6897 4.91344 10.25 5.49982L10 5.83314V7.218C10.7056 5.72632 12.3432 3.78969 14.9967 3.62355Z" fill="#BDBBBB"/>
<path d="M6.7085 3.58193C5.87176 3.42889 4.91905 3.5147 3.88979 4.02933C2.14196 4.90324 1.49095 6.41569 1.6009 8.06494C1.71218 9.73413 2.60817 11.541 3.971 12.9039C5.32079 14.2536 7.915 16.6917 9.523 17.9896C9.81287 18.2236 10.2125 18.2313 10.5039 18.0096C10.6413 17.9051 10.7827 17.794 10.9274 17.6773C9.16662 16.3357 6.83206 14.3652 5.537 13.2076C2.439 10.4386 1.40634 5.82348 5.537 3.97746C5.93703 3.79868 6.32819 3.66922 6.7085 3.58193Z" fill="#BFBFBF"/>
<path d="M13.1791 10.4589C14.0267 10.9483 15.3828 10.1864 16.208 8.75711C17.0332 7.32784 17.015 5.77246 16.1673 5.28308C15.3197 4.7937 13.9636 5.55563 13.1384 6.9849C12.3132 8.41417 12.3314 9.96955 13.1791 10.4589Z" fill="#BFBFBF"/>
</svg>
