<svg width="116" height="23" viewBox="0 0 116 23" fill="none" xmlns="http://www.w3.org/2000/svg">
<path d="M42.3957 6.60582H33.9816V9.47761H41.5543C41.0056 10.6483 41.2616 12.5323 41.2616 12.5323H33.9816V19.3917H31V3.62427H45.1944C43.3469 4.77664 42.3957 6.60582 42.3957 6.60582Z" fill="#1A1A1A"/>
<path d="M59.59 11.4167C59.59 13.6849 58.7851 15.6238 57.1572 17.2335C55.5292 18.8432 53.5903 19.6663 51.3587 19.6663C49.1088 19.6663 47.1882 18.8615 45.5602 17.2335C43.9323 15.6238 43.1274 13.7032 43.1274 11.4716C43.1274 9.18515 43.914 7.24623 45.5054 5.69144C47.0967 4.13664 49.0357 3.3501 51.3587 3.3501C53.5537 3.3501 55.4743 4.15493 57.1206 5.74631C58.7668 7.35598 59.59 9.24003 59.59 11.4167ZM56.5901 11.4167V11.4716C56.5901 10.0632 56.078 8.8559 55.0536 7.86815C54.0293 6.8804 52.7855 6.38652 51.3404 6.38652C49.8954 6.38652 48.6515 6.8804 47.6272 7.84986C46.6029 8.81932 46.0907 10.0083 46.0907 11.435C46.0907 12.8618 46.6029 14.0873 47.6272 15.1117C48.6515 16.136 49.8954 16.6482 51.3404 16.6482C52.7855 16.6482 54.0293 16.136 55.0536 15.1117C56.078 14.0873 56.5901 12.8618 56.5901 11.4167Z" fill="#1A1A1A"/>
<path d="M76.0159 19.3917H73.0343L64.1811 8.48986V19.3917H61.1996V3.62427H64.1445L72.9977 14.6359V3.62427H76.0342V19.3917H76.0159Z" fill="#1A1A1A"/>
<path d="M78.7598 19.3917V3.62427H81.7413V19.3917H78.7598Z" fill="#1A1A1A"/>
<path d="M98.4416 14.91C98.4416 16.41 97.838 17.5623 96.6307 18.4038C95.4234 19.2452 93.7223 19.6659 91.5273 19.6659C88.4909 19.6659 85.8935 18.8793 83.6802 17.288L85.3996 14.8369C87.1373 16.0258 89.1494 16.6295 91.4176 16.6295C94.143 16.6295 95.5149 16.0258 95.5149 14.8003C95.5149 14.0686 95.021 13.5016 94.015 13.1357C93.4662 12.9345 92.5334 12.6967 91.2346 12.459C89.8445 12.1846 88.8384 11.9651 88.2531 11.7822C87.2105 11.4529 86.4239 11.0322 85.8935 10.5017C85.0704 9.67861 84.6679 8.76402 84.6679 7.7214C84.6679 4.30085 88.8384 3.42285 91.5822 3.47772C93.5577 3.51431 95.3686 4.06306 97.1063 4.95935C97.216 5.01423 98.4599 5.69102 98.4416 5.70931C98.4416 5.70931 97.5636 7.00802 97.088 8.23357C94.1064 6.09344 91.8931 6.3861 90.631 6.4044C89.8811 6.4044 87.6495 6.56902 87.6495 7.68481C87.6495 8.27015 88.1616 8.70915 89.2043 9.02011C89.3506 9.05669 90.1189 9.18474 91.509 9.44082C93.4662 9.78836 95.0027 10.2456 96.1185 10.831C96.8319 11.2151 97.3807 11.7639 97.8014 12.4955C98.2404 13.2272 98.4416 14.032 98.4416 14.91Z" fill="#1A1A1A"/>
<path d="M115.654 11.4167C115.654 13.6849 114.849 15.6238 113.222 17.2335C111.594 18.8432 109.655 19.6663 107.423 19.6663C105.173 19.6663 103.253 18.8615 101.625 17.2335C99.9966 15.6238 99.1918 13.7032 99.1918 11.4716C99.1918 9.18515 99.9783 7.24623 101.57 5.69144C103.161 4.13664 105.1 3.3501 107.423 3.3501C109.618 3.3501 111.539 4.15493 113.185 5.74631C114.831 7.35598 115.654 9.24003 115.654 11.4167ZM112.654 11.4167V11.4716C112.654 10.0632 112.142 8.8559 111.118 7.86815C110.094 6.8804 108.85 6.38652 107.405 6.38652C105.96 6.38652 104.716 6.8804 103.692 7.84986C102.667 8.81932 102.155 10.0083 102.155 11.435C102.155 12.8618 102.667 14.0873 103.692 15.1117C104.716 16.136 105.96 16.6482 107.405 16.6482C108.85 16.6482 110.094 16.136 111.118 15.1117C112.142 14.0873 112.654 12.8618 112.654 11.4167Z" fill="#1A1A1A"/>
<path d="M18.2283 2.16199L14.7145 7.1913C14.6378 7.29863 14.4844 7.2833 14.423 7.17597L10.2035 0.0766663C10.6331 0.0306665 11.0627 0 11.5077 0C14.0087 0 16.3256 0.797331 18.2283 2.16199Z" fill="#23BB5B"/>
<path d="M17.4916 21.3134C15.7424 22.3867 13.6863 23.0001 11.4922 23.0001C10.9705 23.0001 10.4641 22.9694 9.97314 22.8927L12.0599 18.0627L17.4916 21.3134Z" fill="#23BB5B"/>
<path d="M5.7539 14.2292L2.30156 18.3999C0.859249 16.4832 0 14.0913 0 11.4999C0 11.1779 0.0153442 10.8559 0.0460317 10.5339L5.7539 14.2292Z" fill="#23BB5B"/>
<path d="M13.1187 8.31104L9.83517 13.0797L7.24208 13.187L0.337402 8.7097C1.33474 4.72305 4.41884 1.5644 8.36217 0.445068L13.1187 8.31104Z" fill="#23BB5B"/>
<path d="M10.71 16.8983L8.23967 22.5256C6.41377 21.9889 4.78733 21.0229 3.46777 19.7349L7.4418 14.8743L9.83542 14.7976L10.71 16.8983Z" fill="#23BB5B"/>
<path d="M23 11.6074C22.9693 15.0574 21.4196 18.1241 18.9953 20.2247L12.2901 16.2994L11.3081 13.9227L14.4996 9.27677C14.7144 8.9701 15.098 8.84744 15.4509 8.9701L23 11.6074Z" fill="#23BB5B"/>
<path d="M22.8777 9.73709L16.6175 7.60577C16.5714 7.59043 16.5561 7.5291 16.5868 7.49843L19.5788 3.29712C21.2819 4.98378 22.4788 7.22243 22.8777 9.73709Z" fill="#23BB5B"/>
</svg>
