<svg width="255" height="101" viewBox="0 0 255 101" fill="none" xmlns="http://www.w3.org/2000/svg">
<path d="M28.6744 15.5067L26.2317 19.0053C26.181 19.0773 26.0744 19.072 26.029 18.9973L23.0957 14.0507C23.3917 14.016 23.693 14 23.9997 14C25.7464 14 27.3597 14.5573 28.6744 15.5067Z" fill="#22C55E"/>
<path d="M28.1674 28.8294C26.954 29.5734 25.5274 30.0001 23.9994 30.0001C23.642 30.0001 23.29 29.9761 22.9434 29.9308L24.3887 26.5654L28.1674 28.8294Z" fill="#22C55E"/>
<path d="M20.0107 23.8954L17.6027 26.8047C16.5973 25.4661 16 23.8021 16 21.9994C16 21.7754 16.008 21.5514 16.0267 21.3301L20.0107 23.8954Z" fill="#22C55E"/>
<path d="M25.1256 19.7781L22.8429 23.0954L21.0429 23.1648L16.2402 20.0501C16.9336 17.2741 19.0802 15.0741 21.8242 14.3008L25.1256 19.7781Z" fill="#22C55E"/>
<path d="M23.4473 25.7603L21.7353 29.675C20.4713 29.3043 19.338 28.627 18.418 27.731L21.1726 24.3443L22.8393 24.291L23.4473 25.7603Z" fill="#22C55E"/>
<path d="M32.0005 22.077C31.9792 24.4716 30.9019 26.6156 29.2139 28.0663L24.5525 25.341L23.8672 23.6823L26.0912 20.4476C26.2379 20.2343 26.5099 20.1436 26.7552 20.2316L32.0005 22.077Z" fill="#22C55E"/>
<path d="M31.9074 20.7681L27.5528 19.2854C27.5208 19.2748 27.5074 19.2348 27.5261 19.2054L29.6008 16.2881C30.8061 17.4694 31.6381 19.0268 31.9074 20.7681Z" fill="#22C55E"/>
<path d="M38.994 27V17.2H45.14V18.404H40.478V21.498H44.342V22.688H40.478V27H38.994ZM49.4458 27.168C48.7831 27.168 48.1858 27.0187 47.6538 26.72C47.1311 26.412 46.7158 25.9873 46.4078 25.446C46.0998 24.8953 45.9458 24.256 45.9458 23.528C45.9458 22.8 46.0998 22.1653 46.4078 21.624C46.7251 21.0733 47.1498 20.6487 47.6818 20.35C48.2138 20.042 48.8064 19.888 49.4598 19.888C50.1224 19.888 50.7151 20.042 51.2378 20.35C51.7698 20.6487 52.1898 21.0733 52.4978 21.624C52.8151 22.1653 52.9738 22.8 52.9738 23.528C52.9738 24.256 52.8151 24.8953 52.4978 25.446C52.1898 25.9873 51.7698 26.412 51.2378 26.72C50.7058 27.0187 50.1084 27.168 49.4458 27.168ZM49.4458 25.894C49.8004 25.894 50.1271 25.8053 50.4258 25.628C50.7338 25.4507 50.9811 25.1893 51.1678 24.844C51.3544 24.4893 51.4478 24.0507 51.4478 23.528C51.4478 23.0053 51.3544 22.5713 51.1678 22.226C50.9904 21.8713 50.7478 21.6053 50.4398 21.428C50.1411 21.2507 49.8144 21.162 49.4598 21.162C49.1051 21.162 48.7738 21.2507 48.4658 21.428C48.1671 21.6053 47.9244 21.8713 47.7378 22.226C47.5511 22.5713 47.4578 23.0053 47.4578 23.528C47.4578 24.0507 47.5511 24.4893 47.7378 24.844C47.9244 25.1893 48.1671 25.4507 48.4658 25.628C48.7644 25.8053 49.0911 25.894 49.4458 25.894ZM54.5786 27V20.056H55.8946L56.0066 21.274C56.2213 20.8447 56.534 20.5087 56.9446 20.266C57.3646 20.014 57.8453 19.888 58.3866 19.888C59.2266 19.888 59.8846 20.1493 60.3606 20.672C60.846 21.1947 61.0886 21.974 61.0886 23.01V27H59.6186V23.164C59.6186 21.82 59.068 21.148 57.9666 21.148C57.416 21.148 56.9586 21.344 56.5946 21.736C56.24 22.128 56.0626 22.688 56.0626 23.416V27H54.5786ZM63.6764 18.74C63.3964 18.74 63.1631 18.656 62.9764 18.488C62.7991 18.3107 62.7104 18.0913 62.7104 17.83C62.7104 17.5687 62.7991 17.354 62.9764 17.186C63.1631 17.0087 63.3964 16.92 63.6764 16.92C63.9564 16.92 64.1851 17.0087 64.3624 17.186C64.5491 17.354 64.6424 17.5687 64.6424 17.83C64.6424 18.0913 64.5491 18.3107 64.3624 18.488C64.1851 18.656 63.9564 18.74 63.6764 18.74ZM62.9344 27V20.056H64.4184V27H62.9344ZM69.1495 27.168C68.2721 27.168 67.5488 26.9533 66.9795 26.524C66.4101 26.0947 66.0835 25.5253 65.9995 24.816H67.4975C67.5721 25.1333 67.7495 25.4087 68.0295 25.642C68.3095 25.866 68.6781 25.978 69.1355 25.978C69.5835 25.978 69.9101 25.8847 70.1155 25.698C70.3208 25.5113 70.4235 25.2967 70.4235 25.054C70.4235 24.6993 70.2788 24.4613 69.9895 24.34C69.7095 24.2093 69.3175 24.0927 68.8135 23.99C68.4215 23.906 68.0295 23.794 67.6375 23.654C67.2548 23.514 66.9328 23.318 66.6715 23.066C66.4195 22.8047 66.2935 22.4547 66.2935 22.016C66.2935 21.4093 66.5268 20.9053 66.9935 20.504C67.4601 20.0933 68.1135 19.888 68.9535 19.888C69.7281 19.888 70.3535 20.0747 70.8295 20.448C71.3148 20.8213 71.5995 21.3487 71.6835 22.03H70.2555C70.2088 21.7313 70.0688 21.498 69.8355 21.33C69.6115 21.162 69.3081 21.078 68.9255 21.078C68.5521 21.078 68.2628 21.1573 68.0575 21.316C67.8521 21.4653 67.7495 21.6613 67.7495 21.904C67.7495 22.1467 67.8895 22.338 68.1695 22.478C68.4588 22.618 68.8368 22.744 69.3035 22.856C69.7701 22.9587 70.1995 23.08 70.5915 23.22C70.9928 23.3507 71.3148 23.5467 71.5575 23.808C71.8001 24.0693 71.9215 24.452 71.9215 24.956C71.9308 25.5907 71.6835 26.118 71.1795 26.538C70.6848 26.958 70.0081 27.168 69.1495 27.168ZM76.7895 27.168C76.1268 27.168 75.5295 27.0187 74.9975 26.72C74.4748 26.412 74.0595 25.9873 73.7515 25.446C73.4435 24.8953 73.2895 24.256 73.2895 23.528C73.2895 22.8 73.4435 22.1653 73.7515 21.624C74.0688 21.0733 74.4935 20.6487 75.0255 20.35C75.5575 20.042 76.1502 19.888 76.8035 19.888C77.4662 19.888 78.0588 20.042 78.5815 20.35C79.1135 20.6487 79.5335 21.0733 79.8415 21.624C80.1588 22.1653 80.3175 22.8 80.3175 23.528C80.3175 24.256 80.1588 24.8953 79.8415 25.446C79.5335 25.9873 79.1135 26.412 78.5815 26.72C78.0495 27.0187 77.4522 27.168 76.7895 27.168ZM76.7895 25.894C77.1442 25.894 77.4708 25.8053 77.7695 25.628C78.0775 25.4507 78.3248 25.1893 78.5115 24.844C78.6982 24.4893 78.7915 24.0507 78.7915 23.528C78.7915 23.0053 78.6982 22.5713 78.5115 22.226C78.3342 21.8713 78.0915 21.6053 77.7835 21.428C77.4848 21.2507 77.1582 21.162 76.8035 21.162C76.4488 21.162 76.1175 21.2507 75.8095 21.428C75.5108 21.6053 75.2682 21.8713 75.0815 22.226C74.8948 22.5713 74.8015 23.0053 74.8015 23.528C74.8015 24.0507 74.8948 24.4893 75.0815 24.844C75.2682 25.1893 75.5108 25.4507 75.8095 25.628C76.1082 25.8053 76.4348 25.894 76.7895 25.894Z" fill="#C8C8C8"/>
<path fill-rule="evenodd" clip-rule="evenodd" d="M88.5 23.5C89.3284 23.5 90 22.8284 90 22C90 21.1716 89.3284 20.5 88.5 20.5C87.6716 20.5 87 21.1716 87 22C87 22.8284 87.6716 23.5 88.5 23.5Z" fill="#888888"/>
<path d="M96.966 27V20.056H98.03L98.1 21.302C98.324 20.8633 98.646 20.518 99.066 20.266C99.486 20.014 99.962 19.888 100.494 19.888C101.315 19.888 101.969 20.14 102.454 20.644C102.949 21.1387 103.196 21.904 103.196 22.94V27H102.02V23.066C102.02 21.6193 101.423 20.896 100.228 20.896C99.6307 20.896 99.1313 21.1153 98.73 21.554C98.338 21.9833 98.142 22.5993 98.142 23.402V27H96.966ZM108.142 27.168C107.488 27.168 106.9 27.0187 106.378 26.72C105.855 26.4213 105.44 26.0013 105.132 25.46C104.833 24.9093 104.684 24.2653 104.684 23.528C104.684 22.7907 104.838 22.1513 105.146 21.61C105.454 21.0593 105.869 20.6347 106.392 20.336C106.924 20.0373 107.516 19.888 108.17 19.888C108.823 19.888 109.411 20.0373 109.934 20.336C110.456 20.6347 110.867 21.0593 111.166 21.61C111.474 22.1513 111.628 22.7907 111.628 23.528C111.628 24.2653 111.474 24.9093 111.166 25.46C110.858 26.0013 110.438 26.4213 109.906 26.72C109.383 27.0187 108.795 27.168 108.142 27.168ZM108.142 26.16C108.543 26.16 108.916 26.062 109.262 25.866C109.607 25.67 109.887 25.376 110.102 24.984C110.316 24.592 110.424 24.1067 110.424 23.528C110.424 22.9493 110.316 22.464 110.102 22.072C109.896 21.68 109.621 21.386 109.276 21.19C108.93 20.994 108.562 20.896 108.17 20.896C107.768 20.896 107.395 20.994 107.05 21.19C106.704 21.386 106.424 21.68 106.21 22.072C105.995 22.464 105.888 22.9493 105.888 23.528C105.888 24.1067 105.995 24.592 106.21 24.984C106.424 25.376 106.7 25.67 107.036 25.866C107.381 26.062 107.75 26.16 108.142 26.16ZM114.403 27L112.373 20.056H113.549L115.019 25.502L116.643 20.056H117.973L119.611 25.502L121.067 20.056H122.257L120.227 27H119.023L117.315 21.274L115.607 27H114.403Z" fill="#888888"/>
<path fill-rule="evenodd" clip-rule="evenodd" d="M135.183 19.8418L132.5 22.5251L129.817 19.8418L129 20.6585L132.5 24.1585L136 20.6585L135.183 19.8418Z" fill="#888888"/>
<g clip-path="url(#clip0_200_19081)">
<rect x="16" y="44" width="73" height="10" rx="4" fill="#38403C"/>
<rect x="16" y="58" width="239" height="10" rx="4" fill="#38403C"/>
<rect x="16" y="72" width="239" height="10" rx="4" fill="#38403C"/>
</g>
<rect x="185" y="44" width="54" height="45" rx="4" fill="#38403C"/>
<defs>
<clipPath id="clip0_200_19081">
<rect width="159" height="38" fill="white" transform="translate(16 44)"/>
</clipPath>
</defs>
</svg>
