<svg width="255" height="101" viewBox="0 0 255 101" fill="none" xmlns="http://www.w3.org/2000/svg">
<path d="M28.6744 15.5067L26.2317 19.0053C26.181 19.0773 26.0744 19.072 26.029 18.9973L23.0957 14.0507C23.3917 14.016 23.693 14 23.9997 14C25.7464 14 27.3597 14.5573 28.6744 15.5067Z" fill="#22C55E"/>
<path d="M28.1674 28.8294C26.954 29.5734 25.5274 30.0001 23.9994 30.0001C23.642 30.0001 23.29 29.9761 22.9434 29.9308L24.3887 26.5654L28.1674 28.8294Z" fill="#22C55E"/>
<path d="M20.0107 23.8954L17.6027 26.8047C16.5973 25.4661 16 23.8021 16 21.9994C16 21.7754 16.008 21.5514 16.0267 21.3301L20.0107 23.8954Z" fill="#22C55E"/>
<path d="M25.1256 19.7781L22.8429 23.0954L21.0429 23.1648L16.2402 20.0501C16.9336 17.2741 19.0802 15.0741 21.8242 14.3008L25.1256 19.7781Z" fill="#22C55E"/>
<path d="M23.4473 25.7603L21.7353 29.675C20.4713 29.3043 19.338 28.627 18.418 27.731L21.1726 24.3443L22.8393 24.291L23.4473 25.7603Z" fill="#22C55E"/>
<path d="M32.0005 22.077C31.9792 24.4716 30.9019 26.6156 29.2139 28.0663L24.5525 25.341L23.8672 23.6823L26.0912 20.4476C26.2379 20.2343 26.5099 20.1436 26.7552 20.2316L32.0005 22.077Z" fill="#22C55E"/>
<path d="M31.9074 20.7681L27.5528 19.2854C27.5208 19.2748 27.5074 19.2348 27.5261 19.2054L29.6008 16.2881C30.8061 17.4694 31.6381 19.0268 31.9074 20.7681Z" fill="#22C55E"/>
<path d="M38.994 27V17.2H45.14V18.404H40.478V21.498H44.342V22.688H40.478V27H38.994ZM49.4458 27.168C48.7831 27.168 48.1858 27.0187 47.6538 26.72C47.1311 26.412 46.7158 25.9873 46.4078 25.446C46.0998 24.8953 45.9458 24.256 45.9458 23.528C45.9458 22.8 46.0998 22.1653 46.4078 21.624C46.7251 21.0733 47.1498 20.6487 47.6818 20.35C48.2138 20.042 48.8064 19.888 49.4598 19.888C50.1224 19.888 50.7151 20.042 51.2378 20.35C51.7698 20.6487 52.1898 21.0733 52.4978 21.624C52.8151 22.1653 52.9738 22.8 52.9738 23.528C52.9738 24.256 52.8151 24.8953 52.4978 25.446C52.1898 25.9873 51.7698 26.412 51.2378 26.72C50.7058 27.0187 50.1084 27.168 49.4458 27.168ZM49.4458 25.894C49.8004 25.894 50.1271 25.8053 50.4258 25.628C50.7338 25.4507 50.9811 25.1893 51.1678 24.844C51.3544 24.4893 51.4478 24.0507 51.4478 23.528C51.4478 23.0053 51.3544 22.5713 51.1678 22.226C50.9904 21.8713 50.7478 21.6053 50.4398 21.428C50.1411 21.2507 49.8144 21.162 49.4598 21.162C49.1051 21.162 48.7738 21.2507 48.4658 21.428C48.1671 21.6053 47.9244 21.8713 47.7378 22.226C47.5511 22.5713 47.4578 23.0053 47.4578 23.528C47.4578 24.0507 47.5511 24.4893 47.7378 24.844C47.9244 25.1893 48.1671 25.4507 48.4658 25.628C48.7644 25.8053 49.0911 25.894 49.4458 25.894ZM54.5786 27V20.056H55.8946L56.0066 21.274C56.2213 20.8447 56.534 20.5087 56.9446 20.266C57.3646 20.014 57.8453 19.888 58.3866 19.888C59.2266 19.888 59.8846 20.1493 60.3606 20.672C60.846 21.1947 61.0886 21.974 61.0886 23.01V27H59.6186V23.164C59.6186 21.82 59.068 21.148 57.9666 21.148C57.416 21.148 56.9586 21.344 56.5946 21.736C56.24 22.128 56.0626 22.688 56.0626 23.416V27H54.5786ZM63.6764 18.74C63.3964 18.74 63.1631 18.656 62.9764 18.488C62.7991 18.3107 62.7104 18.0913 62.7104 17.83C62.7104 17.5687 62.7991 17.354 62.9764 17.186C63.1631 17.0087 63.3964 16.92 63.6764 16.92C63.9564 16.92 64.1851 17.0087 64.3624 17.186C64.5491 17.354 64.6424 17.5687 64.6424 17.83C64.6424 18.0913 64.5491 18.3107 64.3624 18.488C64.1851 18.656 63.9564 18.74 63.6764 18.74ZM62.9344 27V20.056H64.4184V27H62.9344ZM69.1495 27.168C68.2721 27.168 67.5488 26.9533 66.9795 26.524C66.4101 26.0947 66.0835 25.5253 65.9995 24.816H67.4975C67.5721 25.1333 67.7495 25.4087 68.0295 25.642C68.3095 25.866 68.6781 25.978 69.1355 25.978C69.5835 25.978 69.9101 25.8847 70.1155 25.698C70.3208 25.5113 70.4235 25.2967 70.4235 25.054C70.4235 24.6993 70.2788 24.4613 69.9895 24.34C69.7095 24.2093 69.3175 24.0927 68.8135 23.99C68.4215 23.906 68.0295 23.794 67.6375 23.654C67.2548 23.514 66.9328 23.318 66.6715 23.066C66.4195 22.8047 66.2935 22.4547 66.2935 22.016C66.2935 21.4093 66.5268 20.9053 66.9935 20.504C67.4601 20.0933 68.1135 19.888 68.9535 19.888C69.7281 19.888 70.3535 20.0747 70.8295 20.448C71.3148 20.8213 71.5995 21.3487 71.6835 22.03H70.2555C70.2088 21.7313 70.0688 21.498 69.8355 21.33C69.6115 21.162 69.3081 21.078 68.9255 21.078C68.5521 21.078 68.2628 21.1573 68.0575 21.316C67.8521 21.4653 67.7495 21.6613 67.7495 21.904C67.7495 22.1467 67.8895 22.338 68.1695 22.478C68.4588 22.618 68.8368 22.744 69.3035 22.856C69.7701 22.9587 70.1995 23.08 70.5915 23.22C70.9928 23.3507 71.3148 23.5467 71.5575 23.808C71.8001 24.0693 71.9215 24.452 71.9215 24.956C71.9308 25.5907 71.6835 26.118 71.1795 26.538C70.6848 26.958 70.0081 27.168 69.1495 27.168ZM76.7895 27.168C76.1268 27.168 75.5295 27.0187 74.9975 26.72C74.4748 26.412 74.0595 25.9873 73.7515 25.446C73.4435 24.8953 73.2895 24.256 73.2895 23.528C73.2895 22.8 73.4435 22.1653 73.7515 21.624C74.0688 21.0733 74.4935 20.6487 75.0255 20.35C75.5575 20.042 76.1502 19.888 76.8035 19.888C77.4662 19.888 78.0588 20.042 78.5815 20.35C79.1135 20.6487 79.5335 21.0733 79.8415 21.624C80.1588 22.1653 80.3175 22.8 80.3175 23.528C80.3175 24.256 80.1588 24.8953 79.8415 25.446C79.5335 25.9873 79.1135 26.412 78.5815 26.72C78.0495 27.0187 77.4522 27.168 76.7895 27.168ZM76.7895 25.894C77.1442 25.894 77.4708 25.8053 77.7695 25.628C78.0775 25.4507 78.3248 25.1893 78.5115 24.844C78.6982 24.4893 78.7915 24.0507 78.7915 23.528C78.7915 23.0053 78.6982 22.5713 78.5115 22.226C78.3342 21.8713 78.0915 21.6053 77.7835 21.428C77.4848 21.2507 77.1582 21.162 76.8035 21.162C76.4488 21.162 76.1175 21.2507 75.8095 21.428C75.5108 21.6053 75.2682 21.8713 75.0815 22.226C74.8948 22.5713 74.8015 23.0053 74.8015 23.528C74.8015 24.0507 74.8948 24.4893 75.0815 24.844C75.2682 25.1893 75.5108 25.4507 75.8095 25.628C76.1082 25.8053 76.4348 25.894 76.7895 25.894Z" fill="#C8C8C8"/>
<path fill-rule="evenodd" clip-rule="evenodd" d="M88.5 23.5C89.3284 23.5 90 22.8284 90 22C90 21.1716 89.3284 20.5 88.5 20.5C87.6716 20.5 87 21.1716 87 22C87 22.8284 87.6716 23.5 88.5 23.5Z" fill="#888888"/>
<path d="M97.736 18.516C97.512 18.516 97.3207 18.4413 97.162 18.292C97.0033 18.1333 96.924 17.9373 96.924 17.704C96.924 17.48 97.0033 17.2933 97.162 17.144C97.3207 16.9947 97.512 16.92 97.736 16.92C97.96 16.92 98.1467 16.9947 98.296 17.144C98.4547 17.2933 98.534 17.48 98.534 17.704C98.534 17.9373 98.4547 18.1333 98.296 18.292C98.1467 18.4413 97.96 18.516 97.736 18.516ZM95.608 30.08V29.072H96.154C96.4993 29.072 96.7467 28.9973 96.896 28.848C97.0547 28.708 97.134 28.4653 97.134 28.12V20.056H98.31V28.148C98.31 28.82 98.142 29.31 97.806 29.618C97.47 29.926 96.98 30.08 96.336 30.08H95.608ZM102.891 27.168C102.069 27.168 101.416 26.9207 100.931 26.426C100.445 25.922 100.203 25.152 100.203 24.116V20.056H101.379V23.99C101.379 25.4367 101.971 26.16 103.157 26.16C103.763 26.16 104.263 25.9453 104.655 25.516C105.056 25.0773 105.257 24.4567 105.257 23.654V20.056H106.433V27H105.369L105.285 25.754C105.07 26.1927 104.748 26.538 104.319 26.79C103.899 27.042 103.423 27.168 102.891 27.168ZM111.028 27.168C110.198 27.168 109.507 26.958 108.956 26.538C108.406 26.118 108.084 25.5487 107.99 24.83H109.194C109.269 25.194 109.46 25.5113 109.768 25.782C110.086 26.0433 110.51 26.174 111.042 26.174C111.537 26.174 111.901 26.0713 112.134 25.866C112.368 25.6513 112.484 25.3993 112.484 25.11C112.484 24.69 112.33 24.41 112.022 24.27C111.724 24.13 111.299 24.004 110.748 23.892C110.375 23.8173 110.002 23.71 109.628 23.57C109.255 23.43 108.942 23.234 108.69 22.982C108.438 22.7207 108.312 22.38 108.312 21.96C108.312 21.3533 108.536 20.8587 108.984 20.476C109.442 20.084 110.058 19.888 110.832 19.888C111.57 19.888 112.172 20.0747 112.638 20.448C113.114 20.812 113.39 21.3347 113.464 22.016H112.302C112.256 21.6613 112.102 21.386 111.84 21.19C111.588 20.9847 111.248 20.882 110.818 20.882C110.398 20.882 110.072 20.9707 109.838 21.148C109.614 21.3253 109.502 21.5587 109.502 21.848C109.502 22.128 109.647 22.3473 109.936 22.506C110.235 22.6647 110.636 22.8 111.14 22.912C111.57 23.0053 111.976 23.122 112.358 23.262C112.75 23.3927 113.068 23.5933 113.31 23.864C113.562 24.1253 113.688 24.508 113.688 25.012C113.698 25.6373 113.46 26.1553 112.974 26.566C112.498 26.9673 111.85 27.168 111.028 27.168ZM117.798 27C117.163 27 116.664 26.846 116.3 26.538C115.936 26.23 115.754 25.6747 115.754 24.872V21.05H114.55V20.056H115.754L115.908 18.39H116.93V20.056H118.974V21.05H116.93V24.872C116.93 25.3107 117.019 25.6093 117.196 25.768C117.373 25.9173 117.686 25.992 118.134 25.992H118.862V27H117.798ZM124.173 27V20.056H125.237L125.307 21.302C125.531 20.8633 125.853 20.518 126.273 20.266C126.693 20.014 127.169 19.888 127.701 19.888C128.522 19.888 129.176 20.14 129.661 20.644C130.156 21.1387 130.403 21.904 130.403 22.94V27H129.227V23.066C129.227 21.6193 128.63 20.896 127.435 20.896C126.838 20.896 126.338 21.1153 125.937 21.554C125.545 21.9833 125.349 22.5993 125.349 23.402V27H124.173ZM135.349 27.168C134.695 27.168 134.107 27.0187 133.585 26.72C133.062 26.4213 132.647 26.0013 132.339 25.46C132.04 24.9093 131.891 24.2653 131.891 23.528C131.891 22.7907 132.045 22.1513 132.353 21.61C132.661 21.0593 133.076 20.6347 133.599 20.336C134.131 20.0373 134.723 19.888 135.377 19.888C136.03 19.888 136.618 20.0373 137.141 20.336C137.663 20.6347 138.074 21.0593 138.373 21.61C138.681 22.1513 138.835 22.7907 138.835 23.528C138.835 24.2653 138.681 24.9093 138.373 25.46C138.065 26.0013 137.645 26.4213 137.113 26.72C136.59 27.0187 136.002 27.168 135.349 27.168ZM135.349 26.16C135.75 26.16 136.123 26.062 136.469 25.866C136.814 25.67 137.094 25.376 137.309 24.984C137.523 24.592 137.631 24.1067 137.631 23.528C137.631 22.9493 137.523 22.464 137.309 22.072C137.103 21.68 136.828 21.386 136.483 21.19C136.137 20.994 135.769 20.896 135.377 20.896C134.975 20.896 134.602 20.994 134.257 21.19C133.911 21.386 133.631 21.68 133.417 22.072C133.202 22.464 133.095 22.9493 133.095 23.528C133.095 24.1067 133.202 24.592 133.417 24.984C133.631 25.376 133.907 25.67 134.243 25.866C134.588 26.062 134.957 26.16 135.349 26.16ZM141.61 27L139.58 20.056H140.756L142.226 25.502L143.85 20.056H145.18L146.818 25.502L148.274 20.056H149.464L147.434 27H146.23L144.522 21.274L142.814 27H141.61Z" fill="#888888"/>
<path fill-rule="evenodd" clip-rule="evenodd" d="M162.183 19.8418L159.5 22.5251L156.817 19.8418L156 20.6585L159.5 24.1585L163 20.6585L162.183 19.8418Z" fill="#888888"/>
<g clip-path="url(#clip0_200_19095)">
<rect x="16" y="44" width="73" height="10" rx="4" fill="#38403C"/>
<rect x="16" y="58" width="239" height="10" rx="4" fill="#38403C"/>
<rect x="16" y="72" width="239" height="10" rx="4" fill="#38403C"/>
</g>
<rect x="185" y="44" width="54" height="45" rx="4" fill="#38403C"/>
<defs>
<clipPath id="clip0_200_19095">
<rect width="159" height="38" fill="white" transform="translate(16 44)"/>
</clipPath>
</defs>
</svg>
