<svg width="20" height="20" viewBox="0 0 20 20" fill="none" xmlns="http://www.w3.org/2000/svg">
<g clip-path="url(#clip0_106_3388)">
<path d="M12.3236 11.2905L3.3877 19.1827C3.3877 19.1827 6.07207 20.064 10.4268 18.5062C14.8939 16.9077 18.6908 12.7093 19.1299 7.42178C19.5111 2.82959 18.6705 2.2999 18.4096 1.96084C18.1549 1.62959 17.7252 1.5874 17.7252 1.5874L12.3236 11.2905Z" fill="#6D2A19"/>
<path d="M4.34842 5.10957C0.601548 9.21113 0.753111 14.0721 0.835923 15.8986C0.890611 17.1174 1.10155 17.7361 1.69374 18.3877C2.24686 18.9955 3.40155 19.5393 5.75311 19.0408C8.20155 18.5221 11.9281 16.8096 15.3031 12.9658C18.8828 8.88769 19.1765 2.45488 18.2078 1.76269C17.239 1.07051 15.275 0.545506 13.3672 0.656443C11.4594 0.767381 7.86249 1.26426 4.34842 5.10957Z" fill="#9C3C25"/>
<path d="M1.66736 18.3641C1.62204 18.3938 1.25798 18.1579 1.24236 17.7266C1.21423 16.9985 1.70642 14.9063 2.4033 13.3079C3.05798 11.8032 3.52673 11.1298 3.52673 11.1298C3.52673 11.1298 3.08455 10.6985 3.10017 9.89539C3.1158 9.09227 3.39392 7.55789 6.45173 4.6032C9.68923 1.47039 10.7814 1.79695 11.3002 1.80945C11.7267 1.82039 12.3939 2.07351 12.4439 2.08758C12.4439 2.08758 13.4705 1.41726 14.5267 1.19539C15.583 0.973515 16.6455 1.09695 16.8189 1.11414C16.9939 1.13133 17.2939 1.22976 17.533 1.34383C17.7611 1.45164 18.0314 1.64226 18.0314 1.64226C18.0314 1.64226 16.1564 1.40945 14.9361 1.72195C13.7158 2.03445 12.9502 2.4907 12.9502 2.4907C12.9502 2.4907 13.2939 3.09695 13.2627 3.51727C13.2174 4.11258 12.8314 4.6032 11.7299 5.73445C10.7689 6.72195 7.32048 10.6095 6.89392 11.0454C6.34392 11.611 5.65955 11.8782 5.04861 11.8188C4.43923 11.7595 4.06736 11.522 4.06736 11.522C4.06736 11.522 3.39705 12.6673 2.90642 13.8735C2.41579 15.0798 2.08767 16.3141 1.80486 17.7126C1.73454 18.0657 1.75173 18.3079 1.66736 18.3641Z" fill="#6D291A"/>
<path d="M4.1607 10.9593C4.55914 11.1952 5.62632 11.3187 6.23257 10.8296C6.83882 10.3421 7.63882 9.20617 9.45289 7.19523C10.8279 5.67336 12.4076 4.38117 12.4826 3.64211C12.581 2.66398 11.6998 2.31242 10.7529 2.38586C9.80757 2.45929 8.01851 3.76086 6.54039 5.29836C5.06226 6.83586 3.90914 8.29836 3.6732 9.33273C3.52789 9.96867 3.67789 10.6718 4.1607 10.9593Z" fill="#9C3C25"/>
<path d="M10.6235 1.09237C10.6235 1.09237 11.8188 1.30799 13.0454 2.12049C14.272 2.93299 15.6095 3.99237 16.4282 4.89081C16.8923 5.40018 18.186 7.05799 18.261 7.05799C18.336 7.05799 18.4845 6.06737 18.5298 5.69862C18.5735 5.32987 18.6485 4.97362 18.6032 4.84081C18.5595 4.70799 17.6954 3.55331 16.297 2.31268C14.7079 0.903306 13.2329 0.653306 13.2329 0.653306C13.2329 0.653306 12.8501 0.639244 11.886 0.764244C11.1876 0.856431 10.6235 1.09237 10.6235 1.09237Z" fill="#F2F0EE"/>
<path d="M1.28594 10.7827C1.28594 10.7827 2.07813 10.9733 3.4375 11.9187C4.96875 12.9843 5.92032 13.8249 7.07344 15.0077C8.16876 16.1312 9.34532 17.6249 9.34532 17.714C9.34532 17.803 8.87969 17.989 8.19688 18.289C7.8625 18.4358 7.22657 18.7108 7.12188 18.6655C7.01876 18.6218 6.17969 17.3483 4.87032 16.0858C4.04219 15.2874 3.14063 14.4312 1.9875 13.7202C1.25 13.2671 0.875005 13.1796 0.875005 13.1796C0.875005 13.1796 0.87188 12.6421 1.02657 11.828C1.16563 11.1077 1.28594 10.7827 1.28594 10.7827Z" fill="#F2F0EE"/>
<path d="M8.30298 5.21227C6.33736 7.07477 4.10767 10.0248 3.98423 10.2045C3.77017 10.5138 3.76548 10.7591 4.04204 10.931C4.31861 11.1029 4.51861 10.8279 4.69361 10.6029C4.88736 10.3545 6.64673 7.80914 8.48423 6.04039C10.6092 3.99821 12.0686 3.03571 12.2467 2.85914C12.378 2.72789 12.7202 2.57789 12.4389 2.31227C12.2249 2.10914 11.803 2.37164 11.6264 2.50446C11.4483 2.63727 10.3827 3.24196 8.30298 5.21227Z" fill="#FDFFFF"/>
<path d="M10.3408 2.12667C10.0611 2.34386 10.0877 2.74074 10.4221 3.00324C10.6768 3.20324 11.2205 3.63292 11.4799 3.87042C11.7955 4.15949 12.0971 4.21417 12.3299 4.03292C12.5737 3.84386 12.7002 3.37355 12.2674 2.93917C11.8377 2.50949 11.5893 2.25167 11.1377 2.07199C10.844 1.9548 10.5408 1.97355 10.3408 2.12667Z" fill="#FDFFFF"/>
<path d="M9.98101 3.1968C9.7232 3.0968 9.28882 2.90149 8.9482 3.21086C8.60757 3.52024 8.78726 3.91868 9.09351 4.14055C9.39976 4.36243 9.84039 4.79993 10.2779 5.11086C10.5279 5.28743 10.9591 5.43274 11.2654 5.09524C11.5185 4.81555 11.3029 4.35305 11.1123 4.12024C10.8904 3.8468 10.4341 3.3718 9.98101 3.1968Z" fill="#FDFFFF"/>
<path d="M8.78601 4.47666C8.45163 4.2876 7.8907 4.10635 7.51101 4.49541C7.09538 4.92198 7.32976 5.23604 7.73757 5.48916C8.07976 5.70166 8.77663 6.30166 9.0032 6.45635C9.37351 6.70948 9.84538 6.59854 10.0251 6.32041C10.3235 5.85948 9.9157 5.32354 9.60945 5.07354C9.31101 4.82979 8.92195 4.55479 8.78601 4.47666Z" fill="#FDFFFF"/>
<path d="M6.20155 5.77795C5.94999 6.07014 5.91249 6.3842 6.30155 6.8092C6.69061 7.2342 7.37186 7.73264 7.76561 7.86701C8.21718 8.02014 8.43436 7.84826 8.59686 7.59514C8.75936 7.34201 8.63124 6.7717 8.21561 6.40139C7.95311 6.16701 7.48436 5.75139 6.90624 5.62483C6.59218 5.55608 6.36405 5.58889 6.20155 5.77795Z" fill="#FDFFFF"/>
<path d="M5.5779 7.03618C5.36071 6.97524 5.08103 7.06274 4.91853 7.26274C4.75603 7.46118 4.6779 7.85493 4.87321 8.0768C5.07165 8.30336 5.19196 8.38617 5.52478 8.67367C5.85915 8.96274 6.19353 9.31586 6.59196 9.36118C6.87165 9.39243 7.12478 9.25336 7.24353 9.07211C7.36071 8.89086 7.34821 8.48774 7.02634 8.14086C6.79821 7.89399 6.21853 7.21586 5.5779 7.03618Z" fill="#FDFFFF"/>
<path d="M3.76408 8.73418C3.43439 9.16387 3.61564 9.74668 4.4297 10.2607C5.09689 10.6842 5.68439 10.9811 6.08439 10.4951C6.45939 10.0389 6.09376 9.57324 5.25314 8.99512C4.46564 8.45449 4.06251 8.34668 3.76408 8.73418Z" fill="#FDFFFF"/>
</g>
<defs>
<clipPath id="clip0_106_3388">
<rect width="20" height="20" fill="white"/>
</clipPath>
</defs>
</svg>
