<svg width="21" height="20" viewBox="0 0 21 20" fill="none" xmlns="http://www.w3.org/2000/svg">
<path d="M15.3818 0.625L11.8506 5.90625H13.6006L17.5381 0.625H15.3818Z" fill="#428BC1"/>
<path d="M13.6006 0.625L10.1006 5.90625H11.8506L15.3818 0.625H13.6006Z" fill="#E8E8E8"/>
<path d="M11.8506 0.625L8.35059 5.90625H10.1006L13.6006 0.625H11.8506Z" fill="#ED4C5C"/>
<path d="M10.9756 19.375C14.5309 19.375 17.4131 16.4928 17.4131 12.9375C17.4131 9.38217 14.5309 6.5 10.9756 6.5C7.42025 6.5 4.53809 9.38217 4.53809 12.9375C4.53809 16.4928 7.42025 19.375 10.9756 19.375Z" fill="#FFCE31"/>
<path d="M7.75684 4.71875C7.60059 4.71875 7.47559 4.84375 7.47559 5V7.625C7.47559 7.78125 7.60059 7.90625 7.75684 7.90625H14.1943C14.3506 7.90625 14.4756 7.78125 14.4756 7.625V5C14.4756 4.84375 14.3506 4.71875 14.1943 4.71875H7.75684ZM13.9131 6.78125C13.9131 6.9375 13.7881 7.0625 13.6318 7.0625H8.35059C8.19434 7.0625 8.06934 6.9375 8.06934 6.78125V5.59375C8.06934 5.4375 8.19434 5.3125 8.35059 5.3125H13.6318C13.7881 5.3125 13.9131 5.4375 13.9131 5.59375V6.78125Z" fill="#FFCE31"/>
<path opacity="0.5" d="M5.44434 13.6875C5.44434 10.1875 8.13184 7.34375 11.5693 7.09375C11.4131 7.09375 11.2256 7.0625 11.0693 7.0625C7.78809 7.0625 5.13184 9.71875 5.13184 13.0312C5.13184 14 5.38184 14.9375 5.78809 15.75C5.56934 15.0938 5.44434 14.4062 5.44434 13.6875Z" fill="#89664C"/>
<path opacity="0.33" d="M13.4443 17.9062C16.3506 15.9687 17.2256 12.1875 15.5381 9.25L15.8193 9.625C17.6318 12.3125 16.8818 15.9688 14.1631 17.8125C13.3506 18.375 12.4443 18.6875 11.5381 18.7812C12.2256 18.5937 12.8506 18.3125 13.4443 17.9062Z" fill="white"/>
<path d="M8.35059 5.90625H10.1006L6.56934 0.625H4.41309L8.35059 5.90625Z" fill="#ED4C5C"/>
<path d="M10.1006 5.90625H11.8506L8.35059 0.625H6.56934L10.1006 5.90625Z" fill="#E8E8E8"/>
<path opacity="0.5" d="M11.2568 1.5L10.3818 2.8125L12.4443 5.90625H13.6006L13.9131 5.46875L11.2568 1.5Z" fill="#3E4347"/>
<path d="M11.8506 5.90625H13.6006L10.1006 0.625H8.35059L11.8506 5.90625Z" fill="#428BC1"/>
<path opacity="0.5" d="M9.35059 11V11.3125C9.66309 11.3125 9.94434 11.25 10.2256 11.125V10.6875C9.97559 10.875 9.69434 10.9688 9.35059 11Z" fill="#89664C"/>
<path opacity="0.5" d="M11.4131 8.96875H11.6943V15.7187H11.4131V8.96875Z" fill="#89664C"/>
<path opacity="0.5" d="M12.6006 16V16.875H9.35059V17.1875H12.8818V16H12.6006Z" fill="#89664C"/>
<path opacity="0.33" d="M11.6943 15.7188H12.5693V16H11.6943V15.7188Z" fill="white"/>
<path opacity="0.33" d="M10.5381 8.96875H11.4131V8.6875H10.2256C10.2256 9.34375 9.69434 9.875 9.03809 9.875V11.0312C9.13184 11.0312 9.22559 11.0313 9.31934 11V10.125C10.0068 10.1563 10.5381 9.625 10.5381 8.96875Z" fill="white"/>
<path opacity="0.33" d="M10.5381 16V11C10.4443 11.0625 10.3506 11.0938 10.2568 11.1562V15.7187H9.06934V16.875H9.35059V16H10.5381Z" fill="white"/>
</svg>
