<svg width="21" height="20" viewBox="0 0 21 20" fill="none" xmlns="http://www.w3.org/2000/svg">
<g clip-path="url(#clip0_2615_16063)">
<path d="M18.0086 13.6833L17.712 13.7266L16.7326 13.8632L16.4361 13.9065V13.8965C16.3861 13.4701 16.3161 13.0437 16.2195 12.6272C16.2162 12.6172 16.2129 12.6105 16.2095 12.6039C16.2095 12.6039 16.2095 12.6039 16.2095 12.6005V12.5972C16.1229 12.2374 16.0263 11.8877 15.913 11.5412L15.9097 11.5379C15.9097 11.5312 15.9097 11.5312 15.9064 11.5312C15.8331 11.298 15.7432 11.0714 15.6565 10.8482C15.5832 10.675 15.5099 10.5017 15.43 10.3352C15.43 10.3252 15.4233 10.3185 15.4233 10.3118V10.3052C15.2901 10.032 15.1468 9.75211 14.9969 9.48895C14.9969 9.48226 14.9969 9.47895 14.9902 9.4723C14.7803 9.10246 14.5438 8.73602 14.2939 8.38957C14.2873 8.38625 14.2873 8.37957 14.2839 8.37625C14.1773 8.23297 14.0707 8.08969 13.9574 7.94648C13.8208 7.77656 13.6842 7.61 13.5343 7.45008V7.44676L13.5243 7.44008C13.451 7.35344 13.3711 7.27016 13.2944 7.1902C13.2245 7.11359 13.1545 7.04363 13.0812 6.97035C12.928 6.81707 12.7747 6.66715 12.6114 6.52391L12.6014 6.51391C12.3083 6.24742 11.9918 6.00082 11.6753 5.7643C11.6686 5.76098 11.6653 5.76098 11.6586 5.75762C11.5754 5.69766 11.4921 5.63773 11.4088 5.58109C11.3188 5.51777 11.2255 5.45449 11.1289 5.39449C11.0623 5.35453 10.9957 5.30789 10.9257 5.26789C10.8124 5.19461 10.6925 5.12465 10.5759 5.05805C10.5726 5.05473 10.5659 5.05473 10.5626 5.05473L10.5593 5.05141C10.2927 4.89812 10.0129 4.75484 9.73637 4.62496C9.73305 4.62496 9.72305 4.62164 9.71637 4.61828C9.54645 4.53832 9.37324 4.46504 9.20332 4.39176C8.98012 4.30512 8.75023 4.21852 8.52035 4.14188C8.51703 4.14188 8.51367 4.14188 8.51035 4.13855C8.16723 4.02527 7.81074 3.92527 7.44758 3.83867C7.44094 3.83535 7.43426 3.83535 7.42094 3.83203C7.05781 3.74875 6.68469 3.67875 6.31488 3.63215C6.25824 3.62547 6.20492 3.61883 6.1516 3.61215H6.1416L6.1616 3.47887L6.18824 3.31895L6.32484 2.33945L6.3648 2.04297C6.80125 2.09289 7.23434 2.16625 7.66746 2.26281C7.67746 2.26281 7.68746 2.26613 7.69078 2.26613C8.15051 2.36609 8.60695 2.49602 9.05336 2.64594C9.05336 2.64594 9.05668 2.64594 9.06004 2.64594C9.30656 2.72922 9.55309 2.82586 9.79965 2.92578C9.96289 2.99242 10.1228 3.05574 10.2894 3.13238V3.1357C10.2927 3.1357 10.3027 3.14238 10.3094 3.14238C10.5159 3.23898 10.7258 3.33555 10.9257 3.44551C11.0889 3.52879 11.2489 3.61207 11.4054 3.70203C11.4088 3.70535 11.4154 3.70535 11.4154 3.70871L11.4188 3.71203C11.8019 3.93187 12.1717 4.16512 12.5282 4.42496C12.5348 4.43164 12.5382 4.43164 12.5415 4.43496C12.5448 4.43496 12.5448 4.43828 12.5481 4.44164C12.8046 4.62488 13.0545 4.82145 13.2944 5.02133C13.3377 5.05801 13.381 5.09129 13.4243 5.12797C13.5243 5.21125 13.6175 5.29789 13.7108 5.38117L13.7241 5.39445C13.8841 5.53773 14.0473 5.69098 14.2039 5.84754C14.3604 6.00078 14.5137 6.16406 14.657 6.3273L14.667 6.33727C15.0034 6.70711 15.3266 7.10355 15.6164 7.50664C15.6198 7.50996 15.6198 7.51664 15.6231 7.52C15.6798 7.59996 15.7364 7.67992 15.793 7.75984C15.9863 8.04305 16.1628 8.33285 16.3361 8.63273L16.3394 8.63605C16.3394 8.63605 16.3394 8.64269 16.3461 8.64602C16.5493 8.99582 16.7358 9.36898 16.9057 9.73875C16.9091 9.74871 16.9124 9.75539 16.9157 9.75871C16.9891 9.92527 17.059 10.0852 17.1256 10.2518C17.2223 10.495 17.3189 10.7448 17.4022 10.9914C17.4055 10.9947 17.4022 10.9947 17.4055 10.998C17.5521 11.4445 17.682 11.8943 17.7819 12.3607C17.7852 12.3607 17.7852 12.374 17.7886 12.3807C17.882 12.8104 17.9553 13.2502 18.0086 13.6833Z" fill="#DCB1B1"/>
<path d="M17.4967 12.4156C17.4 11.9658 17.2768 11.5261 17.1235 11.0863V11.083C17.0403 10.8398 16.9536 10.5933 16.8537 10.3534C16.7871 10.1869 16.7138 10.0203 16.6405 9.85703L16.6372 9.85371C16.4706 9.48727 16.2907 9.13078 16.0908 8.7843C15.9242 8.49773 15.7477 8.21129 15.5611 7.93809C15.5012 7.85145 15.4412 7.76152 15.3779 7.67488L15.3746 7.67156C15.088 7.27512 14.7815 6.89199 14.4517 6.52887C14.3018 6.36562 14.1552 6.20906 13.9953 6.05242V6.04914C13.8387 5.89254 13.6821 5.74258 13.5189 5.59602C13.4489 5.52941 13.3756 5.46613 13.299 5.40281L13.2824 5.38613C12.9892 5.13297 12.686 4.89641 12.3729 4.67316L12.3696 4.66984C12.3596 4.66316 12.3496 4.65656 12.3396 4.64652C11.9964 4.4 11.6333 4.16676 11.2601 3.95691C11.1535 3.89359 11.0436 3.83027 10.9303 3.77031C10.6904 3.64371 10.4406 3.52047 10.1907 3.40719C10.0242 3.33051 9.86092 3.26059 9.691 3.19062C9.45111 3.09066 9.20459 3.00738 8.96139 2.92074C8.52494 2.77418 8.08186 2.64426 7.63213 2.54766C7.20236 2.45437 6.76592 2.38109 6.32947 2.33105L6.19287 3.31055C6.62932 3.36055 7.0624 3.43715 7.49549 3.53379C7.87193 3.61707 8.2451 3.72367 8.61822 3.85027C8.85143 3.93023 9.08463 4.01684 9.31787 4.11016C9.49775 4.18344 9.671 4.26008 9.84756 4.33668C10.1474 4.4766 10.4406 4.62988 10.7271 4.79312C10.7937 4.83305 10.867 4.86977 10.9303 4.91301C11.1735 5.04965 11.4034 5.20289 11.6266 5.35945C11.6399 5.36613 11.6532 5.37613 11.6665 5.38609C11.7265 5.42273 11.7831 5.46609 11.8365 5.50602C12.1763 5.74922 12.4994 6.01574 12.8192 6.29563C12.9792 6.44219 13.1391 6.59211 13.2957 6.74867L13.299 6.75199C13.4556 6.90855 13.6022 7.0652 13.7521 7.22844C13.9553 7.46168 14.1519 7.69484 14.3384 7.93805C14.4051 8.02801 14.4717 8.11797 14.5417 8.21125C14.7982 8.56437 15.0381 8.93418 15.2546 9.32063C15.4179 9.60379 15.5678 9.89699 15.7077 10.1968C15.7877 10.3734 15.861 10.55 15.9376 10.7265C16.0309 10.9631 16.1175 11.1963 16.1941 11.4295C16.3207 11.7993 16.4273 12.1757 16.514 12.5522C16.6072 12.982 16.6805 13.415 16.7372 13.8482V13.8548L17.7166 13.7182V13.7116C17.6632 13.2785 17.5899 12.842 17.4967 12.4156Z" fill="#DCB1B1"/>
<path d="M15.8299 13.9804V13.987L15.6733 14.007L15.5368 14.0237L15.5335 14.027L14.5473 14.1669H14.544L14.2508 14.2069V14.2036L14.2475 14.1969C14.2009 13.7738 14.1276 13.3473 14.0243 12.9376C14.021 12.9276 14.0176 12.9142 14.0143 12.9043C14.0143 12.9043 14.0143 12.9043 14.0143 12.9009C13.9643 12.7011 13.9077 12.4978 13.8377 12.298V12.2946C13.8377 12.288 13.8377 12.288 13.8377 12.2846C13.7011 11.8782 13.5445 11.4784 13.358 11.0953C13.3546 11.0886 13.3513 11.0786 13.348 11.0686C13.278 10.9354 13.2113 10.8021 13.1381 10.6721C13.1347 10.6655 13.1314 10.6621 13.1314 10.6555C12.9215 10.279 12.6883 9.91922 12.4385 9.57605C12.4318 9.57277 12.4318 9.56277 12.4251 9.55941L12.4218 9.55609C12.2819 9.36957 12.132 9.18297 11.9721 9.00637V9.00305C11.9721 8.99973 11.9654 8.99305 11.9621 8.98641C11.8222 8.8298 11.6789 8.67656 11.5224 8.52332V8.52C11.3691 8.36676 11.2158 8.22016 11.056 8.08355C11.0526 8.07687 11.046 8.07027 11.0393 8.07027C10.8661 7.91699 10.6762 7.76375 10.4863 7.62051L10.483 7.61719C10.4796 7.61387 10.473 7.61051 10.4663 7.60719C10.1232 7.35398 9.76002 7.12078 9.39022 6.91422C9.38354 6.9109 9.38022 6.9109 9.37357 6.90758C9.24029 6.83094 9.10705 6.7643 8.97377 6.6977C8.96377 6.69437 8.95713 6.6877 8.94713 6.68437C8.56732 6.50113 8.16756 6.33789 7.75775 6.20801C7.75443 6.20801 7.75111 6.20469 7.74775 6.20469C7.54787 6.14137 7.34131 6.07805 7.13807 6.02813C7.12811 6.0248 7.11807 6.01812 7.10811 6.01812C6.69498 5.91816 6.26857 5.84488 5.84877 5.79492L5.83545 5.7916L5.87541 5.4984L6.01865 4.50895L6.05861 4.21582C6.49506 4.26242 6.93814 4.34238 7.36455 4.44234C7.37123 4.44234 7.38119 4.44566 7.38787 4.44902C7.69436 4.5223 8.00088 4.60895 8.2874 4.70223C8.29072 4.70555 8.2974 4.70555 8.2974 4.70555C8.71385 4.84543 9.13029 5.01203 9.52674 5.19527C9.53342 5.19859 9.54342 5.20527 9.55006 5.20859C9.7733 5.3152 9.99983 5.4318 10.213 5.55176C10.2197 5.55504 10.2263 5.5584 10.233 5.56172C10.6128 5.77828 10.9893 6.02148 11.3424 6.28133C11.3458 6.28133 11.3524 6.28465 11.3558 6.29133C11.6289 6.48789 11.8955 6.70777 12.152 6.93094L12.1653 6.9443C12.3319 7.09086 12.4918 7.24082 12.6484 7.39738C12.8016 7.55395 12.9515 7.71391 13.0981 7.87715L13.1148 7.89043C13.1714 7.95707 13.2281 8.01703 13.2813 8.08699C13.3913 8.21695 13.5012 8.3502 13.6012 8.48348C13.6545 8.55012 13.7045 8.62008 13.7544 8.68668C13.7578 8.69336 13.7611 8.70004 13.7644 8.70336C14.0243 9.05648 14.2675 9.43293 14.4807 9.81273C14.484 9.81941 14.484 9.82273 14.4907 9.82938C14.6106 10.0393 14.7272 10.2691 14.8338 10.4957C14.8371 10.5023 14.8438 10.5057 14.8471 10.5157C15.0337 10.9154 15.1969 11.3252 15.3369 11.745C15.3402 11.7483 15.3369 11.7516 15.3402 11.7516C15.4368 12.0482 15.5234 12.3513 15.5967 12.6545C15.6 12.6612 15.6 12.6745 15.6 12.6778V12.6811C15.7033 13.1075 15.7799 13.5439 15.8299 13.9804Z" fill="#DCB1B1"/>
<path d="M15.3115 12.7184C15.2382 12.4219 15.1549 12.1287 15.0616 11.8456L15.0583 11.8423C14.9184 11.4191 14.7584 11.0161 14.5685 10.613C14.4652 10.3964 14.3553 10.1765 14.2354 9.96996C14.0188 9.58348 13.7789 9.21371 13.5191 8.85723C13.3225 8.5907 13.1159 8.33082 12.8927 8.0843C12.7495 7.91773 12.5962 7.76113 12.4396 7.60457C12.283 7.44465 12.1232 7.29141 11.9599 7.15148C11.71 6.92492 11.4535 6.72172 11.187 6.52516L11.1837 6.52184C11.0438 6.41855 10.9038 6.32191 10.7572 6.22531C10.6773 6.17199 10.5973 6.11871 10.514 6.06875C10.3708 5.97879 10.2209 5.89215 10.0743 5.80887C9.86438 5.68895 9.64449 5.57562 9.42793 5.47238C9.02484 5.2825 8.62172 5.12258 8.19859 4.98266H8.19527C8.15859 4.96934 8.11863 4.95602 8.07867 4.94602C7.88211 4.87941 7.67555 4.8227 7.47234 4.77277C7.42238 4.75609 7.37574 4.74609 7.32574 4.73281C6.89266 4.62957 6.45957 4.55621 6.02313 4.50293L5.87988 5.49238C6.31965 5.53906 6.75609 5.6157 7.1825 5.72563C7.40902 5.77895 7.63227 5.84223 7.85547 5.91551L7.85879 5.91883C8.27191 6.05543 8.68168 6.22203 9.08145 6.41187C9.23469 6.48519 9.38793 6.56516 9.53785 6.64512V6.64844C9.92098 6.86168 10.2941 7.0982 10.6506 7.36141C10.8571 7.51797 11.0604 7.67789 11.2569 7.85445C11.4202 7.9977 11.5834 8.1443 11.74 8.30422C11.8966 8.46082 12.0465 8.62406 12.1898 8.7873C12.363 8.98051 12.5229 9.18707 12.6828 9.39027C12.946 9.75008 13.1825 10.1199 13.3924 10.503L13.3957 10.5063C13.479 10.6529 13.5523 10.8062 13.6289 10.9595L13.6323 10.9627C13.8221 11.3592 13.9854 11.769 14.1254 12.1854V12.1887C14.1986 12.412 14.262 12.6318 14.3152 12.8584C14.4252 13.2882 14.5018 13.7212 14.5484 14.1577V14.161H14.5518L15.5379 14.0211C15.488 13.5813 15.4114 13.1482 15.3115 12.7184Z" fill="#DCB1B1"/>
<path d="M7.95326 0.176855L7.92994 0.343457L7.73338 1.756L7.66342 2.25908L7.62346 2.55229L7.48686 3.53842L7.44354 3.83486L7.36025 4.44455L7.33025 4.64779L7.31693 4.74107L7.17369 5.73389L7.13369 6.03037L6.71725 8.98545L6.71393 8.99541L6.3408 11.6407V11.6507L6.16088 12.95L6.13756 13.1065L6.06428 13.6196L6.06096 13.623L6.05428 13.6996L6.03432 13.8295L6.00764 14.0361L5.961 14.3492L5.93436 14.5291L5.89772 14.789L5.89439 14.7956L5.85107 15.1255L5.84439 15.1787L5.83771 15.1954V15.2454L5.82107 15.3453L5.81439 15.3987L5.80775 15.4419L5.42795 18.1438L4.7883 18.0505H4.78498L4.11865 17.9573L4.18865 17.4708L4.29857 16.678L4.35521 16.2848L4.35854 16.2815V16.2782L4.4285 15.7651L4.45518 15.5885L4.59506 14.5624L4.59842 14.5591L4.60838 14.5024L4.62838 14.3258L4.6317 14.3192L4.63838 14.2792V14.2726L4.64174 14.2259L4.6517 14.1693L4.41518 13.9328L4.72834 13.6196L4.76834 13.3631L4.79166 13.1798L4.96822 11.9372L5.02482 11.5207L5.83107 5.79385L5.87107 5.50065L6.01432 4.51119L6.05428 4.21807L6.13756 3.60834L6.15756 3.4751L6.18424 3.31518L6.3208 2.33568L6.3608 2.0392L6.40076 1.756L6.40744 1.71272L6.65061 -0.00634766L7.95326 0.176855Z" fill="#FAF2F1"/>
<path d="M20.0498 13.3895L18.0056 13.6785L17.7103 13.7207L16.7293 13.8578L16.434 13.9L15.8264 13.9844L15.5311 14.0266L14.5438 14.1658L14.2485 14.208L6.68135 15.2733L5.81643 15.3957L5.77213 15.4021H5.76365L5.71936 15.4084L5.54217 15.4337L5.48311 15.4421L5.18775 15.4843H5.18354L4.45365 15.5856L4.27854 15.613L3.75955 15.6847L3.36717 15.7396L2.57607 15.8514H2.57186L2.08455 15.921L1.99174 15.2544L1.89893 14.613L4.60338 14.2333L4.64561 14.2249L4.69623 14.2207L4.69834 14.2185H4.70678L4.8608 14.1953H4.86924L4.91982 14.1869L5.24682 14.1426H5.25104L5.51264 14.1046L5.79955 14.0624L6.10967 13.7523L6.34385 13.9865L6.41975 13.9781L6.42186 13.976L7.09482 13.881L8.33947 13.7038L8.39643 13.6975H8.40068L11.0482 13.3241L14.0122 12.9043L14.3096 12.8642L15.3033 12.7229L15.5986 12.6807L16.2083 12.5942L16.5057 12.5541L17.4909 12.417L17.7862 12.3748L19.8642 12.0815L20.0498 13.3895Z" fill="#FAF2F1"/>
<path d="M10.9515 1.31592L10.7849 1.77229L10.2785 3.14494V3.14826L10.1753 3.42811L9.83209 4.35756L9.72549 4.63744L9.5156 5.21381L9.41232 5.49697L9.06584 6.43643L8.96256 6.71631L8.23299 8.68853L6.95697 12.16V12.1633L6.52389 13.3394L6.47393 13.466L6.41061 13.6392V13.6426L6.29068 13.9624L6.1008 14.4821L6.09412 14.5054L5.8676 15.1151V15.1184L5.8376 15.195L5.83092 15.2117L5.81096 15.2683L5.76764 15.3916L5.75764 15.4216L4.7815 18.0668L4.69822 18.2934L3.86201 17.9869L3.55217 17.8703L3.45557 17.8336L3.46221 17.8137L3.63549 17.3505L3.92197 16.5676L4.17518 15.878L4.1785 15.8713H4.18186V15.868L4.27178 15.6315L4.5483 14.8719L4.67822 14.522L4.72486 14.3955V14.3922L4.76154 14.2955L4.72818 14.2622H4.72486L4.70486 14.2389L4.6949 14.2322L4.60494 14.139H4.60158L4.59494 14.129L4.95807 13.7658L5.06471 13.476L5.44447 12.4365L5.62104 11.9668L6.70713 9.0117L6.71045 9.00174L7.73658 6.22326L7.83986 5.94006L8.18299 5.00725L8.28627 4.72408L8.49951 4.15103L8.60275 3.87119L8.94592 2.94166L9.0492 2.6585L9.37568 1.77229L9.70885 0.862793L10.9515 1.31592Z" fill="white"/>
<path d="M19.1899 10.3352L17.3995 10.9947L17.3924 10.9971L17.1097 11.1008L16.1792 11.4424L15.9083 11.5437L15.9012 11.546L15.3335 11.7556L15.3264 11.758L15.0438 11.8617L14.1108 12.2056L13.8353 12.3069L13.8282 12.3093L11.0602 13.3293L11.0437 13.3364H11.039L7.61373 14.5991L6.57717 14.9807L6.16022 15.1338L5.83045 15.2563L5.81158 15.261L5.66084 15.3176L5.53357 15.3647L5.18022 15.4966L5.17553 15.4966L4.42166 15.7746L4.18377 15.8617L4.18139 15.8641L3.48174 16.1209L2.7067 16.4059L2.23557 16.5803L2.21436 16.5873L2.17666 16.4884L2.06357 16.1821L1.75732 15.3482L1.9835 15.2634L4.63135 14.2881L4.65963 14.2787L4.72561 14.2551L4.85041 14.2104L4.85279 14.208L4.93522 14.1774L5.53123 13.9583L5.54772 13.9512L5.55479 13.9489L5.91994 13.5837L6.08955 13.7533L6.40994 13.6356L6.41229 13.6332L6.58428 13.5696L6.70912 13.5249L7.88936 13.089L11.3664 11.8075L13.3358 11.0819L13.3382 11.0796L13.6138 10.9783L14.5538 10.632L14.8364 10.5283L14.8388 10.526L15.4112 10.3163L15.6939 10.2127L16.6221 9.86873L16.6244 9.87107L16.9048 9.76506L16.9071 9.76272L18.7328 9.09131L19.1875 10.3328L19.1899 10.3352Z" fill="white"/>
<path d="M13.5456 2.81352L13.5123 2.86352L13.419 3.01008L12.5195 4.41598L12.3562 4.66918L11.8998 5.38547L11.8232 5.50539L11.6666 5.75527L11.3335 6.27832L11.1735 6.5282L10.6372 7.36441L10.4739 7.61426L8.69822 10.4028L8.69486 10.4061L7.04576 12.988L6.70928 13.5111L6.64596 13.6144L6.41611 13.9741L6.41275 13.9775L6.10295 14.4606L6.09295 14.4772V14.4805L5.89307 14.7837L5.88975 14.7904L5.53658 15.3501L5.47994 15.44L5.39334 15.5699L5.39002 15.5766L5.35334 15.6332L4.184 17.4656L3.86416 17.9653L3.82752 18.022L3.55432 17.8487L3.46436 17.7921L3.28779 17.6788H3.28447L2.87467 17.4189L2.86471 17.4123L2.72146 17.3157L2.71811 17.319L2.71479 17.3157L2.71143 17.3123L2.71479 17.309L2.73143 17.2757L3.48436 16.1063L3.75088 15.6832H3.7542V15.6799L4.35389 14.747L4.39385 14.6838L4.62373 14.3206L4.62705 14.314L4.66041 14.264L4.69037 14.2173L4.69705 14.2107L4.64705 14.164L4.60373 14.1174H4.60709L5.02018 13.701L5.13346 13.5211L5.68982 12.6582L6.01635 12.1452L6.33615 11.6454V11.6421L8.23514 8.66699L9.36451 6.90465L9.52443 6.65145V6.64813L10.0608 5.81191L10.224 5.55871L10.5539 5.04566L10.7138 4.79246L10.917 4.4693L11.2468 3.95625L11.4101 3.70305L11.9298 2.89016L12.4328 2.10059L13.3124 2.66359L13.5456 2.81352Z" fill="#FAF2F1"/>
<path d="M17.9317 7.59715L16.3345 8.61953C16.3322 8.61719 16.3322 8.61719 16.3322 8.61719L16.3275 8.62191L16.0778 8.78211L15.2415 9.31687L14.9941 9.47469L14.987 9.47703L14.4758 9.80449L14.4711 9.80922L14.2214 9.96937L13.3804 10.5041L13.1331 10.662L13.1283 10.6667L11.3803 11.7833L11.3733 11.7857L11.3686 11.7904L8.391 13.6938L7.37564 14.3417L6.51107 14.8953L6.16244 15.1167L5.8185 15.3381L5.769 15.3687L5.71478 15.4041H5.7101L5.35435 15.6326L5.28842 15.675L4.35318 16.2711L3.92443 16.5443L2.75365 17.2958L2.72068 17.3146L2.71834 17.317L2.716 17.3146L2.71365 17.3076L2.61943 17.1615L2.35322 16.7446L2.23779 16.5632L2.17889 16.4713L2.00928 16.2027L2.0658 16.1651L2.5676 15.847L2.56994 15.8447L4.3933 14.681L4.45693 14.6409L4.59123 14.5538L4.68072 14.4972L5.24143 14.1391H5.24611L5.49818 13.9766L5.91514 13.5596L6.00467 13.6492L6.0565 13.6162L6.05885 13.6139L6.41928 13.3854L6.52529 13.317L7.04588 12.9849L7.17549 12.9024L9.62783 11.3359L12.417 9.55492L12.4217 9.55019L12.6691 9.39234L13.5054 8.85758L13.7551 8.69738L14.2757 8.36523L14.5277 8.20742L15.364 7.67266L15.6161 7.51012L15.6208 7.50539L17.2204 6.48535L17.9317 7.59715Z" fill="#FAF2F1"/>
<path d="M15.0328 4.08685L2.28125 16.8384L3.21413 17.7713L15.9656 5.01973L15.0328 4.08685Z" fill="white"/>
<path d="M8.36825 16.7551C8.34825 16.8484 8.32161 16.9384 8.29497 17.0283C8.26833 17.1216 8.23497 17.2116 8.20169 17.2982C8.16837 17.3881 8.12841 17.4781 8.08841 17.5614C8.04845 17.648 8.00513 17.7346 7.95849 17.8179C7.91185 17.9045 7.86185 17.9845 7.80856 18.0644C7.76192 18.1377 7.7186 18.2044 7.66864 18.2743C7.59532 18.371 7.5154 18.4676 7.43544 18.5575C7.3788 18.6241 7.31552 18.6908 7.2522 18.754C7.2522 18.754 7.2522 18.754 7.24888 18.7574C7.17892 18.8273 7.10895 18.8906 7.03567 18.9506C7.02567 18.9673 7.00903 18.9806 6.99235 18.9906C6.91907 19.0538 6.84243 19.1172 6.76247 19.1738C6.76247 19.1738 6.76247 19.1738 6.75915 19.1738C6.68919 19.2304 6.61255 19.2804 6.53595 19.3303C6.51263 19.3437 6.49599 19.3537 6.47931 19.3637C6.39935 19.4136 6.31606 19.4603 6.23278 19.5036C6.00954 19.6235 5.77966 19.7201 5.54317 19.7935C5.46321 19.8168 5.38325 19.8401 5.30329 19.8601C5.19669 19.8867 5.08677 19.91 4.98013 19.93C4.90349 19.9433 4.82688 19.9533 4.74692 19.9634C4.66364 19.9733 4.577 19.98 4.49372 19.9833H4.4904C4.44708 19.9867 4.41044 19.9867 4.36712 19.9867H4.24384C4.24224 19.9867 4.24056 19.9865 4.23896 19.9865C4.09728 19.9867 3.95485 19.9813 3.81407 19.9634C3.44427 19.9267 3.08114 19.8367 2.73134 19.6969C2.66806 19.6735 2.60142 19.6469 2.5381 19.6169C2.47481 19.5869 2.40817 19.5569 2.34485 19.5236C2.33485 19.5169 2.32153 19.5103 2.31153 19.5069C2.24489 19.4736 2.17825 19.437 2.11497 19.397C2.09833 19.387 2.08165 19.3771 2.06501 19.3637C1.78849 19.1971 1.52864 18.9938 1.29208 18.7573C1.04224 18.5074 0.825674 18.2276 0.652432 17.9344C0.52583 17.7246 0.422549 17.508 0.335947 17.2881C-0.0338574 16.3187 -0.0338574 15.2392 0.335947 14.2731C0.54251 13.7367 0.862354 13.2337 1.29208 12.8039C1.86509 12.2309 2.56138 11.8544 3.29435 11.6812L4.79689 13.1837L5.07673 13.4636L8.36825 16.7551Z" fill="#FAF2F1"/>
<path d="M8.48498 15.7729C8.48498 15.8863 8.48166 15.9928 8.47498 16.1061C8.45498 16.3227 8.42166 16.5426 8.3717 16.7558L8.36838 16.7591L5.07682 13.4676L4.79697 13.1877L3.29443 11.6851C3.72752 11.5852 4.17061 11.5486 4.61369 11.5852L8.47162 15.4431C8.47494 15.4897 8.4783 15.5364 8.48162 15.583C8.48498 15.6463 8.4883 15.7097 8.48498 15.7729Z" fill="#B76489"/>
<path opacity="0.1" d="M13.1014 7.88215L13.0981 7.88547L13.1147 7.89875L13.1014 7.88215ZM13.1014 7.88215L13.0981 7.88547L13.1147 7.89875L13.1014 7.88215ZM13.0981 7.88547L13.1147 7.89875L13.1014 7.88215L13.0981 7.88547ZM19.8711 12.0865L19.7811 12.0965L17.7955 12.3797C17.7922 12.373 17.7855 12.363 17.7855 12.3563C17.6823 11.8966 17.559 11.4402 17.4091 10.9971V10.9871L19.1981 10.3274H19.2048L18.745 9.08805L16.9193 9.7577C16.9193 9.75437 16.9127 9.74441 16.9094 9.73773C16.7428 9.36461 16.5529 8.9948 16.3497 8.645C16.3464 8.63836 16.3464 8.63504 16.343 8.63172L17.9388 7.60891H17.9421L17.3957 6.74937L17.2325 6.49285L17.2292 6.49953L17.1792 6.53285L15.7933 7.4157L15.63 7.51895C15.6234 7.51227 15.6234 7.50894 15.62 7.50559C15.3302 7.1025 15.0104 6.70605 14.6739 6.33621L14.6605 6.32293L15.8166 5.1702L15.9698 5.01363L15.9765 5.01031L15.5101 4.54395L15.5068 4.55062L15.3502 4.70387L14.2041 5.84988L13.9909 6.06309L13.2947 6.7627L13.0814 6.97262L12.6483 7.4057L12.4351 7.61895L11.7355 8.31855L11.5223 8.53176L7.05469 12.9993L6.54164 13.5124L6.42836 13.6257L6.01191 14.0421L5.83203 14.222L4.45945 15.5946L4.19957 15.8545L4.19293 15.8611L2.75371 17.3004L2.73039 17.327L2.72707 17.3303L1.38445 18.6696L1.29785 18.7562C1.47441 18.9328 1.6643 19.0927 1.8609 19.2327C1.9275 19.2793 1.99414 19.3226 2.0641 19.3659C2.07742 19.3759 2.09074 19.3826 2.10406 19.3892C2.17402 19.4325 2.24066 19.4725 2.31063 19.5091C2.32063 19.5125 2.33395 19.5191 2.34395 19.5258C2.40723 19.5591 2.47387 19.5891 2.53719 19.6191C2.60047 19.6491 2.66711 19.6757 2.73043 19.6991C2.90699 19.7657 3.08355 19.8223 3.26348 19.869C3.32676 19.8823 3.38676 19.8989 3.44672 19.9089C3.50668 19.9189 3.56668 19.9323 3.62664 19.9389C3.6566 19.9422 3.6866 19.9489 3.71992 19.9522C3.75324 19.9555 3.7832 19.9622 3.8132 19.9656C3.87316 19.9722 3.93648 19.9755 3.99645 19.9789C4.07973 19.9889 4.16301 19.9889 4.24297 19.9889H4.36625C4.40957 19.9889 4.44621 19.9889 4.48953 19.9855H4.49285C4.57613 19.9822 4.66277 19.9755 4.74606 19.9656C4.82602 19.9556 4.90262 19.9456 4.97926 19.9322C5.08586 19.9122 5.19578 19.8889 5.30242 19.8623C5.38238 19.8423 5.46234 19.8189 5.5423 19.7957C5.60227 19.7757 5.65891 19.7557 5.71887 19.7357C5.89211 19.669 6.06535 19.5924 6.23195 19.5058C6.31523 19.4625 6.39852 19.4158 6.47848 19.3659C6.49512 19.3559 6.5118 19.3459 6.53512 19.3325C6.61172 19.2826 6.68836 19.2326 6.75832 19.176C6.76164 19.176 6.76164 19.176 6.76164 19.176C6.8416 19.1194 6.91824 19.0561 6.99152 18.9928C7.00816 18.9828 7.02484 18.9695 7.03484 18.9528C7.10813 18.8928 7.17809 18.8295 7.24805 18.7596C7.25137 18.7563 7.25137 18.7562 7.25137 18.7562C7.31469 18.693 7.37797 18.6264 7.43461 18.5597C7.51457 18.4698 7.59453 18.3731 7.66781 18.2765C7.71777 18.2066 7.76109 18.1399 7.80773 18.0666C7.86102 17.9867 7.91102 17.9067 7.95766 17.8201C8.0043 17.7368 8.04758 17.6502 8.08758 17.5636C8.12758 17.4803 8.16754 17.3904 8.20086 17.3004C8.23418 17.2138 8.2675 17.1239 8.29414 17.0305C8.32078 16.9406 8.34742 16.8506 8.36742 16.7573L8.37074 16.754C8.42402 16.5375 8.45734 16.3209 8.47402 16.1044C8.4807 15.9911 8.48402 15.8845 8.48402 15.7712C8.48734 15.7079 8.48402 15.6446 8.4807 15.5813C8.4807 15.5347 8.47738 15.488 8.47402 15.438L8.11422 15.0816H8.1109V15.0783L14.2509 14.2121H14.2576L14.5441 14.1721H14.5508L15.5336 14.0355L15.5369 14.0322L15.8301 13.9889H15.8334L16.4364 13.9056H16.443L16.7329 13.859H16.7362L17.7123 13.7224H17.7157L18.0088 13.6857L18.0121 13.6824L19.7812 13.4325L20.051 13.3926H20.0577L19.8711 12.0865ZM13.1014 7.88215L13.5345 7.45238V7.44906L13.5412 7.44574C13.6878 7.60898 13.8277 7.77555 13.9676 7.94879C14.0742 8.08867 14.1841 8.22863 14.2874 8.37523L14.2841 8.37855L13.7677 8.70504C13.7644 8.70504 13.7644 8.69504 13.7577 8.69168C13.7078 8.62508 13.6578 8.55844 13.6012 8.4918C13.5012 8.3552 13.3946 8.22195 13.2813 8.09531C13.228 8.02535 13.1714 7.96543 13.1148 7.89875L13.1014 7.88215ZM14.8405 10.4974C14.7305 10.2708 14.6173 10.0443 14.494 9.83109C14.4907 9.82777 14.4907 9.82109 14.484 9.81773L14.997 9.49125L15.0037 9.48793C15.1536 9.75109 15.2968 10.031 15.4268 10.3075H15.4235L14.8505 10.5207C14.8438 10.514 14.8438 10.504 14.8405 10.4974ZM13.138 10.6806L13.1414 10.6739C13.2146 10.8039 13.2813 10.9404 13.3479 11.077L11.389 11.7966L13.138 10.6806ZM13.8377 12.3031L13.8443 12.2998V12.3031C13.9143 12.5029 13.9676 12.7095 14.0176 12.9094H14.0143L11.0725 13.3259L11.0559 13.3292L13.8377 12.3031ZM16.2097 12.5996L15.6034 12.6862C15.6067 12.6762 15.6034 12.6662 15.6001 12.6595C15.5268 12.3564 15.4402 12.0499 15.3436 11.7567V11.7534C15.3436 11.7534 15.3436 11.7534 15.3402 11.75L15.9099 11.5402L15.9166 11.5369L15.9199 11.5402C16.0332 11.8867 16.1298 12.2398 16.2164 12.5996H16.2097V12.5996ZM11.9787 9.00816C12.132 9.18141 12.2852 9.37133 12.4285 9.56121C12.4318 9.56453 12.4318 9.56453 12.4318 9.56453L12.4251 9.56785L12.4218 9.56453L9.64332 11.3436L11.9787 9.00816ZM13.1014 7.88215L13.0981 7.88547L13.1147 7.89875L13.1014 7.88215ZM11.972 9.01148V9.0148L11.9754 9.01148H11.972ZM13.1014 7.88215L13.0981 7.88547L13.1147 7.89875L13.1014 7.88215ZM13.1014 7.88215L13.0981 7.88547L13.1147 7.89875L13.1014 7.88215Z" fill="#040000"/>
</g>
<defs>
<clipPath id="clip0_2615_16063">
<rect width="20" height="20" fill="white" transform="translate(0.0595703)"/>
</clipPath>
</defs>
</svg>
