<svg width="20" height="21" viewBox="0 0 20 21" fill="none" xmlns="http://www.w3.org/2000/svg">
<g clip-path="url(#clip0_106_3390)">
<g clip-path="url(#clip1_106_3390)">
<path d="M10 20.8999C15.5228 20.8999 20 16.4228 20 10.8999C20 5.37705 15.5228 0.899902 10 0.899902C4.47715 0.899902 0 5.37705 0 10.8999C0 16.4228 4.47715 20.8999 10 20.8999Z" fill="#E1E8ED"/>
<path d="M17.6676 17.3143C15.9954 16.5782 14.9998 14.2599 14.9998 10.8999C14.9998 7.5399 15.9954 5.22157 17.6676 4.48546C17.4193 4.19202 17.1544 3.91304 16.8743 3.6499C15.2254 4.56935 13.8887 6.77657 13.8887 10.8999C13.8887 15.0227 15.2254 17.2305 16.8743 18.1499C17.1531 17.8849 17.4209 17.6093 17.6676 17.3143ZM6.11092 10.8999C6.11092 6.77712 4.77425 4.56935 3.12536 3.65046C2.84505 3.91327 2.58016 4.19206 2.33203 4.48546C4.00425 5.22212 4.99981 7.5399 4.99981 10.8999C4.99981 14.2599 4.00425 16.5777 2.33203 17.3143C2.57925 17.6093 2.84648 17.8849 3.12536 18.1499C4.7737 17.2305 6.11092 15.0227 6.11092 10.8999Z" fill="#B3BEC4"/>
<path d="M2.82871 6.54662C2.69705 6.54662 2.57482 6.53551 2.46705 6.51551C2.32221 6.4884 2.19407 6.40486 2.11083 6.28328C2.06961 6.22307 2.04065 6.15534 2.02561 6.08395C2.01057 6.01255 2.00973 5.93889 2.02316 5.86718C2.03658 5.79546 2.064 5.72709 2.10385 5.66597C2.14369 5.60485 2.19519 5.55218 2.25539 5.51096C2.37698 5.42771 2.52665 5.39618 2.67149 5.42329C2.91038 5.46607 4.16649 5.42662 4.42038 4.15885C4.44933 4.01438 4.53449 3.88733 4.65712 3.80564C4.71784 3.7652 4.78593 3.73711 4.8575 3.72298C4.92908 3.70885 5.00273 3.70895 5.07427 3.72329C5.1458 3.73763 5.21381 3.76591 5.27441 3.80653C5.33502 3.84715 5.38703 3.89931 5.42747 3.96003C5.46792 4.02075 5.496 4.08884 5.51013 4.16041C5.52426 4.23199 5.52416 4.30564 5.50982 4.37718C5.18593 5.99496 3.76593 6.54662 2.82871 6.54662ZM3.77316 8.74718C3.47871 8.74718 3.24427 8.56773 3.22982 8.26996C3.21538 7.96385 3.45205 7.76385 3.75871 7.7494C3.75871 7.7494 5.18316 7.72996 5.90816 6.47496C5.94491 6.41212 5.99374 6.35717 6.05182 6.31329C6.10991 6.26941 6.17611 6.23745 6.2466 6.21928C6.3171 6.2011 6.39049 6.19705 6.46256 6.20737C6.53462 6.21769 6.60393 6.24217 6.66649 6.2794C6.93204 6.43273 7.02316 6.77607 6.86927 7.04218C5.84093 8.82329 3.78205 8.74718 3.77316 8.74718ZM4.99982 11.6122C4.59205 11.6122 4.21427 11.5372 3.92871 11.4022C3.79551 11.3391 3.69282 11.2257 3.64323 11.0869C3.59364 10.9482 3.60121 10.7954 3.66427 10.6622C3.72733 10.529 3.84072 10.4263 3.9795 10.3767C4.11828 10.3271 4.27107 10.3347 4.40427 10.3977C4.86538 10.6161 6.02982 10.5305 6.47649 9.83551C6.51592 9.77412 6.56706 9.72109 6.62699 9.67946C6.68691 9.63784 6.75445 9.60842 6.82575 9.59289C6.89704 9.57736 6.9707 9.57603 7.04251 9.58896C7.11432 9.6019 7.18287 9.62886 7.24427 9.66829C7.30566 9.70772 7.35869 9.75886 7.40031 9.81879C7.44194 9.87871 7.47136 9.94625 7.48689 10.0175C7.50242 10.0888 7.50375 10.1625 7.49081 10.2343C7.47788 10.3061 7.45092 10.3747 7.41149 10.4361C6.87593 11.27 5.86927 11.6122 4.99982 11.6122ZM5.64482 14.6816C4.78149 14.6816 3.98093 14.2933 3.46371 13.8616C3.40764 13.8149 3.36132 13.7577 3.32739 13.6931C3.29346 13.6285 3.27259 13.5578 3.26596 13.4852C3.25933 13.4125 3.26708 13.3392 3.28876 13.2696C3.31044 13.1999 3.34563 13.1352 3.39232 13.0791C3.43902 13.0231 3.49629 12.9767 3.56089 12.9428C3.62548 12.9089 3.69613 12.888 3.76879 12.8814C3.84145 12.8747 3.91471 12.8825 3.98437 12.9042C4.05404 12.9258 4.11876 12.961 4.17482 13.0077C4.2826 13.0983 5.25927 13.8777 6.27593 13.4438C6.34313 13.4154 6.41527 13.4004 6.48825 13.3998C6.56123 13.3992 6.63362 13.4129 6.70128 13.4403C6.76894 13.4677 6.83054 13.5081 6.88258 13.5593C6.93461 13.6105 6.97606 13.6714 7.00454 13.7386C7.03303 13.8058 7.04801 13.8779 7.04862 13.9509C7.04923 14.0239 7.03545 14.0963 7.00808 14.1639C6.98072 14.2316 6.94029 14.2932 6.88912 14.3452C6.83794 14.3972 6.77702 14.4387 6.70982 14.4672C6.37293 14.6098 6.01066 14.6827 5.64482 14.6816ZM5.41649 17.5666H5.40093C4.00982 17.5666 2.80149 16.6944 2.32649 15.84C2.17705 15.5722 2.27427 15.26 2.54205 15.1111C2.81038 14.9616 3.14871 15.0722 3.2976 15.34C3.56649 15.8238 4.40649 16.5255 5.43149 16.5538C5.73816 16.5627 5.97982 16.7694 5.97149 17.0755C5.96316 17.3766 5.71649 17.5666 5.41649 17.5666ZM15.1043 17.6711C15.022 17.6711 14.9408 17.6529 14.8664 17.6177C14.792 17.5825 14.7264 17.5313 14.6742 17.4677C14.6221 17.404 14.5847 17.3296 14.5649 17.2498C14.545 17.17 14.5431 17.0867 14.5593 17.0061C14.9282 15.1605 16.7226 14.7005 17.6026 14.8677C17.7473 14.895 17.8753 14.9786 17.9585 15.1001C18.0416 15.2217 18.0731 15.3713 18.0459 15.5161C18.0329 15.5879 18.0057 15.6565 17.9659 15.7178C17.9262 15.7791 17.8746 15.8319 17.8143 15.8731C17.754 15.9143 17.6861 15.9432 17.6146 15.958C17.5431 15.9728 17.4693 15.9733 17.3976 15.9594C17.1615 15.915 15.9032 15.9555 15.6493 17.2238C15.6239 17.3498 15.5558 17.4631 15.4565 17.5446C15.3572 17.6261 15.2327 17.6708 15.1043 17.6711ZM13.6798 15.1711C13.5823 15.1711 13.4865 15.1455 13.402 15.0967C13.3175 15.048 13.2474 14.9778 13.1986 14.8933C13.1499 14.8088 13.1243 14.713 13.1244 14.6154C13.1245 14.5179 13.1504 14.4221 13.1993 14.3377C14.2282 12.5566 15.4126 12.5022 16.1959 12.4661L16.2576 12.4633C16.4048 12.4562 16.5488 12.5079 16.6579 12.607C16.7669 12.7061 16.8322 12.8444 16.8393 12.9916C16.8463 13.1388 16.7946 13.2828 16.6956 13.3919C16.5965 13.501 16.4581 13.5662 16.3109 13.5733L16.247 13.5761C15.5782 13.6072 14.8865 13.6383 14.1615 14.8933C14.1128 14.9779 14.0426 15.0481 13.958 15.0969C13.8734 15.1457 13.7775 15.1713 13.6798 15.1711ZM13.1243 11.8027C13.0245 11.8028 12.9267 11.7759 12.8409 11.725C12.7552 11.6741 12.6847 11.601 12.6369 11.5135C12.5892 11.426 12.5659 11.3272 12.5695 11.2275C12.5732 11.1278 12.6036 11.031 12.6576 10.9472C13.4437 9.72329 15.2443 9.55773 16.1398 9.98162C16.2722 10.0451 16.3741 10.1584 16.4232 10.2968C16.4723 10.4352 16.4647 10.5874 16.4019 10.7201C16.3391 10.8528 16.2264 10.9553 16.0882 11.0052C15.9501 11.055 15.7979 11.0481 15.6648 10.9861C15.2043 10.7677 14.0393 10.8533 13.5915 11.5483C13.5412 11.6265 13.4721 11.6908 13.3904 11.7353C13.3088 11.7797 13.2172 11.8029 13.1243 11.8027ZM16.2493 8.5044C16.1193 8.50448 15.9934 8.45886 15.8937 8.37551C15.7859 8.28551 14.8093 7.5094 13.7932 7.9394C13.6589 7.98982 13.5104 7.98643 13.3785 7.92994C13.2467 7.87344 13.1418 7.76821 13.0858 7.63622C13.0297 7.50422 13.0268 7.35567 13.0777 7.22158C13.1285 7.08749 13.2292 6.97823 13.3587 6.91662C14.5915 6.39329 15.8782 6.91607 16.6054 7.52218C16.6931 7.59531 16.7561 7.69368 16.7859 7.8039C16.8157 7.91413 16.8108 8.03086 16.7719 8.1382C16.7329 8.24555 16.6619 8.33829 16.5684 8.40382C16.4749 8.46934 16.3634 8.50446 16.2493 8.5044ZM17.257 6.31662C17.1579 6.31673 17.0606 6.2903 16.9751 6.24009C16.8896 6.18988 16.8191 6.11771 16.7709 6.03107C16.502 5.54662 15.662 4.85162 14.637 4.82329C14.3298 4.81496 14.0887 4.54218 14.0965 4.23496C14.1059 3.93385 14.3526 3.67773 14.652 3.67773H14.6676C16.0593 3.67773 17.2676 4.61885 17.742 5.47329C17.8139 5.60351 17.8315 5.7568 17.791 5.8999C17.7506 6.04301 17.6553 6.1644 17.5259 6.23773C17.4445 6.28657 17.3519 6.31373 17.257 6.31662Z" fill="#DD2E44"/>
</g>
</g>
<defs>
<clipPath id="clip0_106_3390">
<rect width="20" height="20" fill="white" transform="translate(0 0.5)"/>
</clipPath>
<clipPath id="clip1_106_3390">
<rect width="20" height="20" fill="white" transform="translate(0 0.899902)"/>
</clipPath>
</defs>
</svg>
