<svg width="20" height="21" viewBox="0 0 20 21" fill="none" xmlns="http://www.w3.org/2000/svg">
<g clip-path="url(#clip0_106_3391)">
<path d="M17.0709 3.42877C13.1659 -0.475606 6.83398 -0.475606 2.92898 3.42877C-0.976328 7.33377 -0.976328 13.6656 2.92898 17.5713C6.83398 21.4763 13.1659 21.4763 17.0709 17.5713C20.9762 13.6656 20.9762 7.33377 17.0709 3.42877ZM16.629 3.87065C18.0127 5.2544 18.8724 6.96283 19.2105 8.75033C16.2265 8.52252 13.1655 9.54377 10.8837 11.8253C10.4827 12.2263 10.1221 12.6522 9.79898 13.096C9.0218 12.5144 8.27617 11.8691 7.56898 11.1622C7.39148 10.9847 7.22336 10.801 7.05398 10.6185C7.6118 9.88533 8.22523 9.18033 8.89523 8.51096C11.1068 6.29908 13.698 4.70346 16.4571 3.7069C16.5146 3.76158 16.5727 3.8144 16.629 3.87065ZM15.929 3.23721C13.2043 4.27127 10.6474 5.87502 8.45336 8.0694C7.7918 8.73096 7.18305 9.42565 6.6268 10.1475C5.9318 9.35283 5.30586 8.51908 4.75398 7.6519C6.10805 5.87565 6.8268 3.77189 6.91148 1.64658C9.9193 0.599707 13.3537 1.12971 15.929 3.23721ZM3.37086 3.87065C4.2318 3.0094 5.2193 2.35377 6.27242 1.89814C6.14898 3.72565 5.52648 5.52471 4.4043 7.07502C3.8643 6.1619 3.4018 5.21721 3.0143 4.24783C3.1293 4.12033 3.24773 3.99408 3.37086 3.87065ZM2.56023 4.79846C2.96367 5.76221 3.44086 6.70033 3.99211 7.60721C3.7968 7.84158 3.59055 8.07033 3.37086 8.29033C2.55023 9.11065 1.62117 9.75471 0.631484 10.23C0.686172 8.30783 1.3293 6.40065 2.56023 4.79846ZM0.634609 10.9185C1.78711 10.4044 2.86742 9.67752 3.81273 8.73221C3.99648 8.54846 4.16961 8.35752 4.33711 8.16408C4.90242 9.0319 5.53961 9.86627 6.24461 10.6616C4.84992 12.5916 3.82211 14.7035 3.1543 16.9013C1.5718 15.211 0.731172 13.0791 0.634609 10.9185ZM3.65992 17.4041C4.29148 15.1947 5.29461 13.0694 6.6768 11.131C6.82648 11.2891 6.97211 11.45 7.12711 11.6047C7.8618 12.3397 8.63711 13.0072 9.44555 13.6116C8.27992 15.4297 7.72742 17.5263 7.78023 19.6094C6.28555 19.2466 4.86336 18.5106 3.65992 17.4041ZM16.629 17.1288C14.3927 19.3656 11.3077 20.2331 8.41055 19.7375C8.33148 17.741 8.84242 15.7263 9.95211 13.98C12.0224 15.4344 14.2946 16.4735 16.6537 17.1031C16.6452 17.1116 16.6374 17.121 16.629 17.1288ZM10.3059 13.4628C10.6102 13.0453 10.9487 12.6444 11.3255 12.2672C13.5099 10.0835 16.4527 9.1269 19.3062 9.38627C19.6065 11.91 18.8824 14.531 17.1334 16.5788C14.728 15.9781 12.4099 14.9413 10.3059 13.4628Z" fill="#394240"/>
<path d="M7.05371 10.6188C7.22309 10.8013 7.39121 10.985 7.56871 11.1625C8.2759 11.8694 9.02121 12.5144 9.79871 13.0963C10.1218 12.6525 10.4825 12.2266 10.8834 11.8256C13.1653 9.54408 16.2262 8.52314 19.2103 8.75064C18.8721 6.96283 18.0125 5.25439 16.6287 3.87096C16.5725 3.81471 16.5143 3.76158 16.4568 3.70752C13.6978 4.70408 11.1065 6.29971 8.89496 8.51158C8.22496 9.18064 7.61152 9.88564 7.05371 10.6188Z" fill="#F76D57"/>
<path d="M6.62689 10.1475C7.18283 9.42534 7.7919 8.73096 8.45346 8.0694C10.6472 5.87502 13.2044 4.27096 15.9291 3.23721C13.3541 1.12971 9.91971 0.600023 6.91189 1.64659C6.82721 3.7719 6.10846 5.87565 4.75439 7.6519C5.30596 8.51909 5.93189 9.35284 6.62689 10.1475Z" fill="#F76D57"/>
<path d="M6.27229 1.89795C5.21916 2.35389 4.23166 3.00951 3.37072 3.87045C3.24729 3.99389 3.12916 4.12014 3.01416 4.24764C3.40166 5.21701 3.86447 6.1617 4.40416 7.07482C5.52666 5.52451 6.14916 3.72514 6.27229 1.89795Z" fill="#F76D57"/>
<path d="M3.99197 7.60709C3.44072 6.70021 2.96354 5.76209 2.5601 4.79834C1.32916 6.40053 0.686035 8.30772 0.631348 10.2299C1.62104 9.75459 2.5501 9.11053 3.37072 8.29022C3.59041 8.07053 3.79666 7.84146 3.99197 7.60709Z" fill="#F76D57"/>
<path d="M4.33678 8.16357C4.16928 8.35701 3.99615 8.54795 3.8124 8.7317C2.86709 9.67701 1.78678 10.4042 0.634277 10.9179C0.73084 13.0786 1.57146 15.2104 3.15365 16.9008C3.82146 14.7029 4.84928 12.5911 6.24396 10.6611C5.53928 9.86607 4.90209 9.0317 4.33678 8.16357Z" fill="#F76D57"/>
<path d="M7.12734 11.6046C6.97234 11.4502 6.82641 11.289 6.67703 11.1309C5.29484 13.0693 4.29172 15.1946 3.66016 17.404C4.86391 18.5105 6.28578 19.2465 7.78078 19.6093C7.72797 17.5262 8.28047 15.4296 9.44609 13.6115C8.63734 13.0071 7.86172 12.3396 7.12734 11.6046Z" fill="#F76D57"/>
<path d="M8.41029 19.7375C11.3075 20.2331 14.3925 19.3659 16.6287 17.1287C16.6372 17.1209 16.645 17.1115 16.6534 17.1031C14.2944 16.4731 12.0222 15.4344 9.95185 13.98C8.84216 15.7262 8.33122 17.7409 8.41029 19.7375Z" fill="#F76D57"/>
<path d="M19.306 9.38671C16.4525 9.12733 13.5097 10.0836 11.3254 12.2676C10.9485 12.6448 10.61 13.0458 10.3057 13.4633C12.4094 14.9414 14.7275 15.9786 17.1332 16.5792C18.8822 14.5311 19.6063 11.9105 19.306 9.38671Z" fill="#F76D57"/>
<path opacity="0.2" d="M8.41029 19.7375C11.3075 20.2331 14.3925 19.3659 16.6287 17.1287C16.6372 17.1209 16.645 17.1115 16.6534 17.1031C14.2944 16.4731 12.0222 15.4344 9.95185 13.98C8.84216 15.7262 8.33122 17.7409 8.41029 19.7375Z" fill="#231F20"/>
<path opacity="0.2" d="M19.306 9.38622C16.4525 9.12684 13.5097 10.0831 11.3254 12.2672C10.9485 12.6443 10.61 13.0453 10.3057 13.4628C12.4094 14.9409 14.7275 15.9781 17.1332 16.5787C18.8822 14.5306 19.6063 11.91 19.306 9.38622Z" fill="#231F20"/>
<g opacity="0.2">
<path d="M3.37072 3.87045C3.24729 3.99389 3.12916 4.12014 3.01416 4.24764C3.40166 5.21701 3.86447 6.1617 4.40416 7.07482C5.52635 5.52451 6.14885 3.72514 6.27229 1.89795C5.21916 2.35389 4.23166 3.0092 3.37072 3.87045Z" fill="white"/>
<path d="M0.631348 10.2299C1.62104 9.75459 2.5501 9.11053 3.37072 8.29022C3.59041 8.07053 3.79666 7.84146 3.99197 7.60709C3.44072 6.70021 2.96354 5.76209 2.5601 4.79834C1.32916 6.40053 0.686035 8.30772 0.631348 10.2299Z" fill="white"/>
</g>
</g>
<defs>
<clipPath id="clip0_106_3391">
<rect width="20" height="20" fill="white" transform="translate(0 0.5)"/>
</clipPath>
</defs>
</svg>
