<svg width="20" height="20" viewBox="0 0 20 20" fill="none" xmlns="http://www.w3.org/2000/svg">
<g clip-path="url(#clip0_4755_83078)">
<path d="M2.68994 17.8445C2.68994 18.2666 3.47464 18.6714 4.8714 18.9699C6.26817 19.2684 8.16259 19.4361 10.1379 19.4361C12.1132 19.4361 14.0077 19.2684 15.4044 18.9699C16.8012 18.6714 17.5859 18.2666 17.5859 17.8445C17.5859 17.4224 16.8012 17.0176 15.4044 16.7191C14.0077 16.4206 12.1132 16.2529 10.1379 16.2529C8.16259 16.2529 6.26817 16.4206 4.8714 16.7191C3.47464 17.0176 2.68994 17.4224 2.68994 17.8445Z" fill="#B8CBCD"/>
<path d="M6.6351 2.33154C5.91229 2.33154 5.47135 2.95732 5.47135 3.92654C5.47135 4.96404 5.71119 5.32107 5.71119 6.93576C5.71119 9.12935 4.38916 9.71982 4.38916 11.9487C4.38916 13.6511 4.74885 14.7829 5.43338 16.7222C5.48166 16.9723 5.73885 17.1433 6.6351 17.1433L6.64854 17.1431L6.66213 17.1433C7.55854 17.1433 7.81572 16.9722 7.86385 16.7222C8.54838 14.7829 8.90807 13.6511 8.90807 11.9487C8.90807 9.71998 7.44744 9.0881 7.44744 6.89451C7.44744 5.27998 7.74244 5.00451 7.74244 3.96701C7.74244 2.99779 7.3851 2.33154 6.66213 2.33154H6.6351Z" fill="#F7BB83"/>
<path d="M6.66213 17.4558C6.65885 17.4558 6.6465 17.4553 6.64338 17.4556C5.96166 17.4556 5.26166 17.3773 5.13182 16.807C4.45775 14.897 4.07666 13.7248 4.07666 11.9487C4.07666 10.76 4.42994 10.0114 4.7715 9.28732C5.09385 8.60373 5.39869 7.95826 5.39869 6.93576C5.39869 6.06217 5.32619 5.56311 5.26229 5.12295C5.209 4.7567 5.15885 4.41076 5.15885 3.92654C5.15885 2.76779 5.73838 2.01904 6.6351 2.01904H6.66213C7.53432 2.01904 8.05494 2.74732 8.05494 3.96701C8.05494 4.45779 7.9926 4.79014 7.92635 5.14201C7.84838 5.55701 7.7601 6.02748 7.7601 6.89451C7.7601 7.91139 8.09588 8.56498 8.4515 9.25717C8.82963 9.99326 9.22072 10.7544 9.22072 11.9487C9.22072 13.7248 8.83947 14.897 8.16557 16.807C8.03541 17.3779 7.33385 17.4558 6.66213 17.4558ZM6.65322 16.8306H6.65369L6.66213 17.1433V16.8308C7.34291 16.8308 7.54494 16.7253 7.55713 16.6629C7.5601 16.6476 7.56416 16.6326 7.56932 16.6181C8.22479 14.7611 8.59557 13.6286 8.59557 11.9486C8.59557 10.9053 8.25541 10.2434 7.89541 9.54264C7.5215 8.81482 7.13494 8.06232 7.13494 6.89436C7.13494 5.96904 7.22916 5.46826 7.31213 5.02639C7.37525 4.68998 7.42994 4.39936 7.42994 3.96686C7.42994 3.56904 7.3551 2.64389 6.66213 2.64389H6.6351C5.8451 2.64389 5.78385 3.62561 5.78385 3.92639C5.78385 4.36545 5.82869 4.67482 5.88072 5.03295C5.94775 5.4942 6.02369 6.01686 6.02369 6.93561C6.02369 8.09811 5.67447 8.83811 5.33666 9.55389C5.0101 10.2461 4.70166 10.8997 4.70166 11.9486C4.70166 13.6286 5.07244 14.7611 5.72791 16.6181C5.73307 16.6326 5.73729 16.6476 5.7401 16.6629C5.75213 16.7253 5.95416 16.8308 6.6351 16.8308L6.65322 16.8306Z" fill="#6E4123"/>
<path d="M5.86719 5.99854H7.42969V7.56104H5.86719V5.99854Z" fill="white"/>
<path d="M7.42969 7.87354H5.86719C5.78431 7.87354 5.70482 7.84061 5.64622 7.78201C5.58761 7.7234 5.55469 7.64392 5.55469 7.56104V5.99854C5.55469 5.91566 5.58761 5.83617 5.64622 5.77756C5.70482 5.71896 5.78431 5.68604 5.86719 5.68604H7.42969C7.51257 5.68604 7.59205 5.71896 7.65066 5.77756C7.70926 5.83617 7.74219 5.91566 7.74219 5.99854V7.56104C7.74219 7.64392 7.70926 7.7234 7.65066 7.78201C7.59205 7.84061 7.51257 7.87354 7.42969 7.87354ZM6.17969 7.24854H7.11719V6.31104H6.17969V7.24854Z" fill="#6E4123"/>
<path d="M7.4824 17.1754C7.43242 17.1755 7.38316 17.1635 7.33876 17.1405C7.29437 17.1175 7.25613 17.0842 7.22726 17.0434C7.19839 17.0026 7.17974 16.9555 7.17285 16.906C7.16597 16.8565 7.17107 16.806 7.18771 16.7589C7.84318 14.9019 8.21396 13.7694 8.21396 12.0894C8.21396 11.0461 7.87397 10.3842 7.51412 9.68326C7.14022 8.95561 6.75381 8.20311 6.75381 7.03514C6.75381 6.10279 6.87506 5.58592 6.98225 5.12998C7.06256 4.78795 7.13193 4.49264 7.13193 4.06717C7.13193 3.32404 6.70428 2.78467 6.11475 2.78467C6.03187 2.78467 5.95238 2.75174 5.89378 2.69314C5.83517 2.63453 5.80225 2.55505 5.80225 2.47217C5.80225 2.38929 5.83517 2.3098 5.89378 2.2512C5.95238 2.19259 6.03187 2.15967 6.11475 2.15967C7.05084 2.15967 7.75693 2.97982 7.75693 4.06717C7.75693 4.56498 7.67615 4.90873 7.59084 5.27279C7.48662 5.71639 7.37897 6.17514 7.37897 7.03514C7.37897 8.05201 7.71459 8.70561 8.07022 9.39779C8.44834 10.1337 8.83928 10.8948 8.83928 12.0894C8.83928 13.8714 8.45553 15.0453 7.77725 16.9669C7.75568 17.0278 7.71575 17.0806 7.66295 17.118C7.61015 17.1553 7.54708 17.1754 7.4824 17.1754Z" fill="#6E4123"/>
<path d="M13.4479 2.33154C12.7251 2.33154 12.2842 2.95732 12.2842 3.92654C12.2842 4.96404 12.5861 5.32107 12.5861 6.93576C12.5861 9.12935 11.2021 9.71982 11.2021 11.9487C11.2021 13.6511 11.5618 14.7829 12.2464 16.7222C12.2946 16.9723 12.5518 17.1433 13.4481 17.1433L13.4615 17.1431L13.4751 17.1433C14.3715 17.1433 14.6287 16.9722 14.6768 16.7222C15.3614 14.7829 15.7211 13.6511 15.7211 11.9487C15.7211 9.71998 14.305 9.12951 14.305 6.93576C14.305 5.32123 14.639 4.96404 14.639 3.92654C14.639 2.95732 14.1982 2.33154 13.4753 2.33154H13.4479Z" fill="#F7BB83"/>
<path d="M13.4751 17.4561C13.4718 17.4561 13.4596 17.4556 13.4564 17.4559C12.7746 17.4559 12.0746 17.3777 11.9448 16.8073C11.2709 14.8973 10.8896 13.7252 10.8896 11.9491C10.8896 10.7573 11.26 10.0077 11.6181 9.28266C11.9551 8.60016 12.2736 7.95563 12.2736 6.93609C12.2736 6.06813 12.1829 5.57219 12.1029 5.13453C12.0354 4.76547 11.9717 4.41688 11.9717 3.92703C11.9717 2.76828 12.5512 2.01953 13.4479 2.01953H13.475C14.3717 2.01953 14.9512 2.76828 14.9512 3.92703C14.9512 4.41984 14.8804 4.76984 14.8054 5.14047C14.7173 5.57672 14.6171 6.07141 14.6171 6.93625C14.6171 7.95422 14.9428 8.59828 15.2875 9.28016C15.6542 10.0056 16.0332 10.7558 16.0332 11.9492C16.0332 13.7253 15.6521 14.8975 14.9781 16.8075C14.8484 17.3783 14.1468 17.4561 13.4751 17.4561ZM13.4664 16.8309H13.4668L13.4753 17.1436V16.8311C14.1561 16.8311 14.3581 16.7256 14.3703 16.6633C14.3731 16.648 14.3772 16.633 14.3825 16.6184C15.0379 14.7614 15.4087 13.6289 15.4087 11.9489C15.4087 10.9045 15.079 10.2523 14.73 9.56188C14.3675 8.84469 13.9925 8.10297 13.9925 6.93594C13.9925 6.00844 14.0992 5.48125 14.1931 5.01625C14.2646 4.6625 14.3265 4.35703 14.3265 3.92672C14.3265 3.62594 14.2651 2.64422 13.4753 2.64422H13.4482C12.6582 2.64422 12.597 3.62594 12.597 3.92672C12.597 4.36 12.6529 4.66672 12.7179 5.02203C12.8026 5.48578 12.8987 6.01141 12.8987 6.93594C12.8987 8.10125 12.5326 8.8425 12.1786 9.55922C11.8371 10.2503 11.5148 10.903 11.5148 11.9488C11.5148 13.6288 11.8856 14.7613 12.5411 16.6183C12.5462 16.6328 12.5504 16.6478 12.5532 16.6631C12.5653 16.7255 12.7673 16.8309 13.4482 16.8309H13.4664Z" fill="#6E4123"/>
<path d="M12.7422 5.99854H14.3047V7.56104H12.7422V5.99854Z" fill="white"/>
<path d="M14.3047 7.87354H12.7422C12.6593 7.87354 12.5798 7.84061 12.5212 7.78201C12.4626 7.7234 12.4297 7.64392 12.4297 7.56104V5.99854C12.4297 5.91566 12.4626 5.83617 12.5212 5.77756C12.5798 5.71896 12.6593 5.68604 12.7422 5.68604H14.3047C14.3876 5.68604 14.4671 5.71896 14.5257 5.77756C14.5843 5.83617 14.6172 5.91566 14.6172 5.99854V7.56104C14.6172 7.64392 14.5843 7.7234 14.5257 7.78201C14.4671 7.84061 14.3876 7.87354 14.3047 7.87354ZM13.0547 7.24854H13.9922V6.31104H13.0547V7.24854Z" fill="#6E4123"/>
<path d="M14.2954 17.1754C14.2454 17.1755 14.1961 17.1635 14.1518 17.1405C14.1074 17.1175 14.0691 17.0842 14.0403 17.0434C14.0114 17.0026 13.9927 16.9555 13.9858 16.906C13.979 16.8565 13.9841 16.806 14.0007 16.7589C14.6562 14.9019 15.027 13.7694 15.027 12.0894C15.027 11.0461 14.687 10.3842 14.3271 9.68326C13.9532 8.95561 13.5668 8.20311 13.5668 7.03514C13.5668 6.10279 13.688 5.58592 13.7952 5.12998C13.8755 4.78795 13.9449 4.49264 13.9449 4.06717C13.9449 3.32404 13.5173 2.78467 12.9277 2.78467C12.8449 2.78467 12.7654 2.75174 12.7068 2.69314C12.6482 2.63453 12.6152 2.55505 12.6152 2.47217C12.6152 2.38929 12.6482 2.3098 12.7068 2.2512C12.7654 2.19259 12.8449 2.15967 12.9277 2.15967C13.8638 2.15967 14.5699 2.97982 14.5699 4.06717C14.5699 4.56498 14.4891 4.90873 14.4037 5.27279C14.2995 5.71639 14.1918 6.17514 14.1918 7.03514C14.1918 8.05201 14.5274 8.70561 14.883 9.39779C15.2612 10.1337 15.6521 10.8948 15.6521 12.0894C15.6521 13.8714 15.2684 15.0453 14.5901 16.9669C14.5686 17.0278 14.5287 17.0807 14.4759 17.118C14.4231 17.1554 14.3601 17.1754 14.2954 17.1754Z" fill="#6E4123"/>
<path d="M9.9883 1.15479C9.18393 1.15479 8.69314 1.85119 8.69314 2.92994C8.69314 4.08447 8.99252 4.35791 8.99252 6.15479C8.99252 8.59619 7.48877 9.37744 7.48877 11.8579C7.48877 13.7524 7.88893 15.0123 8.65064 17.1704C8.70439 17.4487 8.99064 17.6392 9.9883 17.6392L10.0033 17.6388L10.0185 17.6392C11.0161 17.6392 11.3024 17.4487 11.3561 17.1704C12.1178 15.0121 12.518 13.7524 12.518 11.8579C12.518 9.37744 10.8677 8.59619 10.8677 6.15479C10.8677 4.35791 11.3136 4.08447 11.3136 2.92994C11.3136 1.85119 10.8228 1.15479 10.0185 1.15479H9.9883Z" fill="#F7BB83"/>
<path d="M10.0183 17.9517C10.0083 17.9518 9.9983 17.9518 9.9883 17.9517C9.25408 17.9517 8.48768 17.8681 8.34924 17.2551C7.60002 15.1318 7.17627 13.8295 7.17627 11.8579C7.17627 10.5438 7.57564 9.68307 7.96158 8.85057C8.33096 8.054 8.68002 7.30166 8.68002 6.15479C8.68002 5.18447 8.58986 4.66854 8.51033 4.21338C8.44361 3.8315 8.38064 3.47072 8.38064 2.92994C8.38064 1.66182 9.01174 0.842285 9.9883 0.842285H10.0183C10.9949 0.842285 11.626 1.66182 11.626 2.92994C11.626 3.48354 11.5306 3.85025 11.4296 4.23822C11.3069 4.70979 11.1799 5.19744 11.1799 6.15479C11.1799 7.29572 11.5617 8.04604 11.9661 8.84025C12.391 9.67479 12.8302 10.5378 12.8302 11.8579C12.8302 13.8293 12.4064 15.1318 11.6572 17.2551C11.5191 17.8682 10.7527 17.9517 10.0183 17.9517ZM10.0105 17.3265H10.013L10.0185 17.6392V17.3267C10.7478 17.3267 11.0291 17.2154 11.0492 17.1112C11.0522 17.0959 11.0563 17.081 11.0614 17.0663C11.7922 14.9959 12.2055 13.7332 12.2055 11.8578C12.2055 10.6876 11.8188 9.92791 11.4094 9.12369C10.9892 8.29853 10.555 7.44541 10.555 6.15463C10.555 5.11729 10.6983 4.5665 10.8249 4.08072C10.9194 3.71729 11.0011 3.40354 11.0011 2.92979C11.0011 2.58666 10.9303 1.46713 10.0185 1.46713H9.98846C9.07658 1.46713 9.0058 2.58666 9.0058 2.92979C9.0058 3.41635 9.06158 3.73572 9.12611 4.10557C9.21002 4.58572 9.30518 5.1301 9.30518 6.15463C9.30518 7.43947 8.91049 8.29041 8.52877 9.11338C8.15455 9.91979 7.80143 10.6815 7.80143 11.8578C7.80143 13.7332 8.21471 14.9959 8.94549 17.0663C8.95064 17.0809 8.95486 17.0959 8.95768 17.1112C8.97783 17.2153 9.25908 17.3267 9.98846 17.3267L10.0105 17.3265Z" fill="#6E4123"/>
<path d="M9.14844 5.37354H10.8672V7.09229H9.14844V5.37354Z" fill="white"/>
<path d="M10.8672 7.40479H9.14844C9.06556 7.40479 8.98607 7.37186 8.92747 7.31326C8.86886 7.25465 8.83594 7.17517 8.83594 7.09229V5.37354C8.83594 5.29066 8.86886 5.21117 8.92747 5.15256C8.98607 5.09396 9.06556 5.06104 9.14844 5.06104H10.8672C10.9501 5.06104 11.0296 5.09396 11.0882 5.15256C11.1468 5.21117 11.1797 5.29066 11.1797 5.37354V7.09229C11.1797 7.17517 11.1468 7.25465 11.0882 7.31326C11.0296 7.37186 10.9501 7.40479 10.8672 7.40479ZM9.46094 6.77979H10.5547V5.68604H9.46094V6.77979Z" fill="#6E4123"/>
<path d="M10.9313 17.6393C10.8814 17.6393 10.8321 17.6273 10.7877 17.6044C10.7433 17.5814 10.7051 17.5481 10.6762 17.5073C10.6473 17.4665 10.6287 17.4193 10.6218 17.3698C10.6149 17.3203 10.62 17.2699 10.6367 17.2228C11.3674 15.1523 11.7807 13.8896 11.7807 12.0142C11.7807 10.8446 11.4003 10.1042 10.9978 9.32041C10.5837 8.51432 10.1553 7.68057 10.1553 6.38916C10.1553 5.35557 10.2898 4.78244 10.4087 4.27697C10.4985 3.89416 10.5762 3.56369 10.5762 3.08619C10.5762 2.23869 10.0851 1.62354 9.40869 1.62354C9.32581 1.62354 9.24633 1.59061 9.18772 1.53201C9.12912 1.4734 9.09619 1.39392 9.09619 1.31104C9.09619 1.22816 9.12912 1.14867 9.18772 1.09006C9.24633 1.03146 9.32581 0.998535 9.40869 0.998535C10.4306 0.998535 11.2012 1.89604 11.2012 3.08619C11.2012 3.63619 11.1118 4.01682 11.017 4.41994C10.906 4.89244 10.7801 5.42807 10.7801 6.38916C10.7801 7.52947 11.1557 8.26072 11.5534 9.03479C11.9723 9.85025 12.4054 10.6934 12.4054 12.0142C12.4054 13.9917 11.979 15.2957 11.2256 17.4307C11.2042 17.4917 11.1644 17.5445 11.1117 17.5819C11.059 17.6193 10.996 17.6394 10.9313 17.6393Z" fill="#6E4123"/>
<path d="M6.17969 14.8995C6.17969 15.4015 6.27858 15.8987 6.47072 16.3626C6.66286 16.8264 6.94448 17.2479 7.2995 17.6029C7.65453 17.9579 8.076 18.2396 8.53986 18.4317C9.00372 18.6238 9.50089 18.7227 10.003 18.7227C10.505 18.7227 11.0022 18.6238 11.4661 18.4317C11.9299 18.2396 12.3514 17.9579 12.7064 17.6029C13.0615 17.2479 13.3431 16.8264 13.5352 16.3626C13.7274 15.8987 13.8263 15.4015 13.8263 14.8995C13.8263 13.8855 13.4234 12.913 12.7064 12.196C11.9894 11.479 11.017 11.0762 10.003 11.0762C8.98897 11.0762 8.01651 11.479 7.2995 12.196C6.5825 12.913 6.17969 13.8855 6.17969 14.8995Z" fill="#F6E89A"/>
<path d="M10.003 19.0352C7.7225 19.0352 5.86719 17.1799 5.86719 14.8995C5.86719 12.619 7.7225 10.7637 10.003 10.7637C12.2836 10.7637 14.1389 12.619 14.1389 14.8995C14.1389 17.1799 12.2834 19.0352 10.003 19.0352ZM10.003 11.3887C8.06703 11.3887 6.49219 12.9637 6.49219 14.8995C6.49219 16.8354 8.06703 18.4102 10.003 18.4102C11.9389 18.4102 13.5139 16.8352 13.5139 14.8995C13.5138 12.9637 11.9387 11.3887 10.003 11.3887Z" fill="#6E4123"/>
<path d="M6.32031 16.1838C6.23743 16.1838 6.15795 16.1509 6.09934 16.0923C6.04074 16.0337 6.00781 15.9542 6.00781 15.8713C6.00781 13.1326 8.23594 10.9043 10.9745 10.9043C11.0574 10.9043 11.1369 10.9372 11.1955 10.9958C11.2541 11.0544 11.287 11.1339 11.287 11.2168C11.287 11.2997 11.2541 11.3792 11.1955 11.4378C11.1369 11.4964 11.0574 11.5293 10.9745 11.5293C8.58047 11.5293 6.63281 13.4771 6.63281 15.8713C6.63281 15.9542 6.59989 16.0337 6.54128 16.0923C6.48268 16.1509 6.40319 16.1838 6.32031 16.1838Z" fill="white"/>
<path d="M9.02344 18.8865C8.94056 18.8865 8.86107 18.8535 8.80247 18.7949C8.74386 18.7363 8.71094 18.6568 8.71094 18.574C8.71094 18.4911 8.74386 18.4116 8.80247 18.353C8.86107 18.2944 8.94056 18.2615 9.02344 18.2615C11.4175 18.2615 13.3652 16.3137 13.3652 13.9194C13.3652 13.8366 13.3981 13.7571 13.4567 13.6985C13.5153 13.6399 13.5948 13.6069 13.6777 13.6069C13.7605 13.6069 13.84 13.6399 13.8986 13.6985C13.9572 13.7571 13.9902 13.8366 13.9902 13.9194C13.9902 16.6583 11.762 18.8865 9.02344 18.8865Z" fill="#6E4123"/>
<path d="M9.18848 14.05C9.18848 14.1877 9.24318 14.3198 9.34055 14.4171C9.43792 14.5145 9.56999 14.5692 9.7077 14.5692C9.8454 14.5692 9.97747 14.5145 10.0748 14.4171C10.1722 14.3198 10.2269 14.1877 10.2269 14.05C10.2269 13.9123 10.1722 13.7802 10.0748 13.6828C9.97747 13.5855 9.8454 13.5308 9.7077 13.5308C9.56999 13.5308 9.43792 13.5855 9.34055 13.6828C9.24318 13.7802 9.18848 13.9123 9.18848 14.05Z" fill="#6E4123"/>
<path d="M10.8525 13.5304C10.8525 13.6682 10.9072 13.8002 11.0046 13.8976C11.102 13.995 11.2341 14.0497 11.3718 14.0497C11.5095 14.0497 11.6415 13.995 11.7389 13.8976C11.8363 13.8002 11.891 13.6682 11.891 13.5304C11.891 13.3927 11.8363 13.2607 11.7389 13.1633C11.6415 13.0659 11.5095 13.0112 11.3718 13.0112C11.2341 13.0112 11.102 13.0659 11.0046 13.1633C10.9072 13.2607 10.8525 13.3927 10.8525 13.5304Z" fill="#6E4123"/>
<path d="M10.6641 15.195C10.6641 15.3327 10.7188 15.4648 10.8161 15.5621C10.9135 15.6595 11.0456 15.7142 11.1833 15.7142C11.321 15.7142 11.4531 15.6595 11.5504 15.5621C11.6478 15.4648 11.7025 15.3327 11.7025 15.195C11.7025 15.0573 11.6478 14.9252 11.5504 14.8279C11.4531 14.7305 11.321 14.6758 11.1833 14.6758C11.0456 14.6758 10.9135 14.7305 10.8161 14.8279C10.7188 14.9252 10.6641 15.0573 10.6641 15.195Z" fill="#6E4123"/>
<path d="M10.003 19.0352C7.7225 19.0352 5.86719 17.1799 5.86719 14.8995C5.86719 12.619 7.7225 10.7637 10.003 10.7637C12.2836 10.7637 14.1389 12.619 14.1389 14.8995C14.1389 17.1799 12.2834 19.0352 10.003 19.0352ZM10.003 11.3887C8.06703 11.3887 6.49219 12.9637 6.49219 14.8995C6.49219 16.8354 8.06703 18.4102 10.003 18.4102C11.9389 18.4102 13.5139 16.8352 13.5139 14.8995C13.5138 12.9637 11.9387 11.3887 10.003 11.3887Z" fill="#6E4123"/>
<path d="M9.9933 19.3479C8.64611 19.3479 7.36018 18.7034 6.50596 17.6117C5.99018 17.6074 5.13721 17.5512 4.97174 16.8507C4.29393 14.9295 3.91064 13.7479 3.91064 11.9488C3.91064 10.7243 4.27424 9.95932 4.62596 9.21963C4.94299 8.55275 5.24252 7.92275 5.24252 6.93604C5.24252 6.0751 5.16799 5.58275 5.10221 5.14838C5.04596 4.77572 4.99268 4.42369 4.99268 3.92682C4.99268 2.69244 5.64877 1.86307 6.62518 1.86307H6.65221C7.4058 1.86307 8.21127 2.41588 8.21127 3.96729C8.21127 4.474 8.14518 4.814 8.07533 5.174C7.99236 5.6015 7.90643 6.04369 7.90643 6.89478C7.90643 7.40525 7.95955 7.81275 8.05236 8.169C8.32002 7.58697 8.52393 6.96916 8.52393 6.15479C8.52393 5.19838 8.43518 4.6951 8.34908 4.20822C8.2783 3.80729 8.21143 3.42838 8.21143 2.87354C8.21143 1.54463 8.90502 0.686035 9.97861 0.686035H10.0086C11.08 0.686035 11.7725 1.56682 11.7725 2.92994C11.7725 3.50244 11.6771 3.87775 11.5758 4.2751C11.4581 4.7376 11.3364 5.21619 11.3364 6.15479C11.3364 7.03229 11.6261 7.6651 11.9667 8.29447C12.066 7.9265 12.1177 7.50494 12.1177 6.93604C12.1177 6.08369 12.0294 5.61682 11.9444 5.16525C11.8731 4.78822 11.806 4.43229 11.806 3.92682C11.806 2.69244 12.4621 1.86307 13.4385 1.86307H13.4655C14.4419 1.86307 15.098 2.69244 15.098 3.92682C15.098 4.44275 15.0152 4.79525 14.9275 5.16822C14.8253 5.60307 14.7196 6.05275 14.7196 6.89463C14.7196 7.87369 15.0471 8.51104 15.3936 9.18588C15.7622 9.90338 16.18 10.7167 16.18 11.9488C16.18 13.7479 15.7967 14.9295 15.1189 16.8507C14.9546 17.546 14.1128 17.6065 13.6016 17.6118C12.8441 18.6746 11.4611 19.3479 9.9933 19.3479ZM6.9758 16.659L7.12283 16.8698C7.78674 17.8201 8.88658 18.4104 9.9933 18.4104C10.9874 18.4104 12.2517 17.9692 12.8935 16.9868L12.9963 16.8643L13.0431 16.7388L13.0978 16.6467L13.3847 16.6653C13.4124 16.667 13.4383 16.6703 13.4627 16.6746C13.9655 16.6745 14.1561 16.6157 14.2171 16.5887L14.225 16.5663C14.8749 14.7254 15.2425 13.6034 15.2425 11.9488C15.2425 10.9434 14.9108 10.2978 14.5597 9.61432C14.1774 8.8701 13.7819 8.10057 13.7819 6.89463C13.7819 5.94416 13.9055 5.41791 14.0147 4.95369C14.0961 4.60744 14.1603 4.334 14.1603 3.92682C14.1603 3.6626 14.1103 2.80057 13.4653 2.80057H13.4383C12.7933 2.80057 12.7433 3.6626 12.7433 3.92682C12.7433 4.34447 12.7999 4.64432 12.8653 4.99135C12.9542 5.46229 13.055 5.99604 13.055 6.93604C13.055 8.17682 12.8306 8.8565 12.4435 9.61104L12.0164 10.4431L11.6053 9.60291C11.5106 9.409 11.4049 9.21791 11.293 9.01541C10.8738 8.25744 10.3988 7.39822 10.3988 6.15479C10.3988 5.09869 10.5414 4.53838 10.6672 4.044C10.761 3.67588 10.8349 3.38494 10.8349 2.92994C10.8349 2.62354 10.7752 1.62354 10.0085 1.62354H9.97846C9.25658 1.62354 9.14877 2.40666 9.14877 2.87354C9.14877 3.34619 9.20596 3.6701 9.27221 4.0451C9.3608 4.54713 9.46127 5.11619 9.46127 6.15463C9.46127 7.49479 8.98908 8.41791 8.57236 9.23228C8.52189 9.33103 8.47158 9.42947 8.42221 9.52807L8.00861 10.3565L7.58596 9.53275C7.14768 8.67869 6.96893 7.91432 6.96893 6.89478C6.96893 5.95354 7.06783 5.44432 7.15502 4.99525C7.22143 4.65369 7.27377 4.38385 7.27377 3.96729C7.27377 3.6165 7.21314 2.80057 6.65221 2.80057H6.62518C5.98018 2.80057 5.93018 3.6626 5.93018 3.92682C5.93018 4.35322 5.97611 4.65666 6.02924 5.00807C6.09986 5.4751 6.18002 6.00447 6.18002 6.93588C6.18002 8.13416 5.82033 8.89057 5.47268 9.62197C5.15143 10.2976 4.84814 10.9357 4.84814 11.9487C4.84814 13.6031 5.2158 14.7253 5.86564 16.5662L5.87361 16.5885C5.93455 16.6156 6.12486 16.6746 6.62549 16.6746L6.65439 16.6745C6.68002 16.6713 6.70205 16.6706 6.71908 16.6698L6.9758 16.659Z" fill="#6E4123"/>
</g>
<defs>
<clipPath id="clip0_4755_83078">
<rect width="20" height="20" fill="white" transform="translate(0 0.00878906)"/>
</clipPath>
</defs>
</svg>
