<svg width="20" height="20" viewBox="0 0 20 20" fill="none" xmlns="http://www.w3.org/2000/svg">
<g clip-path="url(#clip0_2615_16111)">
<path d="M10.8875 0.181152C16.2281 0.181152 17.6892 1.12393 17.6892 6.46504C17.6892 9.52393 17.0409 11.1806 17.0409 13.9584C17.0409 15.6017 14.5125 15.625 12.2303 15.625C9.88696 15.625 7.15141 15.7356 5.92974 14.5139C2.59641 11.1806 0.0714085 5.3756 4.81863 3.95837C5.07141 0.341152 5.54641 0.181152 10.8875 0.181152Z" fill="#BE1931"/>
<path d="M14.8535 14.4448C16.0918 14.4448 17.2224 14.9215 17.2224 16.0576V18.0126C17.2224 19.1487 16.0918 20.0004 14.8535 20.0004H8.3335V14.4448H14.8535Z" fill="#99AAB5"/>
<path d="M12.4119 14.4448C13.7752 14.4448 15.0002 14.9215 15.0002 16.0576V18.0126C15.0002 19.1487 13.7752 20.0004 12.4119 20.0004H8.33799C6.97411 20.0004 6.11133 19.1487 6.11133 18.0126V16.0576C6.11133 14.9215 6.97411 14.4448 8.33799 14.4448H12.4119Z" fill="#CCD6DD"/>
<path d="M2.38428 6.08232C2.7815 5.76287 3.41872 5.29121 3.70817 6.73676C4.26372 9.51454 5.81594 11.9501 5.37483 10.6256C4.81928 8.95898 4.81928 3.95898 4.81928 3.95898C3.46539 4.36287 2.70483 5.12398 2.38428 6.08232Z" fill="#A0041E"/>
<path d="M12.0413 15.5557C12.6552 15.5557 13.3335 15.8546 13.3335 16.3662V18.2179C13.3335 18.729 12.6552 18.889 12.0413 18.889H9.2635C8.65016 18.889 8.3335 18.729 8.3335 18.2179V16.3662C8.3335 15.8546 8.65016 15.5557 9.2635 15.5557H12.0413Z" fill="#E1E8ED"/>
</g>
<defs>
<clipPath id="clip0_2615_16111">
<rect width="20" height="20" fill="white"/>
</clipPath>
</defs>
</svg>
