<svg width="20" height="20" viewBox="0 0 20 20" fill="none" xmlns="http://www.w3.org/2000/svg">
<g clip-path="url(#clip0_4755_83075)">
<path d="M16.3437 19.3838C18.0006 19.3838 19.3438 18.0406 19.3438 16.3838C19.3438 14.7269 18.0006 13.3838 16.3437 13.3838C14.6869 13.3838 13.3438 14.7269 13.3438 16.3838C13.3438 18.0406 14.6869 19.3838 16.3437 19.3838Z" fill="#ED4C5C"/>
<path d="M14.0796 14.4368L14.389 14.1274L18.6093 18.3481L18.2999 18.6574L14.0796 14.4368Z" fill="#E8E8E8"/>
<path d="M16.4731 15.6375L16.7825 15.3281L17.3794 15.9247L17.07 16.2341L16.4731 15.6375Z" fill="#E8E8E8"/>
<path d="M17.3799 16.5433L17.6893 16.2339L18.2861 16.8301L17.9768 17.1395L17.3799 16.5433Z" fill="#E8E8E8"/>
<path d="M15.5664 14.7317L15.8758 14.4224L16.4723 15.0189L16.163 15.3283L15.5664 14.7317Z" fill="#E8E8E8"/>
<path d="M15.2871 16.8377L15.5965 16.5283L16.193 17.1252L15.8837 17.4346L15.2871 16.8377Z" fill="#E8E8E8"/>
<path d="M16.1938 17.7439L16.5032 17.4346L17.1001 18.0311L16.7907 18.3405L16.1938 17.7439Z" fill="#E8E8E8"/>
<path d="M17.4062 18.3525L17.0938 18.665L17.5625 19.1338C17.6875 19.0713 17.8437 19.0088 17.9687 18.915L17.4062 18.3525Z" fill="#E8E8E8"/>
<path d="M13.5938 15.165L14.0625 15.6338L14.375 15.3213L13.8125 14.7588C13.75 14.915 13.6562 15.04 13.5938 15.165Z" fill="#E8E8E8"/>
<path d="M14.3809 15.9324L14.6902 15.623L15.2868 16.2199L14.9774 16.529L14.3809 15.9324Z" fill="#E8E8E8"/>
<path d="M15.2813 14.4463L15.5938 14.1338L15.125 13.665C15 13.7275 14.8438 13.79 14.7188 13.8838L15.2813 14.4463Z" fill="#E8E8E8"/>
<path d="M19.0625 17.6025L18.5938 17.1338L18.2812 17.4463L18.8437 18.0088C18.9375 17.8838 19 17.7588 19.0625 17.6025Z" fill="#E8E8E8"/>
<path d="M11.9998 4.79004L0.718526 16.0713C0.406026 16.3525 0.906026 17.3213 1.78103 18.2275C2.65603 19.1025 3.62478 19.6025 3.93728 19.29L15.2185 8.00879L11.9998 4.79004Z" fill="#DBB471"/>
<path d="M14.9688 6.13379L19.375 1.69629C19.3125 1.44629 19.1875 1.19629 19 1.00879C18.8125 0.821289 18.5625 0.696289 18.3125 0.633789L13.875 5.04004C13.4375 5.47754 12.7188 5.47754 12.25 5.04004L14.9375 7.72754C14.5 7.29004 14.5 6.57129 14.9688 6.13379Z" fill="#E8E8E8"/>
<path opacity="0.5" d="M4.0625 16.1963C3.84375 16.415 3.625 16.915 3.625 17.2275C3.65625 17.6963 4.03125 19.1963 4.03125 19.1963L15.2188 8.00879L13.7188 6.50879C13.7188 6.50879 6.46875 13.7588 4.0625 16.1963Z" fill="white"/>
<path opacity="0.15" d="M3.8125 15.9463C3.59375 16.165 3.09375 16.3838 2.78125 16.3838C2.34375 16.3525 0.8125 15.9463 0.8125 15.9463L12 4.75879L13.5 6.25879C13.5 6.29004 6.25 13.54 3.8125 15.9463Z" fill="#3E4347"/>
<path d="M14.9688 7.72754C14.7188 7.47754 14.625 7.13379 14.6563 6.79004C14.375 6.66504 14.0625 6.50879 13.75 6.25879C13.5313 5.91504 13.3437 5.63379 13.2187 5.35254C12.875 5.38379 12.5312 5.29004 12.2812 5.04004C12.2812 5.04004 12.5312 5.79004 13.2187 6.79004C14.2187 7.47754 14.9688 7.72754 14.9688 7.72754Z" fill="#3E4347"/>
<path d="M18.8437 2.25879L19.375 1.69629C19.3125 1.44629 19.1875 1.19629 19 1.00879C18.8125 0.821289 18.5625 0.696289 18.3125 0.633789L17.7812 1.16504C18 1.22754 18.25 1.35254 18.4375 1.57129C18.6562 1.75879 18.7812 2.00879 18.8437 2.25879Z" fill="#3E4347"/>
<path d="M15.4375 5.63379L14.125 4.79004L13.875 5.04004C13.7813 5.13379 13.6563 5.22754 13.5 5.29004L14.875 6.19629L14.9375 6.13379L15.4375 5.63379Z" fill="#B2C1C0"/>
<path d="M18.75 2.35254L17.4375 1.50879L16.875 2.04004L18.1875 2.88379L18.75 2.35254Z" fill="#B2C1C0"/>
<path d="M17.6562 3.44629L16.3437 2.60254L15.7812 3.13379L17.0938 3.97754L17.6562 3.44629Z" fill="#B2C1C0"/>
<path d="M16.5313 4.54004L15.25 3.69629L14.6875 4.25879L16 5.10254L16.5313 4.54004Z" fill="#B2C1C0"/>
</g>
<defs>
<clipPath id="clip0_4755_83075">
<rect width="20" height="20" fill="white" transform="translate(0 0.00878906)"/>
</clipPath>
</defs>
</svg>
