<svg width="27" height="27" viewBox="0 0 27 27" fill="none" xmlns="http://www.w3.org/2000/svg">
<path d="M9.81963 11.6681C9.81963 14.1463 7.81029 16.1558 5.33193 16.1558C2.85326 16.1558 0.844238 14.1462 0.844238 11.6681C0.844238 9.19 2.85326 7.18066 5.33193 7.18066C7.81029 7.18066 9.81963 9.19 9.81963 11.6681Z" fill="#E8D4C0"/>
<path d="M9.81963 11.6681C9.81963 14.1463 7.81029 16.1558 5.33193 16.1558C2.85326 16.1558 0.844238 14.1462 0.844238 11.6681C0.844238 9.19 2.85326 7.18066 5.33193 7.18066C7.81029 7.18066 9.81963 9.19 9.81963 11.6681Z" fill="white"/>
<path d="M10.6368 11.1415C10.5133 9.87957 9.94755 8.74457 9.10058 7.8976C8.76799 7.56501 8.38735 7.27354 7.96901 7.03692C7.66726 6.86206 7.34838 6.71804 7.00887 6.6083C6.48427 6.43343 5.91848 6.3374 5.33213 6.3374C3.8611 6.3374 2.52376 6.93747 1.56368 7.8976C0.600064 8.86116 0 10.1985 0 11.6695C0 12.5473 0.216053 13.3806 0.596689 14.111C0.850447 14.6047 1.17619 15.0505 1.56368 15.438C1.95112 15.8255 2.39694 16.1546 2.89069 16.4084C3.62106 16.7856 4.45431 17.0016 5.33213 16.9982C6.80316 17.0016 8.1405 16.4015 9.10063 15.438C9.9476 14.5944 10.5134 13.4526 10.6368 12.1941C10.654 12.0227 10.6608 11.8478 10.6608 11.6695C10.6608 11.4912 10.6539 11.3163 10.6368 11.1415ZM8.97718 11.6695C8.97718 11.8478 8.96347 12.0227 8.93948 12.1942C8.82631 12.9897 8.45258 13.6995 7.90736 14.2447C7.24554 14.9065 6.34031 15.3112 5.33218 15.3146C4.32406 15.3112 3.41539 14.9065 2.75358 14.2447C2.09519 13.5829 1.68718 12.6777 1.68718 11.6695C1.68718 10.6614 2.09524 9.75274 2.75358 9.09093C3.41539 8.43254 4.32406 8.02453 5.33218 8.02453C5.67163 8.02453 6.0008 8.07252 6.31288 8.15827C6.65576 8.2543 6.97813 8.39831 7.27302 8.58689C7.50278 8.73091 7.7153 8.89892 7.90736 9.09093C8.45258 9.63615 8.82288 10.346 8.93948 11.1415C8.96347 11.3129 8.97718 11.4912 8.97718 11.6695Z" fill="#727171"/>
<path d="M25.5166 11.5102C25.5166 13.6349 23.7944 15.3575 21.669 15.3575C19.5449 15.3575 17.8228 13.6349 17.8228 11.5102C17.8228 9.38532 19.545 7.6626 21.669 7.6626C23.7943 7.6626 25.5166 9.38532 25.5166 11.5102Z" fill="#E8D4C0"/>
<path d="M26.157 11.5098C26.157 13.988 24.1482 15.9972 21.6692 15.9972C19.1915 15.9972 17.1816 13.988 17.1816 11.5098C17.1816 9.03136 19.1915 7.02197 21.6692 7.02197C24.1482 7.02197 26.157 9.03131 26.157 11.5098Z" fill="white"/>
<path d="M8.57415 11.6686C8.57415 13.4593 7.12269 14.9109 5.33183 14.9109C3.54119 14.9109 2.08936 13.4592 2.08936 11.6686C2.08936 9.87805 3.54113 8.42627 5.33183 8.42627C7.12269 8.42627 8.57415 9.8781 8.57415 11.6686Z" fill="#E8E4E2"/>
<path d="M24.9121 11.5096C24.9121 13.2999 23.4601 14.7516 21.6693 14.7516C19.8787 14.7516 18.4277 13.3 18.4277 11.5096C18.4277 9.71876 19.8787 8.26709 21.6693 8.26709C23.4601 8.26709 24.9121 9.71871 24.9121 11.5096Z" fill="#E8E4E2"/>
<path d="M25.4399 7.7394C24.4764 6.77584 23.1391 6.1792 21.668 6.1792C21.0439 6.1792 20.4405 6.28551 19.8815 6.4878C19.5489 6.6044 19.23 6.75527 18.9317 6.93699C18.5545 7.1599 18.2082 7.4308 17.8996 7.7394C16.9394 8.70296 16.3394 10.0403 16.3394 11.5113C16.3394 12.9789 16.9394 14.3163 17.8996 15.2798C18.8631 16.2433 20.2004 16.84 21.668 16.84C23.1391 16.84 24.4764 16.2433 25.4399 15.2798C26.4034 14.3162 27.0001 12.9789 27.0001 11.5113C27.0001 10.0403 26.4034 8.70296 25.4399 7.7394ZM21.668 15.1563C20.6599 15.1529 19.7546 14.7483 19.0929 14.0865C18.4311 13.4247 18.0264 12.5195 18.0264 11.5113C18.0264 10.4998 18.431 9.59449 19.0929 8.93272C19.2643 8.76129 19.4563 8.60356 19.6621 8.46639C19.9535 8.27439 20.2724 8.12352 20.6154 8.02063C20.948 7.92117 21.3012 7.86633 21.6681 7.86633C22.6797 7.86633 23.5849 8.27439 24.2467 8.93278C24.9085 9.59459 25.3132 10.4998 25.3132 11.5114C25.3132 12.5195 24.9085 13.4247 24.2467 14.0866C23.5848 14.7483 22.6796 15.1529 21.668 15.1563Z" fill="#727171"/>
<path d="M22.2511 11.4427L20.7938 8.3909L20.6155 8.02055L20.5298 7.83882L20.2486 7.2559V7.25247L19.8817 6.48782L17.3408 1.16255L16.9807 0.411609C16.8916 0.219604 16.703 0.109863 16.5041 0.109863C16.4287 0.109863 16.3498 0.127002 16.2778 0.161279C16.0172 0.288158 15.904 0.603615 16.0309 0.864228L16.1715 1.16255L17.1111 3.1308H9.21403L8.63453 1.91691L8.6311 1.91006L7.91444 0.411557C7.79099 0.147516 7.47554 0.0377754 7.2115 0.161227C6.95088 0.288105 6.83771 0.603562 6.96459 0.864176L7.53038 2.05059L7.84241 2.6987L8.31902 3.69997L7.53033 5.45217L7.0091 6.60774L6.66279 7.38267L6.31306 8.1576L6.14505 8.52796L4.87636 11.3501C4.86265 11.3776 4.85237 11.4118 4.84552 11.4427L4.81809 11.5456C4.78034 11.6999 4.81809 11.8679 4.91755 11.9948C5.01701 12.1217 5.17131 12.1937 5.33246 12.1937H12.7117C12.746 12.1937 12.7837 12.1903 12.818 12.1834H12.8214C12.8626 12.1731 12.8969 12.1594 12.9346 12.1423C12.9448 12.1388 12.9552 12.132 12.9689 12.1251C12.9963 12.1114 13.0203 12.0943 13.0409 12.0737C13.0512 12.0669 13.0615 12.06 13.0683 12.0531C13.0992 12.0223 13.1266 11.9914 13.1507 11.9571L13.1541 11.9537L17.8484 4.67049L18.932 6.93707L19.2988 7.70171V7.70514L19.5766 8.28464L19.6623 8.46636L19.8406 8.83672L21.3014 11.8954C21.4248 12.1595 21.7403 12.2692 22.0043 12.1423C22.2648 12.0188 22.378 11.7033 22.2511 11.4427ZM6.12454 11.1409L7.10866 8.95669L7.27325 8.58633L7.62298 7.81135L7.96929 7.03642L8.32588 6.24772L8.91223 4.94471L10.6473 8.56914L11.8749 11.1409H6.12454V11.1409ZM16.0308 5.5414L15.6777 6.09347L12.7802 10.5889L12.2624 9.50876L9.71812 4.18349H16.9087L16.0308 5.5414Z" fill="#E17B80"/>
<path d="M11.0037 0L10.9831 1.63218L8.63423 1.91679L7.53013 2.05052L5.17096 2.33513L5.15039 0H11.0037Z" fill="#727171"/>
<path d="M18.0847 0.109863V1.16255H16.1713C15.3964 1.16255 14.8169 1.16255 14.8169 1.16255V0.109863C14.8169 0.109863 14.9781 0.109863 15.2455 0.109863H18.0847Z" fill="#C3C4C4"/>
<path d="M21.0128 2.34902C21.0128 2.61991 20.9717 2.89081 20.8791 3.148C20.7865 3.40518 20.6425 3.6486 20.4402 3.85095L19.696 3.10344C19.7715 3.02797 19.8401 2.92171 19.8847 2.79141C19.9327 2.6611 19.9601 2.5068 19.9601 2.34907C19.9601 2.11588 19.9019 1.87588 19.8023 1.68383C19.6995 1.49182 19.5589 1.3478 19.3875 1.25863C19.2674 1.20036 19.1303 1.16603 18.9486 1.1626H18.0845V0.109863H18.9486C19.1509 0.109863 19.3464 0.137285 19.5281 0.192182C19.6447 0.223031 19.751 0.264164 19.8538 0.315633C20.1213 0.445939 20.3407 0.634517 20.5122 0.853998C20.6768 1.06314 20.8002 1.29976 20.8791 1.54324C20.9717 1.8038 21.0128 2.07812 21.0128 2.34902Z" fill="#727171"/>
</svg>
