<svg width="20" height="20" viewBox="0 0 20 20" fill="none" xmlns="http://www.w3.org/2000/svg">
<g clip-path="url(#clip0_4755_83076)">
<path d="M13.8452 13.818C12.5327 13.7805 11.0109 14.7024 11.0171 16.6664C11.0218 18.3086 12.3312 19.3461 13.8077 19.3352C15.2296 19.3242 16.5077 18.3102 16.5577 16.7133C16.6124 14.9367 15.3046 13.8602 13.8452 13.818Z" fill="#D8CDC9"/>
<path d="M12.6529 17.668C13.3123 17.9789 14.4732 17.9399 14.981 17.0445C15.5763 15.9977 15.0529 14.7899 14.2841 14.5336C13.5279 14.2805 12.4904 14.3899 12.0013 15.1945C11.6763 15.7289 11.5013 17.1242 12.6529 17.668Z" fill="#EAEAEA"/>
<path d="M12.1751 17.0885C11.7923 17.201 11.2563 15.7464 12.1235 14.8479C13.0579 13.8792 14.2579 14.2526 14.286 14.6432C14.3391 15.3573 13.3829 14.801 12.8376 15.462C12.2626 16.1557 12.7829 16.9104 12.1751 17.0885Z" fill="white"/>
<path d="M13.3471 7.93838C13.3361 7.90713 12.4533 7.55713 12.4111 7.55713C12.3689 7.55713 5.44238 15.3665 5.44238 15.3665L7.18613 17.0696L13.6252 8.2165L13.3471 7.93838Z" fill="#1F87FD"/>
<path d="M13.4156 8.13672C13.4156 8.13672 11.9422 10.1852 10.8422 11.6914C9.74219 13.1977 7.98906 15.4602 7.98906 15.4602L7.1875 17.0695L7.44844 17.2617C7.44844 17.2617 8.1875 16.3023 9.09531 15.0539C9.89219 13.9602 10.8266 12.6195 11.3797 11.8336C12.025 10.918 14.4187 7.38672 14.4187 7.38672L13.4156 8.13672Z" fill="#004FAD"/>
<path d="M12.4062 7.56052L16.9937 1.96677C16.9937 1.96677 16.8953 1.63552 16.9078 1.48865C16.9203 1.34177 17.3641 0.610522 17.7172 0.568335C18.2328 0.507397 19.2703 1.28083 19.3125 1.7949C19.3375 2.10115 18.8219 2.72771 18.6016 2.76365C18.4672 2.78552 18.1719 2.73865 18.1719 2.73865L13.6094 8.56677L12.4062 7.56052Z" fill="#5F6165"/>
<path d="M2.71719 14.8525L3.28125 13.79C3.28125 13.79 3.88125 14.1244 3.90469 14.776C3.91875 15.1572 3.71406 15.7119 3.89687 15.976C4.13281 16.3166 4.62031 16.2682 4.62031 16.2682L7.06406 16.6963L7.54531 17.1775C7.54531 17.1775 6.66094 18.5947 5.53281 19.1197C4.60625 19.551 3.32969 19.5072 2.4375 18.9041C1.74531 18.4369 1.58594 18.0838 1.58594 18.0838L2.71719 14.8525Z" fill="#EA8D37"/>
<path d="M5.62955 15.1543C5.62955 15.1543 4.89517 15.9418 4.72017 16.1262C4.54517 16.3106 3.9858 16.7121 3.5733 16.0652C3.26705 15.584 3.72173 15.1371 3.61705 14.4027C3.51236 13.6684 2.82017 13.5152 2.40923 13.5449C2.04205 13.5715 0.879547 13.7746 0.790484 15.7418C0.729547 17.1074 1.40298 17.9902 1.85767 18.384C2.29048 18.7574 3.61861 19.3199 5.0608 18.6512C6.32486 18.0652 7.22017 16.5918 7.22017 16.5918L5.62955 15.1543Z" fill="#FFA828"/>
<path d="M6.13916 14.5762L5.5376 15.248L7.54541 17.173L8.27197 16.1746L6.13916 14.5762Z" fill="#605F66"/>
<path d="M6.7748 13.8604L6.13574 14.5807L8.16074 16.3338L8.72637 15.5666L6.7748 13.8604Z" fill="#E2E0E4"/>
<path d="M12.4062 7.56055L12.9891 6.84961L14.1734 7.84648L13.6188 8.56992L12.4062 7.56055Z" fill="#E2E0E4"/>
<path d="M13.4639 6.79618C13.4654 6.90868 13.6139 7.08524 14.0233 6.94462C14.3936 6.81649 14.2858 6.53368 14.4608 6.33837C14.6358 6.14305 14.8217 6.1993 15.0233 5.90243C15.2248 5.60555 15.1795 5.38993 15.367 5.17118C15.6014 4.89618 15.692 5.07899 15.9029 4.80868C16.092 4.56649 15.9576 4.42743 16.1217 4.21337C16.3248 3.94774 16.3858 4.15243 16.6498 3.85868C16.9061 3.57587 16.7639 3.4618 16.9264 3.20555C17.0404 3.02587 17.2529 3.0118 17.3951 2.83837C17.6451 2.53524 17.7123 2.38368 17.5389 2.25399C17.3264 2.09618 17.2014 2.38837 17.0608 2.53055C16.8592 2.73212 16.7451 2.68368 16.5733 2.86337C16.3092 3.13837 16.4686 3.28524 16.2733 3.52899C16.0779 3.77118 15.9154 3.64305 15.7201 3.8868C15.5248 4.12899 15.5983 4.35868 15.4576 4.4993C15.3154 4.64149 15.2014 4.59305 15.0061 4.80243C14.7342 5.09305 14.8608 5.34149 14.6467 5.60555C14.4717 5.82118 14.2858 5.73212 14.0967 5.94774C13.9076 6.16337 13.9404 6.38368 13.8545 6.46024C13.6858 6.60712 13.4623 6.5493 13.4639 6.79618Z" fill="#848582"/>
</g>
<defs>
<clipPath id="clip0_4755_83076">
<rect width="20" height="20" fill="white" transform="translate(0 0.00878906)"/>
</clipPath>
</defs>
</svg>
