<svg width="20" height="21" viewBox="0 0 20 21" fill="none" xmlns="http://www.w3.org/2000/svg">
<path d="M18.3788 10.4362C18.4012 12.3406 17.7787 14.2351 16.5555 15.7711H16.5549L13.4641 15.1673L12.231 13.8017L13.6171 9.53836L16.0198 9.17871L18.3788 10.4362Z" fill="#F2FFF7"/>
<path d="M18.379 10.4363L16.02 9.17873L17.3319 6.4751C18.02 7.71577 18.364 9.0782 18.379 10.4363Z" fill="#222623"/>
<path d="M17.3316 6.47537L16.0198 9.179L13.6171 9.53865L9.94629 6.90495V5.08672L9.9644 5.07235L12.9009 2.68279L12.9078 2.66406C14.3308 3.1923 15.6283 4.11203 16.6248 5.40141C16.8914 5.74608 17.1268 6.1051 17.3316 6.47537Z" fill="#F2FFF7"/>
<path d="M16.555 15.7712H16.5556C16.1435 16.2894 15.6627 16.7665 15.1158 17.1892C14.4745 17.685 13.7839 18.0733 13.0659 18.3568L13.4643 15.1674L16.555 15.7712ZM13.6172 9.53848L12.2311 13.8019H7.75042L6.36426 9.53848L9.94641 6.90479L13.6172 9.53848Z" fill="#222623"/>
<path d="M12.231 13.8018L13.4642 15.1673L13.0658 18.3567C11.1464 19.1172 9.03034 19.1297 7.13093 18.4479L6.7207 15.1673L7.75033 13.8018H12.231Z" fill="#F2FFF7"/>
<path d="M12.9077 2.66404L12.9008 2.68278L9.96431 5.07234L9.9462 5.0867L6.99219 2.68278C8.91283 1.95286 11.0208 1.9641 12.9077 2.66404Z" fill="#222623"/>
<path d="M9.94618 5.08654V6.90478L6.36403 9.53848L4.16491 9.17882L2.83619 6.4396L2.67822 6.37029C3.21146 5.43682 3.93388 4.59077 4.83738 3.89207C5.50985 3.37195 6.23665 2.96984 6.99217 2.68262L9.94618 5.08654Z" fill="#F2FFF7"/>
<path d="M6.36423 9.53836L7.75038 13.8017L6.72076 15.1673L3.43144 15.8098C3.39648 15.7667 3.36213 15.723 3.32779 15.6787C2.14831 14.1533 1.57636 12.35 1.57324 10.5605H1.57387L4.16511 9.17871L6.36423 9.53836Z" fill="#F2FFF7"/>
<path d="M6.72077 15.1672L7.131 18.4478C5.72298 17.9427 4.43361 17.056 3.43145 15.8097L6.72077 15.1672ZM1.57325 10.5604C1.57076 9.1031 1.94602 7.65387 2.67843 6.37012L2.83641 6.43943L4.16512 9.17865L1.57325 10.5604Z" fill="#222623"/>
<path d="M9.98242 19.3812C8.9601 19.3818 7.9454 19.2053 6.98333 18.8595C5.4565 18.3118 4.11049 17.352 3.09085 16.084C3.05495 16.0397 3.01861 15.9935 2.98227 15.9466C1.77793 14.389 1.13961 12.527 1.13624 10.5615C1.13362 9.0158 1.53561 7.49165 2.29887 6.15394C2.87656 5.14249 3.64069 4.26534 4.57023 3.54647C5.26275 3.01086 6.02544 2.58278 6.8371 2.27426C7.83944 1.89332 8.89373 1.7002 9.97069 1.7002C11.0293 1.7002 12.0688 1.88664 13.06 2.25435C14.6059 2.82817 15.9582 3.82401 16.9708 5.13418C17.2471 5.49126 17.4956 5.86893 17.7142 6.2639C18.4189 7.53429 18.7999 8.97565 18.8161 10.4318C18.84 12.467 18.1588 14.4601 16.8976 16.0437C16.4545 16.5999 15.946 17.1008 15.3831 17.5353C14.7257 18.0443 13.9996 18.4579 13.2264 18.7636C12.1921 19.1733 11.1005 19.3812 9.98242 19.3812ZM9.97062 2.57429C9.00019 2.57429 8.05042 2.74824 7.14767 3.09135C6.41663 3.36927 5.72936 3.75502 5.10502 4.23799C4.26696 4.88605 3.57819 5.67653 3.05794 6.58727C2.37024 7.79267 2.00796 9.16646 2.01033 10.5601C2.01339 12.3307 2.58852 14.0084 3.6736 15.4116C3.70575 15.4531 3.7381 15.4943 3.771 15.5349C4.69074 16.6787 5.90331 17.5434 7.27861 18.0367C8.14596 18.3485 9.06076 18.5076 9.98242 18.507C10.9898 18.507 11.9731 18.3198 12.9049 17.9506C13.6017 17.675 14.256 17.3023 14.8484 16.8436C15.3558 16.452 15.8142 16.0007 16.2136 15.4993C17.3497 14.0726 17.9634 12.2765 17.9419 10.4417C17.9274 9.12987 17.5842 7.83176 16.9496 6.68743C16.7524 6.33137 16.5283 5.99087 16.2793 5.66891C15.3666 4.48806 14.1483 3.59074 12.7559 3.07386C11.8646 2.74279 10.9214 2.57361 9.97062 2.57429Z" fill="#222623"/>
<path d="M12.2311 14.239H7.75048C7.65819 14.239 7.56827 14.2098 7.4936 14.1555C7.41894 14.1013 7.36336 14.0248 7.33483 13.937L5.94867 9.67372C5.92023 9.58634 5.92007 9.49221 5.94821 9.40473C5.97635 9.31725 6.03135 9.24087 6.10539 9.18644L9.68755 6.55275C9.76189 6.49808 9.85163 6.46835 9.9439 6.46782C10.0362 6.46728 10.1263 6.49596 10.2012 6.54975L13.8721 9.18345C13.9474 9.23753 14.0036 9.31418 14.0325 9.40232C14.0615 9.49046 14.0616 9.58551 14.0329 9.67372L12.6468 13.937C12.6183 14.0248 12.5627 14.1013 12.488 14.1556C12.4134 14.2098 12.3234 14.239 12.2311 14.239ZM8.06799 13.3648H11.9136L13.1028 9.70738L9.9496 7.44507L6.87758 9.70369L8.06799 13.3648ZM9.94623 5.52368C9.8458 5.52376 9.74842 5.48911 9.67062 5.42559L6.72367 3.02741C6.67115 2.9866 6.62867 2.93432 6.59946 2.87458C6.57025 2.81483 6.55509 2.74919 6.55514 2.68268C6.55514 2.44129 6.75045 2.24561 6.99191 2.24561C7.09237 2.24561 7.19046 2.28026 7.26845 2.3437L10.2225 4.74762C10.2925 4.80461 10.3431 4.88189 10.3675 4.96883C10.3918 5.05577 10.3886 5.14811 10.3583 5.23317C10.3281 5.31822 10.2722 5.39182 10.1984 5.44384C10.1246 5.49585 10.0365 5.52375 9.94623 5.52368ZM1.57434 10.9978C1.4768 10.9979 1.38203 10.9654 1.3051 10.9055C1.22817 10.8455 1.1735 10.7615 1.14981 10.6669C1.12612 10.5723 1.13475 10.4725 1.17434 10.3833C1.21394 10.2942 1.28221 10.2208 1.36829 10.175L3.58839 8.99113L2.44325 6.63042C2.39426 6.52633 2.38828 6.40712 2.42661 6.29865C2.46493 6.19018 2.54447 6.10119 2.64798 6.05097C2.75149 6.00076 2.87062 5.99337 2.97953 6.03042C3.08845 6.06746 3.17837 6.14595 3.2298 6.24885L4.55851 8.98807C4.60785 9.08977 4.61587 9.20661 4.5809 9.3141C4.54593 9.42158 4.47068 9.51133 4.37095 9.56452L1.77971 10.9463C1.71653 10.9801 1.64599 10.9978 1.57434 10.9978ZM7.13052 18.8852C7.02408 18.885 6.92135 18.846 6.8416 18.7755C6.76186 18.705 6.71058 18.6079 6.69738 18.5022L6.34522 15.6861L3.51528 16.2389C3.27857 16.2854 3.04885 16.1307 3.00252 15.8938C2.9803 15.78 3.00418 15.6621 3.06891 15.5659C3.13364 15.4697 3.23392 15.4032 3.34769 15.381L6.637 14.7385C6.69581 14.727 6.75634 14.7278 6.81485 14.7407C6.87336 14.7536 6.92859 14.7784 6.97712 14.8135C7.02564 14.8486 7.06642 14.8934 7.09693 14.945C7.12743 14.9965 7.147 15.0538 7.15444 15.1133L7.56466 18.3938C7.57236 18.4554 7.56688 18.5178 7.54858 18.5771C7.53027 18.6364 7.49957 18.691 7.4585 18.7375C7.41744 18.784 7.36696 18.8212 7.31041 18.8466C7.25386 18.8721 7.19254 18.8852 7.13052 18.8852ZM18.3786 10.8736C18.307 10.8735 18.2365 10.8559 18.1734 10.8221L15.8144 9.56458C15.7147 9.5114 15.6394 9.42164 15.6044 9.31415C15.5694 9.20665 15.5774 9.08978 15.6268 8.98807L16.9358 6.29025C17.0276 6.09307 17.2542 5.98992 17.4664 6.05835C17.6961 6.13247 17.8225 6.37785 17.7485 6.60757L17.7479 6.60944C17.7416 6.62881 17.734 6.64773 17.7251 6.66607L16.597 8.99113L18.5847 10.0507C18.6708 10.0966 18.739 10.1699 18.7786 10.2591C18.8182 10.3482 18.8269 10.448 18.8032 10.5427C18.7795 10.6373 18.7248 10.7212 18.6479 10.7812C18.5709 10.8412 18.4762 10.8737 18.3786 10.8736ZM13.066 18.7943C13.0039 18.7943 12.9426 18.7811 12.8861 18.7557C12.8296 18.7302 12.7791 18.6929 12.7381 18.6464C12.697 18.5999 12.6664 18.5452 12.6481 18.4859C12.6299 18.4267 12.6245 18.3642 12.6323 18.3027L13.0307 15.1133C13.0381 15.0538 13.0577 14.9965 13.0882 14.945C13.1187 14.8934 13.1595 14.8487 13.2081 14.8135C13.2566 14.7784 13.3118 14.7536 13.3703 14.7407C13.4288 14.7278 13.4894 14.727 13.5482 14.7385L16.6389 15.3423C16.6953 15.3533 16.7489 15.3753 16.7967 15.407C16.8446 15.4387 16.8857 15.4796 16.9177 15.5272C16.9498 15.5748 16.9721 15.6282 16.9835 15.6845C16.9949 15.7408 16.9951 15.7987 16.9841 15.855C16.9731 15.9114 16.9512 15.965 16.9194 16.0129C16.8877 16.0607 16.8469 16.1018 16.7993 16.1339C16.7516 16.166 16.6982 16.1883 16.6419 16.1997C16.5856 16.2111 16.5277 16.2112 16.4713 16.2002L13.84 15.6862L13.5004 18.4053C13.4885 18.5122 13.4376 18.611 13.3575 18.6828C13.2773 18.7545 13.1735 18.7942 13.066 18.7943Z" fill="#222623"/>
<path d="M9.94615 7.34181C9.83023 7.34181 9.71905 7.29576 9.63708 7.21379C9.55512 7.13182 9.50907 7.02065 9.50907 6.90473V5.08649C9.50907 4.97057 9.55512 4.8594 9.63708 4.77743C9.71905 4.69546 9.83023 4.64941 9.94615 4.64941C10.0621 4.64941 10.1732 4.69546 10.2552 4.77743C10.3372 4.8594 10.3832 4.97057 10.3832 5.08649V6.90473C10.3832 6.96213 10.3719 7.01896 10.35 7.07199C10.328 7.12502 10.2958 7.1732 10.2552 7.21379C10.2146 7.25437 10.1664 7.28657 10.1134 7.30853C10.0604 7.3305 10.0035 7.34181 9.94615 7.34181ZM13.6164 9.97557C13.5062 9.97533 13.4001 9.93347 13.3195 9.85838C13.2388 9.78328 13.1895 9.68049 13.1814 9.57058C13.1733 9.46067 13.207 9.35176 13.2758 9.26564C13.3445 9.17952 13.4433 9.12256 13.5523 9.10616L15.9549 8.74651C16.0687 8.73136 16.1838 8.76152 16.2754 8.83048C16.3671 8.89944 16.428 9.00167 16.445 9.11512C16.462 9.22857 16.4337 9.34415 16.3662 9.43693C16.2987 9.5297 16.1975 9.59224 16.0843 9.61104L13.6817 9.9707C13.6597 9.974 13.6379 9.97557 13.6164 9.97557ZM13.4641 15.6044C13.4029 15.6045 13.3424 15.5917 13.2865 15.5669C13.2306 15.542 13.1806 15.5057 13.1396 15.4603L11.9064 14.0947C11.868 14.0521 11.8383 14.0023 11.819 13.9483C11.7998 13.8942 11.7914 13.8368 11.7943 13.7795C11.8002 13.6637 11.8519 13.5551 11.9379 13.4774C12.0239 13.3997 12.1373 13.3593 12.2531 13.3652C12.3689 13.3711 12.4776 13.4228 12.5552 13.5088L13.7884 14.8744C13.8451 14.9371 13.8824 15.015 13.8957 15.0985C13.909 15.182 13.8978 15.2675 13.8635 15.3448C13.8292 15.4221 13.7732 15.4877 13.7023 15.5338C13.6314 15.5799 13.5487 15.6044 13.4641 15.6044ZM6.72021 15.6044C6.63897 15.6044 6.55936 15.5817 6.49031 15.5389C6.42126 15.4961 6.3655 15.4349 6.3293 15.3622C6.29309 15.2895 6.27786 15.2081 6.28532 15.1272C6.29278 15.0463 6.32264 14.9691 6.37155 14.9042L7.40117 13.5387C7.43572 13.4928 7.47896 13.4542 7.52843 13.4251C7.57789 13.396 7.63261 13.3769 7.68946 13.3689C7.74631 13.3609 7.80417 13.3642 7.85975 13.3786C7.91532 13.393 7.9675 13.4182 8.01333 13.4528C8.10588 13.5226 8.16692 13.6263 8.18302 13.7411C8.19912 13.8559 8.16896 13.9724 8.09918 14.0649L7.06956 15.4305C7.02881 15.4846 6.97604 15.5285 6.91541 15.5587C6.85477 15.5889 6.78794 15.6045 6.72021 15.6044ZM6.36449 9.97557C6.34107 9.97557 6.31735 9.97369 6.29343 9.96976L4.09431 9.61011C3.9806 9.59065 3.8792 9.52702 3.8122 9.4331C3.74521 9.33918 3.71807 9.22259 3.73669 9.10873C3.75532 8.99488 3.8182 8.89301 3.91162 8.82533C4.00505 8.75765 4.12144 8.72966 4.23543 8.74744L6.43455 9.1071C6.54292 9.12474 6.64069 9.18254 6.70839 9.26898C6.7761 9.35542 6.80879 9.46419 6.79996 9.57363C6.79113 9.68308 6.74143 9.7852 6.66074 9.85967C6.58006 9.93414 6.47429 9.97552 6.36449 9.97557Z" fill="#222623"/>
<path d="M9.9647 5.50934C9.87441 5.50939 9.78632 5.48149 9.71254 5.42946C9.63875 5.37742 9.58289 5.30382 9.55263 5.21876C9.52236 5.13369 9.51919 5.04134 9.54353 4.9544C9.56788 4.86746 9.61855 4.79019 9.68859 4.73321L12.6251 2.34365C12.6696 2.30743 12.7209 2.28032 12.7759 2.26389C12.8309 2.24746 12.8886 2.24203 12.9457 2.2479C13.0028 2.25376 13.0581 2.27082 13.1086 2.29809C13.1592 2.32536 13.2038 2.36232 13.24 2.40684C13.2762 2.45136 13.3034 2.50259 13.3198 2.55759C13.3362 2.61258 13.3416 2.67028 13.3358 2.72738C13.3299 2.78448 13.3129 2.83986 13.2856 2.89037C13.2583 2.94088 13.2214 2.98552 13.1768 3.02174L10.2404 5.4113C10.1625 5.47477 10.0651 5.5094 9.9647 5.50934Z" fill="#222623"/>
</svg>
