<svg width="26" height="26" viewBox="0 0 26 26" fill="none" xmlns="http://www.w3.org/2000/svg">
<g clip-path="url(#clip0_2615_15992)">
<path d="M20.4015 5.36645C20.0114 5.35595 16.9676 4.92057 16.6753 5.30806C16.3559 5.79646 16.0633 6.30183 15.7988 6.82195L14.1689 11.4701L15.2242 12.0609L15.3369 11.4964L16.9651 7.31465L18.262 7.57111L20.2124 8.18486L20.8017 7.77165C20.8017 7.77165 20.7878 5.3755 20.4015 5.36645ZM12.0282 10.6409L13.1443 11.0755L14.69 7.10574C14.4686 6.36578 13.9723 5.73867 13.303 5.35317C12.6649 5.04044 12.0015 4.78215 11.32 4.58106L10.1904 5.74363L9.76601 6.11825L10.05 6.76438L13.1194 7.95948L12.0282 10.6409ZM7.64023 19.1594C7.28967 20.0598 7.60092 21.2521 9.47974 21.9836C11.3586 22.7152 12.2957 21.5077 12.2957 21.5077L14.9931 14.5802L10.1565 12.697L7.64023 19.1594Z" fill="#67C688"/>
<path d="M21.201 7.6271L21.1514 6.18104C21.142 5.89521 21.033 5.62164 20.8433 5.40769C20.6535 5.19374 20.3949 5.05289 20.1122 5.00951L17.5753 4.62581C17.2499 4.57547 16.9172 4.63801 16.6323 4.80303C16.3475 4.96806 16.1277 5.22562 16.0096 5.53289L13.8279 11.1359L13.6122 11.0519L14.9637 7.58069C15.0845 7.27443 15.0967 6.93607 14.9985 6.62188C14.9002 6.30768 14.6974 6.03659 14.4236 5.85369L12.2952 4.42083C12.0576 4.26164 11.7718 4.19053 11.4874 4.21983C11.2029 4.24912 10.9376 4.37696 10.7374 4.58122L9.72303 5.61298C9.60768 5.73096 9.52338 5.8757 9.47767 6.03424C9.43196 6.19278 9.42627 6.36018 9.4611 6.52147C9.49593 6.68275 9.5702 6.83288 9.67727 6.95842C9.78433 7.08397 9.92085 7.18102 10.0746 7.24088L12.5189 8.19262C12.5347 8.19876 12.5474 8.21093 12.5542 8.22644C12.5611 8.24195 12.5614 8.25953 12.5553 8.27532L11.7557 10.329L10.5502 9.85966C10.346 9.78013 10.1185 9.785 9.91784 9.87319C9.71718 9.96138 9.55977 10.1257 9.48024 10.3299L8.92108 11.766C8.84155 11.9703 8.84641 12.1977 8.93461 12.3984C9.0228 12.5991 9.18709 12.7565 9.39134 12.836L9.73735 12.9707L7.30368 19.2211C7.10389 19.7342 7.11612 20.3056 7.33767 20.8097C7.55921 21.3138 7.97193 21.7092 8.48503 21.909L10.2113 22.5812C10.7244 22.7809 11.2959 22.7687 11.7999 22.5472C12.304 22.3256 12.6994 21.9129 12.8992 21.3998L15.3329 15.1494L15.6789 15.2842C15.8832 15.3637 16.1106 15.3588 16.3113 15.2706C16.512 15.1824 16.6694 15.0182 16.7489 14.8139L17.3081 13.3778C17.3876 13.1736 17.3827 12.9461 17.2945 12.7454C17.2063 12.5448 17.042 12.3873 16.8378 12.3078L15.7217 11.8732L17.3513 7.68773C17.3575 7.67194 17.3697 7.65924 17.3852 7.65242C17.4007 7.64561 17.4183 7.64523 17.4341 7.65138L19.8784 8.60312C20.0313 8.65578 20.1947 8.67049 20.3546 8.646C20.5144 8.6215 20.6659 8.55854 20.7961 8.46251C20.9262 8.36648 21.031 8.24027 21.1016 8.09475C21.1721 7.94922 21.2062 7.78873 21.201 7.6271ZM12.7969 7.45679L10.3525 6.50505C10.3221 6.49304 10.2951 6.47374 10.2739 6.44885C10.2527 6.42396 10.238 6.39424 10.2309 6.36231C10.2239 6.33038 10.2248 6.29721 10.2336 6.26572C10.2424 6.23423 10.2588 6.20538 10.2814 6.1817L11.2958 5.14995C11.3658 5.07886 11.4586 5.03455 11.5579 5.02469C11.6572 5.01484 11.7568 5.04007 11.8395 5.09601L13.9679 6.52887C14.0909 6.611 14.1819 6.73276 14.226 6.87387C14.2701 7.01498 14.2645 7.16692 14.2101 7.3044L12.8586 10.7756L12.4865 10.6307L13.2861 8.57703C13.3279 8.47137 13.3483 8.35852 13.3462 8.24495C13.3442 8.13139 13.3197 8.01934 13.2743 7.91525C13.2288 7.81115 13.1632 7.71707 13.0813 7.63839C12.9994 7.55972 12.9027 7.498 12.7969 7.45679ZM12.127 21.1163C12.0661 21.2726 11.9751 21.4154 11.859 21.5366C11.7429 21.6577 11.6041 21.7548 11.4505 21.8223C11.2969 21.8898 11.1315 21.9264 10.9638 21.93C10.7961 21.9336 10.6293 21.9041 10.4729 21.8433L8.7578 21.1754C8.44204 21.0525 8.18806 20.8092 8.05173 20.499C7.91539 20.1888 7.90787 19.8371 8.03081 19.5213L10.4645 13.271L14.557 14.8645L12.1233 21.1148L12.127 21.1163ZM16.5373 13.0906L15.9781 14.5266C15.9754 14.5336 15.9701 14.5391 15.9633 14.5421C15.9566 14.5451 15.9489 14.5452 15.942 14.5426L9.65338 12.064L10.2487 10.612L16.5373 13.0906ZM20.3013 7.82518C20.2742 7.84431 20.2428 7.85628 20.2099 7.85995C20.177 7.86363 20.1437 7.85889 20.1131 7.84619L17.6688 6.89445C17.4572 6.81318 17.2221 6.81848 17.0144 6.90919C16.8067 6.9999 16.6431 7.16873 16.5589 7.37917L14.9292 11.5647L14.5572 11.4198L16.7388 5.81682C16.7928 5.67745 16.8935 5.56112 17.0237 5.4876C17.1539 5.41409 17.3055 5.38793 17.4528 5.41359L19.9897 5.79729C20.0884 5.81197 20.1789 5.86075 20.2454 5.93517C20.3119 6.00959 20.3503 6.10494 20.3538 6.20469L20.4034 7.65075C20.4045 7.68288 20.3976 7.71478 20.3834 7.74362C20.3692 7.77246 20.3481 7.79735 20.3219 7.81609L20.3013 7.82518Z" fill="#222623"/>
</g>
<defs>
<clipPath id="clip0_2615_15992">
<rect width="20" height="20" fill="white" transform="translate(7.30957 -0.00683594) rotate(21.2742)"/>
</clipPath>
</defs>
</svg>
