<svg width="20" height="20" viewBox="0 0 20 20" fill="none" xmlns="http://www.w3.org/2000/svg">
<g clip-path="url(#clip0_4755_83074)">
<path d="M12.2392 15.0074L11.6126 12.5996L9.6626 13.3887C9.6626 13.3887 10.1032 14.6777 10.2767 15.2668C10.4204 15.7543 10.6626 16.2527 11.4532 16.6402L14.9282 18.0871L15.022 16.8824L12.2392 15.0074Z" fill="url(#paint0_linear_4755_83074)"/>
<path d="M14.0889 16.2524C13.5998 16.9228 13.7201 17.5868 13.7201 17.5868L15.0498 18.1806L15.2154 16.8915L14.0889 16.2524Z" fill="#E0E0E0"/>
<path d="M15.8984 16.4528C15.864 16.3528 15.6906 16.259 15.4859 16.3059L15.1359 16.4059C14.8968 16.5293 14.8406 16.6793 14.8406 16.6793C14.7718 17.484 14.9297 18.0856 14.9297 18.0856L15.6453 18.9168C15.7319 19.0185 15.8468 19.0919 15.9754 19.1278C16.104 19.1637 16.2404 19.1605 16.3671 19.1184L16.5671 19.0512C16.6546 19.0215 16.7468 18.8668 16.7031 18.6934L15.8984 16.4528Z" fill="#4568AD"/>
<path d="M9.49707 13.0228C9.45957 13.2759 10.1564 14.8728 10.1564 14.8728C11.2783 14.7884 12.4533 13.7274 12.4533 13.7274C12.4533 13.7274 11.8408 13.0337 11.8971 11.7603L9.49707 13.0228Z" fill="#616161"/>
<path d="M6.89215 16.9776L8.22184 16.9667C8.22184 16.9667 7.77809 14.5386 7.6609 14.0964L10.7546 13.0745L10.075 10.9604L6.52184 12.5667C6.07184 12.7698 5.62027 13.3276 5.87027 14.262C6.01559 14.798 6.89215 16.9776 6.89215 16.9776Z" fill="url(#paint1_linear_4755_83074)"/>
<path d="M8.04043 15.89C7.16699 15.8166 6.62012 16.2931 6.62012 16.2931L7.08887 17.6994L8.2998 17.2588L8.04043 15.89Z" fill="#E0E0E0"/>
<path d="M8.42507 18.0352C8.52507 18.0024 8.62195 17.8305 8.57664 17.6258L8.47976 17.2743C8.39851 17.018 8.1407 16.7883 8.1407 16.7883C7.33132 16.7055 6.79382 17.2508 6.79382 17.2508L5.96414 17.7508C5.86109 17.8361 5.78603 17.9504 5.7487 18.0788C5.71136 18.2072 5.71348 18.3439 5.75476 18.4712L5.82039 18.6727C5.84851 18.7602 6.0032 18.854 6.17664 18.8133L8.42507 18.0352Z" fill="#4568AD"/>
<path d="M7.37017 17.9916C6.68423 18.2588 6.20455 18.465 6.00611 18.6213C5.7983 18.7635 5.97955 18.8619 6.18267 18.8057L8.10455 18.2275C8.46861 18.1041 8.60142 17.9463 8.5858 17.7713C8.57017 17.5979 8.01392 17.74 7.37017 17.9916Z" fill="#294B7C"/>
<path d="M7.27197 12.2261C8.09385 12.3901 9.09228 14.0417 9.09228 14.0417C9.09228 14.0417 10.6876 13.3183 11.2579 12.9808C12.3079 12.3604 12.0188 11.1386 11.6829 10.5401L11.2563 9.60889L8.23135 10.3792L8.19072 11.0323L8.31572 11.6855L7.27197 12.2261Z" fill="#7C7C7C"/>
<path opacity="0.2" d="M8.31739 11.6867C9.88614 10.5852 11.844 10.893 11.844 10.893C11.6033 10.2367 11.144 9.39453 11.144 9.39453C11.144 9.39453 8.20333 10.1711 8.14708 10.5742C8.08927 10.9773 8.31739 11.6867 8.31739 11.6867Z" fill="black"/>
<path d="M9.13574 8.57441L8.39043 7.46191L5.1748 10.8791C5.1748 10.8791 5.17481 11.1197 5.45293 11.2838C5.73106 11.4479 6.00605 11.3275 6.00605 11.3275L9.13574 8.57441Z" fill="url(#paint2_linear_4755_83074)"/>
<path d="M5.16086 11.2587C5.16086 11.2587 4.92023 11.654 4.83898 12.1571C4.80617 12.3649 4.87805 12.5509 4.90461 12.5853C4.99055 12.6962 5.14367 12.7212 5.19367 12.629C5.23586 12.5493 5.12961 12.4165 5.12961 12.3384C5.13117 12.2446 5.1843 12.1696 5.1843 12.1696C5.21711 12.2665 5.44055 12.4712 5.51398 12.4509C5.7218 12.3915 5.39992 12.1321 5.41398 11.9603C5.45148 11.5134 5.6218 11.2212 5.6218 11.2212L5.16086 11.2587Z" fill="#91674D"/>
<path d="M6.15176 11.0167C6.18301 11.2995 6.12676 11.2729 6.06894 11.6308C6.03457 11.8511 6.14551 11.9354 6.13926 12.0933C6.13613 12.187 6.02988 12.2901 5.92207 12.2276C5.68301 12.0886 5.79082 11.5245 5.34082 11.6526C5.01113 11.7464 4.86113 12.4714 4.58457 12.7026C4.31426 12.9292 4.08926 12.7433 4.15801 12.6589C4.15801 12.6589 4.30488 12.3933 4.47832 12.1073C4.68613 11.7636 4.75957 11.1261 5.35644 10.7261L6.15176 11.0167Z" fill="url(#paint3_linear_4755_83074)"/>
<path d="M9.51729 6.26651C8.31416 7.26338 7.52979 8.26026 7.52979 8.26026C8.19697 8.30401 8.79385 9.27276 8.79385 9.27276C8.79385 9.27276 10.422 5.51651 9.51729 6.26651Z" fill="#DB5200"/>
<path d="M10.8359 2.48544C10.4953 1.75106 9.35776 1.36981 8.57182 1.56044C7.69213 1.7745 7.25932 2.45263 7.19369 3.27606C7.17026 3.5745 7.20151 3.86825 7.26713 4.07294C7.27494 4.09794 7.33744 4.27606 7.34526 4.33231C7.39526 4.5495 6.98588 4.7995 6.95463 5.04638C6.93119 5.23075 7.32026 5.31825 7.35307 5.3495C7.51401 5.50106 7.33744 6.26981 8.38744 6.29794C8.75307 6.30731 8.82338 6.26356 8.82338 6.26356L8.89682 7.45575L10.6437 6.16825C10.6437 6.16825 10.3203 5.65575 10.5765 5.14013C10.9078 4.46825 11.2703 3.42138 10.8359 2.48544Z" fill="#BA8D68"/>
<path d="M7.49199 5.77576C7.6373 5.77263 7.77793 5.72888 7.89355 5.62888C8.02012 5.51951 7.92012 5.41482 7.77168 5.49294C7.68262 5.53982 7.55293 5.56951 7.43262 5.55545L7.49199 5.77576Z" fill="#5D4037"/>
<path d="M8.03285 4.69753C8.13839 4.68625 8.20996 4.54633 8.19272 4.38502C8.17547 4.2237 8.07594 4.10208 7.9704 4.11336C7.86485 4.12464 7.79328 4.26456 7.81052 4.42587C7.82777 4.58719 7.92731 4.70881 8.03285 4.69753Z" fill="#49362E"/>
<path d="M7.81895 3.99784C7.64395 4.08378 7.57989 3.97128 7.62364 3.86191C7.65645 3.78222 7.75802 3.70253 7.97989 3.70566C8.18927 3.71034 8.29395 3.81191 8.36114 3.87284C8.42833 3.93378 8.43458 4.00566 8.38927 4.01972C8.3252 4.04159 8.03458 3.89159 7.81895 3.99784Z" fill="#613E31"/>
<path d="M14.6173 4.18867C15.6235 4.18867 16.4392 3.37299 16.4392 2.3668C16.4392 1.3606 15.6235 0.544922 14.6173 0.544922C13.6111 0.544922 12.7954 1.3606 12.7954 2.3668C12.7954 3.37299 13.6111 4.18867 14.6173 4.18867Z" fill="url(#paint4_radial_4755_83074)"/>
<path d="M10.6998 6.08213C9.82944 6.49619 10.6029 7.5165 10.6029 7.5165C10.6029 7.5165 12.2826 7.23525 12.9654 7.07432C13.9357 6.84932 14.0826 6.51494 14.3185 6.22119C14.5076 5.98525 15.4466 4.59619 15.4466 4.59619L15.3935 4.104L14.5326 4.2915L13.0826 5.62275C13.0826 5.62119 11.4607 5.72119 10.6998 6.08213Z" fill="url(#paint5_linear_4755_83074)"/>
<path d="M14.5592 4.36339C14.5373 3.9212 15.0998 3.6962 15.0998 3.6962C15.0998 3.6962 14.9108 3.22589 14.8373 3.07745C14.7655 2.92901 14.8155 2.82589 14.8436 2.81026C14.9342 2.7587 15.0264 2.8087 15.0545 2.84151C15.1748 2.98683 15.3561 3.23995 15.3561 3.23995C15.4342 3.2087 15.3123 2.80245 15.2514 2.52901C15.2155 2.36808 15.4061 2.19308 15.5436 2.47901C15.6577 2.71495 15.8045 3.1587 15.8045 3.1587C15.8311 2.97745 15.7983 2.69308 15.7623 2.33526C15.7452 2.16808 15.8139 2.09308 15.9233 2.0837C16.0045 2.07589 16.0748 2.09776 16.1311 2.43214C16.1483 2.53214 16.1764 3.0962 16.1764 3.0962C16.3342 3.01495 16.3733 2.57901 16.3858 2.29776C16.3936 2.09933 16.6561 2.04933 16.6905 2.34776C16.7608 2.95401 16.4467 3.4712 16.303 3.71339C16.228 3.83995 15.3998 4.62433 15.3998 4.62433L14.5592 4.36339Z" fill="url(#paint6_linear_4755_83074)"/>
<path d="M12.344 10.2637C10.9752 8.96836 11.619 7.85273 11.619 7.85273C11.619 7.85273 11.6315 7.66211 12.3424 7.51836C12.3424 7.51836 12.2424 6.69805 12.6518 5.60742C12.6518 5.60742 11.0877 5.62305 10.4409 5.83555C10.0534 5.96211 9.4268 6.04805 8.83773 6.7043C8.50023 7.0793 8.26742 7.43867 8.02992 8.60117C7.76586 9.89648 8.31898 11.6887 8.31898 11.6887C9.51273 10.3293 12.344 10.2637 12.344 10.2637Z" fill="url(#paint7_radial_4755_83074)"/>
<path d="M11.4295 2.50873C11.1826 1.96654 10.7248 1.82123 10.5764 1.78842C10.4982 1.58998 10.1139 0.84779 8.86856 1.11654C8.56543 1.18217 8.34981 1.33842 8.15762 1.47748C8.07481 1.53685 7.99825 1.5931 7.92481 1.63217C7.86543 1.66342 7.75918 1.69623 7.66856 1.67123C7.46231 1.61342 7.51231 1.30404 7.51231 1.30404C7.51231 1.30404 6.77793 1.48685 7.13262 2.18842C6.88887 2.31029 6.78731 2.5806 6.7545 2.8306C6.71075 3.17279 6.892 3.48685 7.22481 3.61654C7.22481 3.61654 7.13262 3.07435 7.92168 3.0681C8.16543 3.06654 8.42325 3.09154 8.64512 2.98998C8.7295 2.95092 8.80762 2.89154 8.88887 2.84623C8.90762 2.84467 8.92012 2.84467 8.92012 2.84467C9.22637 2.98998 8.86856 3.71029 9.22012 4.1056C9.29043 4.18373 9.34356 4.15092 9.34356 4.15092L9.467 3.94935C9.56075 3.81029 9.64668 3.68998 9.77325 3.71185C10.1482 3.77435 10.1139 4.43998 9.68106 4.60717C9.63887 4.62435 9.77637 5.35716 10.6873 5.31185C11.1576 5.28841 11.3045 4.88998 11.3045 4.88998C11.3045 4.88998 11.1061 4.94935 11.0545 4.78217C11.0279 4.69466 11.1029 4.57123 11.2436 4.43217C11.6498 4.03373 11.4748 3.60717 11.4061 3.47435C11.4654 3.34623 11.6232 2.93217 11.4295 2.50873Z" fill="#543930"/>
<path d="M11.406 3.47462C11.4123 3.45899 11.292 3.81681 10.6857 3.78868C10.4388 3.80118 10.1232 4.41368 10.5045 4.79024C10.842 5.12306 11.3045 4.89024 11.3045 4.89024C11.3045 4.89024 11.2404 4.91212 11.1435 4.88399C11.081 4.86524 11.0545 4.78556 11.0545 4.78243C11.0279 4.69493 11.1029 4.57149 11.2435 4.43243C11.6498 4.03243 11.4748 3.60587 11.406 3.47462Z" fill="url(#paint8_radial_4755_83074)"/>
<path d="M11.4294 2.50889C11.2997 2.22295 11.0747 1.98857 10.7872 1.86045C10.745 1.8417 10.6435 1.79795 10.5747 1.78857C10.6138 1.9167 10.6169 2.0542 10.5685 2.19951C10.5669 2.2042 10.5138 2.41982 10.3403 2.59795C10.4825 2.77451 10.5591 2.99482 10.6325 3.20889C10.6966 3.39639 10.7606 3.6042 10.6856 3.78701C10.8013 3.77451 10.9856 3.79795 11.1841 3.69639C11.3731 3.59951 11.4638 3.37139 11.5013 3.16826C11.5435 2.94795 11.5247 2.71514 11.4294 2.50889Z" fill="url(#paint9_radial_4755_83074)"/>
<path d="M10.5686 2.19948C10.6951 1.81823 10.4732 1.48542 10.1529 1.27136C9.77637 1.02136 9.29668 1.02292 8.86856 1.11511C8.56543 1.18073 8.34981 1.33698 8.15762 1.47605C8.07481 1.53542 7.99825 1.59167 7.92481 1.63073C7.86543 1.66198 7.75918 1.6948 7.66856 1.6698C7.46231 1.61198 7.51231 1.30261 7.51231 1.30261C7.51231 1.30261 6.77793 1.48542 7.13262 2.18698C6.88887 2.30886 6.78731 2.57917 6.7545 2.82917C6.71075 3.17136 6.892 3.48542 7.22481 3.61511C7.22481 3.61511 7.13262 3.07292 7.92168 3.06667C8.16543 3.06511 8.42325 3.09011 8.64512 2.98855C8.842 2.89792 8.9045 2.78698 9.1295 2.78698C9.37168 2.78855 9.69981 2.86511 9.94668 2.81511C10.4451 2.71355 10.567 2.2073 10.5686 2.19948Z" fill="url(#paint10_radial_4755_83074)"/>
<path d="M10.5044 4.78994C10.3341 4.62588 10.2763 4.34463 10.0154 4.20557C9.9763 4.37275 9.86536 4.53525 9.68099 4.60713C9.6388 4.62432 9.7763 5.35713 10.6872 5.31182C11.1576 5.28838 11.3044 4.88994 11.3044 4.88994C11.3044 4.88994 10.8482 5.11963 10.5044 4.78994Z" fill="url(#paint11_radial_4755_83074)"/>
</g>
<defs>
<linearGradient id="paint0_linear_4755_83074" x1="14.198" y1="17.3029" x2="11.0149" y2="14.2078" gradientUnits="userSpaceOnUse">
<stop offset="0.598" stop-color="#BA8D68"/>
<stop offset="1" stop-color="#A47B62"/>
</linearGradient>
<linearGradient id="paint1_linear_4755_83074" x1="6.26949" y1="15.8494" x2="8.76949" y2="13.2517" gradientUnits="userSpaceOnUse">
<stop offset="0.598" stop-color="#BA8D68"/>
<stop offset="1" stop-color="#A47B62"/>
</linearGradient>
<linearGradient id="paint2_linear_4755_83074" x1="5.0623" y1="9.96254" x2="7.91387" y2="9.20723" gradientUnits="userSpaceOnUse">
<stop offset="0.598" stop-color="#BA8D68"/>
<stop offset="1" stop-color="#A47B62"/>
</linearGradient>
<linearGradient id="paint3_linear_4755_83074" x1="4.84504" y1="11.56" x2="5.59957" y2="12.3345" gradientUnits="userSpaceOnUse">
<stop offset="0.598" stop-color="#BA8D68"/>
<stop offset="1" stop-color="#A47B62"/>
</linearGradient>
<radialGradient id="paint4_radial_4755_83074" cx="0" cy="0" r="1" gradientUnits="userSpaceOnUse" gradientTransform="translate(14.1993 1.66711) rotate(9.27) scale(1.825)">
<stop stop-color="#CED7DB"/>
<stop offset="0.303" stop-color="#BFCBD0"/>
<stop offset="0.88" stop-color="#99ABB4"/>
<stop offset="1" stop-color="#90A4AE"/>
</radialGradient>
<linearGradient id="paint5_linear_4755_83074" x1="16.1932" y1="3.88844" x2="11.5928" y2="6.83562" gradientUnits="userSpaceOnUse">
<stop offset="0.598" stop-color="#BA8D68"/>
<stop offset="1" stop-color="#A47B62"/>
</linearGradient>
<linearGradient id="paint6_linear_4755_83074" x1="16.2961" y1="2.48697" x2="12.5797" y2="6.49188" gradientUnits="userSpaceOnUse">
<stop offset="0.598" stop-color="#BA8D68"/>
<stop offset="1" stop-color="#A47B62"/>
</linearGradient>
<radialGradient id="paint7_radial_4755_83074" cx="0" cy="0" r="1" gradientUnits="userSpaceOnUse" gradientTransform="translate(9.25537 7.45467) rotate(19.493) scale(3.03469)">
<stop stop-color="#F78C1F"/>
<stop offset="1" stop-color="#ED6D23"/>
</radialGradient>
<radialGradient id="paint8_radial_4755_83074" cx="0" cy="0" r="1" gradientUnits="userSpaceOnUse" gradientTransform="translate(10.3124 4.39953) rotate(17.4511) scale(1.1916 1.71596)">
<stop offset="0.45" stop-color="#6D4C41" stop-opacity="0"/>
<stop offset="1" stop-color="#6D4C41"/>
</radialGradient>
<radialGradient id="paint9_radial_4755_83074" cx="0" cy="0" r="1" gradientUnits="userSpaceOnUse" gradientTransform="translate(10.3933 3.19283) rotate(-10.5334) scale(1.20775 1.5241)">
<stop offset="0.45" stop-color="#6D4C41" stop-opacity="0"/>
<stop offset="1" stop-color="#6D4C41"/>
</radialGradient>
<radialGradient id="paint10_radial_4755_83074" cx="0" cy="0" r="1" gradientUnits="userSpaceOnUse" gradientTransform="translate(9.02791 2.84278) rotate(-11.6302) scale(2.48602 1.86855)">
<stop offset="0.45" stop-color="#6D4C41" stop-opacity="0"/>
<stop offset="1" stop-color="#6D4C41"/>
</radialGradient>
<radialGradient id="paint11_radial_4755_83074" cx="0" cy="0" r="1" gradientUnits="userSpaceOnUse" gradientTransform="translate(10.5933 4.53167) rotate(11.4493) scale(1.33828 0.860368)">
<stop offset="0.45" stop-color="#6D4C41" stop-opacity="0"/>
<stop offset="1" stop-color="#6D4C41"/>
</radialGradient>
<clipPath id="clip0_4755_83074">
<rect width="20" height="20" fill="white" transform="translate(0 0.00878906)"/>
</clipPath>
</defs>
</svg>
