<svg width="20" height="20" viewBox="0 0 20 20" fill="none" xmlns="http://www.w3.org/2000/svg">
<path d="M17.5344 17.2779C17.5344 18.1568 14.1215 18.9674 10.0082 18.9674C5.89475 18.9674 2.63818 18.1568 2.63818 17.2779C2.63818 16.3988 5.89459 15.686 10.0082 15.686C14.1215 15.6862 17.5344 16.3988 17.5344 17.2779Z" fill="#B8CBCD"/>
<path d="M11.477 2.12053C11.5524 1.9729 11.6834 1.86127 11.8411 1.81019C11.9988 1.75912 12.1703 1.77278 12.318 1.84818C12.4656 1.92358 12.5772 2.05454 12.6283 2.21225C12.6794 2.36995 12.6657 2.54149 12.5903 2.68912L7.28453 14.8743C7.2116 15.0669 7.0818 15.2327 6.91236 15.3498C6.74293 15.4669 6.54189 15.5296 6.33594 15.5297H2.11719C1.84783 15.5297 1.5895 15.4227 1.39903 15.2323C1.20857 15.0418 1.10156 14.7835 1.10156 14.5141C1.10156 14.2448 1.20857 13.9864 1.39903 13.796C1.5895 13.6055 1.84783 13.4985 2.11719 13.4985H6.17969L11.477 2.12053Z" fill="#F7BB83"/>
<path d="M6.33594 15.8423H2.11719C1.38484 15.8423 0.789062 15.2465 0.789062 14.5142C0.789062 13.7818 1.38484 13.186 2.11719 13.186H5.98047L11.1937 1.98869C11.3598 1.66322 11.6798 1.46729 12.0342 1.46729C12.1823 1.46749 12.3283 1.50272 12.4602 1.5701C12.57 1.62581 12.6677 1.70277 12.7476 1.7965C12.8275 1.89024 12.888 1.9989 12.9256 2.11619C13.0018 2.34921 12.983 2.60289 12.8733 2.82213L7.57109 14.999C7.38203 15.4979 6.88344 15.8423 6.33594 15.8423ZM2.11719 13.811C1.72953 13.811 1.41406 14.1265 1.41406 14.5142C1.41406 14.9018 1.72953 15.2173 2.11719 15.2173H6.33594C6.47837 15.2166 6.61727 15.1729 6.73443 15.0919C6.8516 15.0109 6.94155 14.8964 6.9925 14.7634L12.3039 2.56447C12.3064 2.55854 12.3092 2.55275 12.312 2.54713C12.3308 2.51061 12.3421 2.47074 12.3454 2.42982C12.3487 2.38889 12.3438 2.34773 12.3311 2.30869C12.3185 2.2696 12.2984 2.23339 12.2717 2.20214C12.2451 2.1709 12.2125 2.14524 12.1759 2.12666C12.0242 2.049 11.8316 2.11385 11.7555 2.26275L6.46297 13.6304C6.43785 13.6844 6.39785 13.73 6.34767 13.762C6.29748 13.794 6.2392 13.811 6.17969 13.811H2.11719Z" fill="#6E4123"/>
<path d="M4.2418 15.5298H2.30273L3.4107 13.4985H5.34961L4.2418 15.5298Z" fill="white"/>
<path d="M4.24185 15.8423H2.30279C2.24857 15.8423 2.19528 15.8282 2.14815 15.8014C2.10103 15.7746 2.0617 15.7359 2.03402 15.6893C2.00634 15.6427 1.99127 15.5897 1.99029 15.5354C1.9893 15.4812 2.00244 15.4277 2.02842 15.3801L3.13639 13.3488C3.16328 13.2996 3.20295 13.2584 3.25123 13.2298C3.29951 13.2011 3.35462 13.186 3.41076 13.186H5.34967C5.40389 13.186 5.45718 13.2001 5.50431 13.2269C5.55143 13.2538 5.59076 13.2924 5.61844 13.339C5.64612 13.3856 5.66119 13.4387 5.66217 13.4929C5.66316 13.5471 5.65001 13.6006 5.62404 13.6482L4.51607 15.6795C4.48923 15.7288 4.4496 15.7699 4.40134 15.7986C4.35308 15.8272 4.29798 15.8423 4.24185 15.8423ZM2.82935 15.2173H4.05639L4.82342 13.811H3.59639L2.82935 15.2173Z" fill="#6E4123"/>
<path d="M13.836 13.4985H17.8985C18.1678 13.4985 18.4261 13.6055 18.6166 13.796C18.8071 13.9864 18.9141 14.2448 18.9141 14.5141C18.9141 14.7835 18.8071 15.0418 18.6166 15.2323C18.4261 15.4227 18.1678 15.5297 17.8985 15.5297H13.6797C13.4738 15.5297 13.2727 15.4669 13.1033 15.3498C12.9338 15.2328 12.804 15.0669 12.7311 14.8743L7.42533 2.68912C7.388 2.61602 7.36543 2.53628 7.35891 2.45446C7.35239 2.37264 7.36205 2.29034 7.38734 2.21225C7.41263 2.13416 7.45305 2.06182 7.5063 1.99935C7.55955 1.93688 7.62458 1.88552 7.69768 1.84818C7.77077 1.81085 7.85051 1.78828 7.93233 1.78176C8.01416 1.77524 8.09646 1.7849 8.17455 1.81019C8.25264 1.83548 8.32498 1.8759 8.38745 1.92915C8.44991 1.9824 8.50128 2.04743 8.53861 2.12053L13.836 13.4985Z" fill="#F7BB83"/>
<path d="M17.8985 15.8423H13.6798C13.1323 15.8423 12.6337 15.4979 12.439 14.9853L7.14226 2.82198C7.03263 2.60271 7.01387 2.34905 7.09008 2.11604C7.12771 1.99876 7.18823 1.89011 7.26812 1.79638C7.34802 1.70264 7.44571 1.62568 7.55555 1.56995C7.68747 1.50269 7.8334 1.46752 7.98148 1.46729C8.15442 1.46679 8.32411 1.51433 8.47162 1.6046C8.61913 1.69487 8.73868 1.82432 8.81695 1.97854L14.0352 13.1862H17.8985C18.6309 13.1862 19.2266 13.782 19.2266 14.5143C19.2266 15.2467 18.6309 15.8423 17.8985 15.8423ZM7.98148 2.09229C7.93211 2.09229 7.88445 2.10385 7.83976 2.12666C7.80316 2.14525 7.77059 2.1709 7.74396 2.20215C7.71733 2.23339 7.69716 2.26961 7.68461 2.3087C7.67189 2.34773 7.66702 2.3889 7.67029 2.42982C7.67357 2.47074 7.68491 2.51062 7.70367 2.54713C7.70664 2.55291 7.7093 2.5587 7.7118 2.56448L13.0176 14.7495C13.1263 15.0348 13.3901 15.2173 13.6798 15.2173H17.8985C18.2862 15.2173 18.6016 14.9018 18.6016 14.5142C18.6016 14.1265 18.2862 13.811 17.8985 13.811H13.836C13.7765 13.811 13.7182 13.794 13.668 13.762C13.6179 13.73 13.5778 13.6844 13.5527 13.6304L8.25523 2.25245C8.20648 2.1576 8.09976 2.09229 7.98148 2.09229Z" fill="#6E4123"/>
<path d="M15.9107 15.5298H17.8496L16.7418 13.4985H14.8027L15.9107 15.5298Z" fill="white"/>
<path d="M17.8495 15.8423H15.9105C15.8544 15.8423 15.7993 15.8272 15.751 15.7985C15.7027 15.7699 15.6631 15.7288 15.6362 15.6795L14.5282 13.6482C14.5023 13.6006 14.4893 13.5471 14.4903 13.4929C14.4913 13.4387 14.5064 13.3858 14.5341 13.3392C14.5617 13.2926 14.601 13.254 14.6481 13.2271C14.6952 13.2003 14.7484 13.1861 14.8026 13.186H16.7415C16.7976 13.186 16.8527 13.2011 16.901 13.2298C16.9493 13.2584 16.989 13.2996 17.0159 13.3488L18.1238 15.3801C18.1497 15.4277 18.1628 15.4812 18.1617 15.5354C18.1607 15.5896 18.1456 15.6426 18.118 15.6892C18.0903 15.7358 18.051 15.7744 18.0039 15.8012C17.9569 15.828 17.9036 15.8422 17.8495 15.8423ZM16.0962 15.2173H17.3232L16.5562 13.811H15.3291L16.0962 15.2173Z" fill="#6E4123"/>
<path d="M7.97656 17.6392C7.97656 18.0274 9.09344 18.3423 10.0859 18.3423C11.0784 18.3423 12.1953 18.0274 12.1953 17.6392V16.3892C12.1953 16.0009 11.0784 15.686 10.0859 15.686C9.09344 15.686 7.97656 16.0009 7.97656 16.3892V17.6392Z" fill="#B9E3ED"/>
<path d="M10.0859 18.811C9.36891 18.811 7.50781 18.6004 7.50781 17.6392V16.3892C7.50781 15.4279 9.36891 15.2173 10.0859 15.2173C10.803 15.2173 12.6641 15.4279 12.6641 16.3892V17.6392C12.6641 18.6004 10.803 18.811 10.0859 18.811ZM8.44531 17.5379C8.63719 17.6687 9.28922 17.8735 10.0859 17.8735C10.8827 17.8735 11.5345 17.6685 11.7266 17.5379V16.4906C11.5345 16.3598 10.8827 16.1549 10.0859 16.1549C9.28922 16.1549 8.63719 16.3599 8.44531 16.4906V17.5379Z" fill="#324654"/>
<path d="M10.0859 17.4047C9.14953 17.4047 7.66406 17.1289 7.66406 16.3891C7.66396 16.3087 7.69481 16.2314 7.75021 16.1732C7.80561 16.115 7.88129 16.0804 7.96155 16.0765C8.0418 16.0727 8.12046 16.0999 8.18119 16.1525C8.24191 16.2051 8.28004 16.2791 8.28766 16.3591C8.405 16.5095 9.16359 16.7797 10.0859 16.7797C11.0083 16.7797 11.7669 16.5095 11.8842 16.3591C11.8918 16.2791 11.93 16.2051 11.9907 16.1525C12.0514 16.0999 12.1301 16.0727 12.2103 16.0765C12.2906 16.0804 12.3663 16.115 12.4217 16.1732C12.4771 16.2314 12.5079 16.3087 12.5078 16.3891C12.5078 17.1289 11.0223 17.4047 10.0859 17.4047Z" fill="#324654"/>
<path d="M12.0342 1.77979C12.1412 1.77986 12.2464 1.80738 12.3397 1.85973C12.433 1.91208 12.5113 1.9875 12.5671 2.07877C12.6229 2.17004 12.6543 2.27411 12.6584 2.38101C12.6625 2.48791 12.639 2.59407 12.5903 2.68932L10.7602 6.89245L13.8359 13.4985H17.8984C18.1678 13.4985 18.4261 13.6055 18.6166 13.796C18.8071 13.9865 18.9141 14.2448 18.9141 14.5142C18.9141 14.7835 18.8071 15.0419 18.6166 15.2323C18.4261 15.4228 18.1678 15.5298 17.8984 15.5298H13.6797C13.4737 15.5297 13.2727 15.467 13.1032 15.3499C12.9338 15.2328 12.804 15.0669 12.7311 14.8743L10.0078 8.6201L7.28453 14.8743C7.2116 15.0669 7.0818 15.2328 6.91236 15.3499C6.74293 15.4669 6.54189 15.5297 6.33594 15.5298H2.11719C1.84783 15.5298 1.5895 15.4228 1.39903 15.2323C1.20857 15.0419 1.10156 14.7835 1.10156 14.5142C1.10156 14.2448 1.20857 13.9865 1.39903 13.796C1.5895 13.6055 1.84783 13.4985 2.11719 13.4985H6.17969L9.25547 6.89229L7.42531 2.68916C7.34989 2.54156 7.3362 2.37003 7.38724 2.21232C7.43829 2.05462 7.54989 1.92365 7.6975 1.84823C7.84511 1.77281 8.01663 1.75911 8.17434 1.81016C8.33205 1.8612 8.46302 1.97281 8.53844 2.12042L10.0078 5.2762L11.477 2.12042C11.5295 2.01781 11.6093 1.9317 11.7076 1.87159C11.806 1.81148 11.919 1.77971 12.0342 1.77979ZM12.0342 1.15479C11.8037 1.15416 11.5775 1.21752 11.3809 1.33783C11.1842 1.45813 11.0249 1.63066 10.9205 1.8362L10.9105 1.85667L10.0078 3.79557L9.10516 1.85667L9.09516 1.8362C8.99081 1.63066 8.83146 1.45813 8.63484 1.33782C8.43822 1.21751 8.21207 1.15415 7.98156 1.15479C7.78404 1.15508 7.58938 1.20203 7.41344 1.29182C7.26699 1.36614 7.13674 1.46876 7.03021 1.59374C6.92368 1.71872 6.84299 1.86358 6.79281 2.01995C6.69213 2.32783 6.71579 2.66287 6.85875 2.95354L8.57016 6.88385L5.78125 12.8735H2.11719C1.2125 12.8735 0.476562 13.6095 0.476562 14.5142C0.476562 15.4189 1.2125 16.1548 2.11719 16.1548H6.33594C7.00688 16.1548 7.61828 15.7364 7.86281 15.1117L10.0078 10.1857L12.1527 15.1117C12.3973 15.7364 13.0087 16.1548 13.6797 16.1548H17.8984C18.8031 16.1548 19.5391 15.4189 19.5391 14.5142C19.5391 13.6095 18.8031 12.8735 17.8984 12.8735H14.2344L11.4456 6.8837L13.157 2.95338C13.3 2.66266 13.3237 2.32757 13.223 2.01963C13.1728 1.86326 13.0921 1.71838 12.9856 1.5934C12.8791 1.46841 12.7488 1.3658 12.6023 1.29151C12.4263 1.20193 12.2317 1.15509 12.0342 1.15479Z" fill="#6E4123"/>
</svg>
