<svg width="20" height="20" viewBox="0 0 20 20" fill="none" xmlns="http://www.w3.org/2000/svg">
<g clip-path="url(#clip0_4755_83079)">
<path d="M18.7622 7.13469L18.6928 6.91913L18.1411 7.10969L18.5611 5.84636L18.345 5.91636L18.3433 5.91136L17.3061 6.24469L17.8339 4.58802L17.9528 3.90913L17.5055 3.85525L15.5478 4.4858L16.2011 2.42525L16.1105 2.09691L15.4339 2.20025L13.7889 2.72636L14.1067 1.62191L14.0939 1.61802L14.1644 1.38302L12.9161 1.77191L13.0344 1.3908L12.8189 1.3208L12.6528 1.85358L11.3055 2.27358L11.2311 2.51302L12.5761 2.09913L12.2239 3.23025L10.5989 3.75302L10.6683 3.96858L12.1367 3.4958L11.8005 4.5308L10.3411 5.00191L10.4105 5.21747L11.7144 4.79691L11.3789 5.8308L9.6361 6.39358L9.70554 6.60913L9.99388 6.51636L9.6561 7.55636L8.38721 7.96691L8.45666 8.18247L9.56943 7.82247L9.23054 8.86636L7.91943 9.29191L7.98943 9.50747L9.14388 9.13247L8.80832 10.1658L7.91943 10.4547L7.98943 10.6702L8.72221 10.4325L8.30054 11.7325L9.60054 11.3108L9.36277 12.0436L9.57832 12.1136L9.86666 11.2241L10.9 10.8886L10.5255 12.043L10.7417 12.113L11.1672 10.8019L12.2105 10.463L11.8505 11.5758L12.0667 11.6452L12.4772 10.3764L13.7822 9.95302L14.2017 8.65413L15.2355 8.31858L14.815 9.62247L15.0311 9.69191L15.5022 8.23247L16.5367 7.89691L16.0639 9.3658L16.28 9.43525L16.8028 7.8108L17.8233 7.45969L17.3889 8.7508L17.6283 8.65191L18.0511 7.37913L18.7622 7.13469ZM17.0394 6.3308L16.0061 6.66636L16.34 5.6308L17.3722 5.29747L17.0394 6.3308ZM11.7439 8.28802L11.4083 9.32136L10.375 9.65691L10.7105 8.62358L11.7439 8.28802ZM10.7972 8.35691L11.1355 7.31469L12.1683 6.98025L11.8305 8.02136L10.7972 8.35691ZM12.0105 8.20136L13.0505 7.86358L12.7167 8.89691L11.675 9.23469L12.0105 8.20136ZM12.0972 7.93525L12.435 6.89469L13.4733 6.55913L13.1372 7.59802L12.0972 7.93525ZM13.98 4.9908L12.9439 5.32525L13.2794 4.29136L14.3139 3.95747L13.98 4.9908ZM14.1605 5.1708L15.195 4.83691L14.8605 5.87191L13.825 6.20691L14.1605 5.1708ZM13.8944 5.25636L13.5594 6.29302L12.5217 6.62858L12.8583 5.5908L13.8944 5.25636ZM13.7394 6.47247L14.7755 6.13747L14.4405 7.17469L13.4033 7.51136L13.7394 6.47247ZM15.0411 6.05136L16.0739 5.71691L15.7394 6.75247L14.7061 7.08802L15.0411 6.05136ZM17.79 3.99913L17.4578 5.03191L16.4261 5.3658L16.7594 4.33191L17.79 3.99913ZM16.4933 4.41747L16.1594 5.45136L15.1267 5.7858L15.4605 4.7508L16.4933 4.41747ZM15.2805 4.57136L14.2461 4.90525L14.5805 3.87191L15.6144 3.53858L15.2805 4.57136ZM16.0328 2.24136L15.7 3.27247L14.6667 3.6058L15.0005 2.57358L16.0328 2.24136ZM14.7344 2.65913L14.4005 3.69191L13.3661 4.0258L13.7017 2.99191L14.7344 2.65913ZM12.8383 2.01858L13.8439 1.70913L13.5217 2.81247L12.4889 3.14469L12.8383 2.01858ZM12.4028 3.41025L13.435 3.07802L13.0994 4.11191L12.0667 4.44525L12.4028 3.41025ZM11.9805 4.7108L13.0133 4.37747L12.6778 5.41136L11.645 5.74469L11.9805 4.7108ZM11.5589 6.01025L12.5917 5.67691L12.255 6.71469L11.2222 7.04913L11.5589 6.01025ZM10.26 6.42969L11.2928 6.09636L10.9555 7.13525L9.92277 7.46969L10.26 6.42969ZM9.8361 7.73525L10.8689 7.40136L10.5305 8.44358L9.49721 8.77913L9.8361 7.73525ZM9.4111 9.04525L10.4444 8.70969L10.1089 9.74302L9.07554 10.0786L9.4111 9.04525ZM9.68721 11.043L8.65332 11.3786L8.98888 10.3447L10.0222 10.0091L9.68721 11.043ZM10.9867 10.6214L9.95332 10.9569L10.2889 9.92302L11.3222 9.58747L10.9867 10.6214ZM12.2967 10.1958L11.2533 10.5341L11.5889 9.50025L12.6305 9.16191L12.2967 10.1958ZM13.6017 9.77247L12.5628 10.1097L12.8972 9.07636L13.9355 8.73969L13.6017 9.77247ZM14.0211 8.47358L12.9833 8.81025L13.3178 7.77691L14.355 7.44025L14.0211 8.47358ZM15.3211 8.05136L14.2878 8.38691L14.6211 7.35413L15.6544 7.01858L15.3211 8.05136ZM16.6217 7.62913L15.5872 7.96469L15.9205 6.93191L16.9539 6.59636L16.6217 7.62913ZM16.8878 7.54302L17.22 6.51025L18.2522 6.17858L17.9133 7.18858L16.8878 7.54302Z" fill="#292F33"/>
<path d="M0.709412 19.9526C0.581483 19.9526 0.45644 19.9146 0.350079 19.8435C0.243718 19.7724 0.160809 19.6714 0.111825 19.5532C0.0628407 19.435 0.0499782 19.305 0.0748622 19.1795C0.0997461 19.054 0.16126 18.9387 0.251635 18.8482L6.73941 12.3604C6.86075 12.2391 7.02532 12.1709 7.19691 12.1709C7.36851 12.1709 7.53308 12.2391 7.65441 12.3604C7.77575 12.4817 7.84391 12.6463 7.84391 12.8179C7.84391 12.9895 7.77575 13.1541 7.65441 13.2754L1.16719 19.7637C1.04052 19.8898 0.874968 19.9526 0.709412 19.9526Z" fill="#226699"/>
<path d="M15.4351 9.60869L14.6167 9.48147C14.8006 8.30091 14.4478 7.16536 13.6495 6.36591C12.8506 5.56758 11.7173 5.21258 10.534 5.39813L10.4067 4.58036C11.8501 4.35536 13.2467 4.79258 14.2345 5.78036C15.2223 6.76869 15.6595 8.16424 15.4351 9.60869Z" fill="#292F33"/>
<path d="M16.9766 9.23308L16.156 9.1253C16.351 7.64808 15.8699 6.20919 14.8383 5.17752C13.8066 4.1453 12.3649 3.6653 10.891 3.85919L10.7827 3.03864C12.5194 2.80975 14.2088 3.37586 15.4238 4.59197C16.6388 5.80752 17.2055 7.49864 16.9766 9.23308Z" fill="#292F33"/>
<path d="M13.8537 17.9394C14.8969 17.9394 15.7426 17.0937 15.7426 16.0505C15.7426 15.0073 14.8969 14.1616 13.8537 14.1616C12.8105 14.1616 11.9648 15.0073 11.9648 16.0505C11.9648 17.0937 12.8105 17.9394 13.8537 17.9394Z" fill="#F4900C"/>
<path d="M18.072 1.94278C16.3909 0.262228 13.6548 -0.929439 11.477 1.24834C10.6615 2.06334 10.5092 2.86723 10.3476 3.71778C10.1276 4.87501 9.87814 6.18723 7.88591 8.17945C6.94647 9.11889 6.90036 9.88278 6.85925 10.5567C6.82647 11.0922 6.79869 11.555 6.3598 12.1778C6.30361 12.2575 6.27736 12.3545 6.28569 12.4516C6.29403 12.5488 6.33641 12.6399 6.40536 12.7089L7.30758 13.6111C7.37661 13.68 7.4677 13.7223 7.56484 13.7306C7.66198 13.7389 7.75895 13.7128 7.83869 13.6567C8.46091 13.2178 8.92369 13.19 9.45925 13.1572C10.1331 13.1161 10.8965 13.07 11.8359 12.1306C13.8287 10.1383 15.1404 9.88889 16.2981 9.66889C17.1487 9.50723 17.9526 9.355 18.767 8.53945C20.9448 6.36056 19.7542 3.62445 18.072 1.94278ZM17.6459 3.25834C17.7116 3.2101 17.7863 3.17543 17.8656 3.15636C17.9448 3.13729 18.0271 3.1342 18.1076 3.14727C18.188 3.16034 18.2651 3.1893 18.3343 3.23248C18.4034 3.27565 18.4633 3.33216 18.5104 3.39872C18.5574 3.46528 18.5908 3.54055 18.6085 3.62013C18.6261 3.69972 18.6278 3.78203 18.6133 3.86226C18.5988 3.94249 18.5685 4.01903 18.5241 4.08741C18.4797 4.1558 18.4222 4.21466 18.3548 4.26056C18.2218 4.35118 18.0585 4.38593 17.9001 4.35735C17.7417 4.32876 17.6009 4.23912 17.508 4.10772C17.415 3.97632 17.3774 3.81368 17.4032 3.65482C17.429 3.49595 17.5162 3.35357 17.6459 3.25834ZM16.2554 1.37445C16.3374 1.37198 16.4191 1.38601 16.4957 1.41571C16.5722 1.4454 16.642 1.49016 16.7009 1.54734C16.7599 1.60451 16.8067 1.67293 16.8387 1.74854C16.8707 1.82415 16.8871 1.90541 16.8871 1.98751C16.8871 2.0696 16.8707 2.15087 16.8387 2.22648C16.8067 2.30208 16.7599 2.3705 16.7009 2.42768C16.642 2.48485 16.5722 2.52961 16.4957 2.5593C16.4191 2.589 16.3374 2.60303 16.2554 2.60056C16.096 2.59576 15.9447 2.52907 15.8336 2.41462C15.7226 2.30018 15.6605 2.14698 15.6605 1.98751C15.6605 1.82804 15.7226 1.67484 15.8336 1.56039C15.9447 1.44594 16.096 1.37925 16.2554 1.37445ZM13.6309 0.852228C13.6719 0.694792 13.7738 0.560106 13.9142 0.477798C14.0545 0.395491 14.2218 0.372304 14.3792 0.413339C14.5367 0.454374 14.6714 0.556269 14.7537 0.696609C14.836 0.836948 14.8592 1.00424 14.8181 1.16167C14.7978 1.23963 14.7623 1.31282 14.7137 1.37706C14.6651 1.4413 14.6044 1.49535 14.5349 1.5361C14.3945 1.61841 14.2272 1.6416 14.0698 1.60056C13.9124 1.55953 13.7777 1.45763 13.6954 1.31729C13.6131 1.17695 13.5899 1.00966 13.6309 0.852228ZM18.1826 7.95278C17.547 8.58778 16.9587 8.69945 16.1437 8.85445C14.9315 9.085 13.4237 9.37112 11.2509 11.5439C11.1481 11.6467 11.0509 11.7322 10.9559 11.8089C10.3526 11.9522 9.51258 11.9539 8.78702 11.2283C8.06147 10.5028 8.06258 9.66278 8.20647 9.05945C8.28955 8.95686 8.37781 8.85859 8.47091 8.765C10.6437 6.59223 10.9298 5.08445 11.1604 3.87223C11.3148 3.05723 11.4265 2.46889 12.0615 1.83389C12.2065 1.68889 12.3526 1.56389 12.5004 1.45612C14.1437 1.61501 15.4726 2.21223 16.6559 3.36001C17.8404 4.50889 18.4226 6.01945 18.5581 7.51445C18.4444 7.67002 18.3189 7.81656 18.1826 7.95278ZM19.0076 6.38612C18.9255 6.38859 18.8438 6.37456 18.7673 6.34486C18.6907 6.31516 18.6209 6.2704 18.562 6.21323C18.5031 6.15606 18.4562 6.08764 18.4243 6.01203C18.3923 5.93642 18.3758 5.85516 18.3758 5.77306C18.3758 5.69096 18.3923 5.6097 18.4243 5.53409C18.4562 5.45848 18.5031 5.39006 18.562 5.33289C18.6209 5.27572 18.6907 5.23096 18.7673 5.20126C18.8438 5.17156 18.9255 5.15753 19.0076 5.16001C19.167 5.1648 19.3182 5.2315 19.4293 5.34594C19.5403 5.46039 19.6025 5.61359 19.6025 5.77306C19.6025 5.93253 19.5403 6.08573 19.4293 6.20018C19.3182 6.31462 19.167 6.38132 19.0076 6.38612Z" fill="#55ACEE"/>
<path d="M18.0824 7.30539C18.0591 7.30535 18.0361 7.29942 18.0156 7.28816C17.9952 7.27689 17.9779 7.26065 17.9654 7.24094C17.9529 7.22122 17.9455 7.19867 17.944 7.17536C17.9426 7.15206 17.947 7.12876 17.9569 7.10761C18.1019 6.79761 18.368 6.3965 18.5558 6.12761C18.188 6.16316 17.7341 6.07983 17.5385 5.62483C17.3174 5.10983 17.5258 4.46372 17.6735 4.11594C17.2569 4.16761 16.4713 4.19761 16.1113 3.76594C15.7758 3.36483 15.8508 2.71261 15.9374 2.32539C15.5652 2.49872 14.9113 2.73039 14.418 2.51705C14.1502 2.40094 13.9752 2.21983 13.8996 1.98039C13.8501 1.80916 13.8446 1.62821 13.8835 1.45428C13.6074 1.66983 13.2263 1.91983 12.8241 2.03594C12.8065 2.04119 12.7881 2.04289 12.7699 2.04094C12.7517 2.039 12.7341 2.03344 12.718 2.02459C12.702 2.01574 12.6879 2.00379 12.6765 1.98943C12.6652 1.97507 12.6568 1.95858 12.6519 1.94094C12.6417 1.90551 12.646 1.8675 12.6638 1.83523C12.6816 1.80296 12.7115 1.77905 12.7469 1.76872C13.4435 1.56705 14.1058 0.88872 14.1124 0.881498C14.1362 0.857001 14.1682 0.842123 14.2022 0.839705C14.2363 0.837286 14.27 0.847497 14.297 0.868387C14.3241 0.889277 14.3424 0.919383 14.3486 0.952954C14.3549 0.986526 14.3485 1.02121 14.3308 1.05039C14.328 1.05594 14.0463 1.52539 14.1646 1.89761C14.2158 2.05872 14.3346 2.17816 14.528 2.26205C15.1108 2.51483 16.0735 1.94205 16.0841 1.9365C16.1086 1.92162 16.1372 1.91471 16.1658 1.91671C16.1944 1.91871 16.2217 1.92953 16.2439 1.94768C16.2662 1.96582 16.2822 1.99041 16.2899 2.01805C16.2976 2.04569 16.2965 2.07504 16.2869 2.10205C16.283 2.11205 15.9346 3.12316 16.3235 3.58816C16.6441 3.97094 17.558 3.87205 17.8835 3.8015C17.9096 3.79576 17.9367 3.79769 17.9616 3.80706C17.9866 3.81643 18.0083 3.83283 18.0241 3.85428C18.0402 3.87557 18.0498 3.90108 18.0516 3.92771C18.0535 3.95434 18.0476 3.98094 18.0346 4.00428C18.0291 4.01316 17.5358 4.91483 17.793 5.51539C18.0269 6.05928 18.7996 5.79705 18.8324 5.78539C18.8605 5.77563 18.8909 5.77511 18.9192 5.78391C18.9476 5.79272 18.9724 5.81038 18.99 5.8343C19.0076 5.85822 19.017 5.88715 19.017 5.91684C19.0169 5.94653 19.0073 5.97542 18.9896 5.99928C18.9841 6.0065 18.4302 6.74872 18.208 7.22483C18.197 7.24889 18.1793 7.26929 18.157 7.28357C18.1348 7.29786 18.1089 7.30543 18.0824 7.30539Z" fill="#292F33"/>
</g>
<defs>
<clipPath id="clip0_4755_83079">
<rect width="20" height="20" fill="white" transform="translate(0 0.00878906)"/>
</clipPath>
</defs>
</svg>
