<svg width="20" height="20" viewBox="0 0 20 20" fill="none" xmlns="http://www.w3.org/2000/svg">
<g clip-path="url(#clip0_2615_16109)">
<path d="M13.3747 0.833008H6.62467L0.833008 5.20801V14.7913L6.62467 19.1663H13.3747L19.1663 14.7913V5.20801L13.3747 0.833008ZM7.49967 2.49967H12.4997V7.49967H7.49967V2.49967ZM2.49967 9.37467L3.33301 9.99967L2.49967 10.6247V9.37467ZM5.83301 12.083V16.4997L2.49967 13.958V12.708L4.70801 11.0413L5.83301 11.9163V12.083ZM4.70801 8.95801L2.49967 7.29134V6.04134L5.83301 3.49967V8.08301L4.70801 8.95801ZM12.4997 17.4997H7.49967V12.4997H12.4997V17.4997ZM12.833 10.833H7.16634L6.08301 9.99967L7.16634 9.16634H12.833L13.9163 9.99967L12.833 10.833ZM17.4997 13.958L14.1663 16.4997V11.9163L15.2913 11.0413L17.4997 12.708V13.958ZM17.4997 10.6247L16.6663 9.99967L17.4997 9.37467V10.6247ZM17.4997 6.24967V7.29134L15.2913 8.95801L14.1663 8.08301V3.49967L17.4997 6.04134V6.24967Z" fill="#7C7C7C"/>
</g>
<defs>
<clipPath id="clip0_2615_16109">
<rect width="20" height="20" fill="white"/>
</clipPath>
</defs>
</svg>
