<svg width="20" height="20" viewBox="0 0 20 20" fill="none" xmlns="http://www.w3.org/2000/svg">
<g clip-path="url(#clip0_152_6419)">
<path d="M16.6665 12.7777H18.3332L19.4443 9.44434H17.7776L16.6665 12.7777Z" fill="#414042"/>
<path d="M16.111 10.5557C16.111 10.5557 14.4443 8.3335 13.8888 8.3335H8.88876L5.55543 11.1113L2.17709 12.0946C1.83265 12.2152 1.37154 12.4479 1.31043 12.7779L-0.000129722 18.3335C-0.0695742 18.6924 0.248759 18.8891 0.555426 18.8891H19.4443C19.5917 18.8891 19.733 18.8305 19.8372 18.7263C19.9413 18.6221 19.9999 18.4808 19.9999 18.3335V11.6668C19.9999 10.5557 16.111 10.5557 16.111 10.5557Z" fill="#F4900C"/>
<path d="M8.94084 11.1108L6.11084 18.8886H12.7775L15.5553 11.1108H8.94084Z" fill="#3B88C3"/>
<path d="M4.44439 19.4444C5.67169 19.4444 6.66661 18.4495 6.66661 17.2222C6.66661 15.9949 5.67169 15 4.44439 15C3.21709 15 2.22217 15.9949 2.22217 17.2222C2.22217 18.4495 3.21709 19.4444 4.44439 19.4444Z" fill="#292F33"/>
<path d="M4.44461 18.3331C5.05826 18.3331 5.55572 17.8356 5.55572 17.222C5.55572 16.6083 5.05826 16.1108 4.44461 16.1108C3.83096 16.1108 3.3335 16.6083 3.3335 17.222C3.3335 17.8356 3.83096 18.3331 4.44461 18.3331Z" fill="#58595B"/>
<path d="M16.1114 19.4444C17.3387 19.4444 18.3336 18.4495 18.3336 17.2222C18.3336 15.9949 17.3387 15 16.1114 15C14.8841 15 13.8892 15.9949 13.8892 17.2222C13.8892 18.4495 14.8841 19.4444 16.1114 19.4444Z" fill="#292F33"/>
<path d="M16.1111 18.3331C16.7248 18.3331 17.2222 17.8356 17.2222 17.222C17.2222 16.6083 16.7248 16.1108 16.1111 16.1108C15.4975 16.1108 15 16.6083 15 17.222C15 17.8356 15.4975 18.3331 16.1111 18.3331Z" fill="#58595B"/>
<path d="M10.8336 16.6667C11.9075 16.6667 12.778 15.7962 12.778 14.7223C12.778 13.6484 11.9075 12.7778 10.8336 12.7778C9.75972 12.7778 8.88916 13.6484 8.88916 14.7223C8.88916 15.7962 9.75972 16.6667 10.8336 16.6667Z" fill="white"/>
<path d="M11.6974 14.0233C11.6974 14.2683 11.5918 14.4821 11.3785 14.6188C11.6585 14.7466 11.8529 15.0071 11.8529 15.3155C11.8529 15.7821 11.4257 16.1749 10.8729 16.1749C10.2968 16.1749 9.93848 15.7505 9.93848 15.4438C9.93848 15.2921 10.0979 15.1833 10.2379 15.1833C10.5029 15.1833 10.4401 15.6377 10.8801 15.6377C10.928 15.6385 10.9755 15.6298 11.02 15.612C11.0644 15.5942 11.1048 15.5677 11.1389 15.534C11.1729 15.5004 11.1999 15.4603 11.2183 15.4161C11.2366 15.3719 11.2459 15.3245 11.2457 15.2766C11.2457 14.7321 10.584 15.1321 10.584 14.6733C10.584 14.2655 11.1368 14.541 11.1368 14.1088C11.1368 13.961 11.0324 13.8483 10.8563 13.8483C10.4868 13.8483 10.5374 14.2294 10.2729 14.2294C10.1129 14.2294 10.0196 14.086 10.0196 13.9416C10.0196 13.6377 10.4363 13.311 10.8679 13.311C11.4285 13.3116 11.6974 13.7205 11.6974 14.0233Z" fill="#231F20"/>
<path d="M16.6665 9.99978L17.2221 9.44423L19.9998 8.88867V9.99978H16.6665Z" fill="#F4900C"/>
<path d="M9.44428 8.88867H13.8887V11.1109H6.6665L9.44428 8.88867Z" fill="#88C9F9"/>
<path d="M3.33306 13.3334C3.33306 13.4807 3.27453 13.622 3.17034 13.7262C3.06616 13.8304 2.92485 13.8889 2.77751 13.8889H1.6664C1.51905 13.8889 1.37775 13.8304 1.27356 13.7262C1.16937 13.622 1.11084 13.4807 1.11084 13.3334C1.11084 13.186 1.16937 13.0447 1.27356 12.9406C1.37775 12.8364 1.51905 12.7778 1.6664 12.7778H2.77751C2.92485 12.7778 3.06616 12.8364 3.17034 12.9406C3.27453 13.0447 3.33306 13.186 3.33306 13.3334Z" fill="#FFCC4D"/>
<path d="M20.0003 12.2222H19.4447C19.2974 12.2222 19.1561 12.2807 19.0519 12.3849C18.9477 12.4891 18.8892 12.6304 18.8892 12.7777V13.3333C18.8892 13.4806 18.9477 13.6219 19.0519 13.7261C19.1561 13.8303 19.2974 13.8888 19.4447 13.8888H20.0003V12.2222Z" fill="#DD2E44"/>
</g>
<defs>
<clipPath id="clip0_152_6419">
<rect width="20" height="20" fill="white"/>
</clipPath>
</defs>
</svg>
