<svg width="20" height="20" viewBox="0 0 20 20" fill="none" xmlns="http://www.w3.org/2000/svg">
<path d="M9.99984 13.3335C9.77882 13.3335 9.56686 13.2457 9.41058 13.0894C9.2543 12.9331 9.1665 12.7212 9.1665 12.5002V9.16683C9.1665 8.94582 9.2543 8.73385 9.41058 8.57757C9.56686 8.42129 9.77882 8.3335 9.99984 8.3335C10.2209 8.3335 10.4328 8.42129 10.5891 8.57757C10.7454 8.73385 10.8332 8.94582 10.8332 9.16683V12.5002C10.8332 12.7212 10.7454 12.9331 10.5891 13.0894C10.4328 13.2457 10.2209 13.3335 9.99984 13.3335Z" fill="#67C688"/>
<path d="M12.5002 12.4998V17.4998C12.5002 17.7208 12.4124 17.9328 12.2561 18.0891C12.0998 18.2454 11.8878 18.3332 11.6668 18.3332H8.3335C8.11248 18.3332 7.90052 18.2454 7.74424 18.0891C7.58796 17.9328 7.50016 17.7208 7.50016 17.4998V12.4998C7.50016 12.2788 7.58796 12.0669 7.74424 11.9106C7.90052 11.7543 8.11248 11.6665 8.3335 11.6665H11.6668C11.8878 11.6665 12.0998 11.7543 12.2561 11.9106C12.4124 12.0669 12.5002 12.2788 12.5002 12.4998ZM16.6668 9.1665V2.49984C16.6668 2.27882 16.579 2.06686 16.4228 1.91058C16.2665 1.7543 16.0545 1.6665 15.8335 1.6665C15.6125 1.6665 15.4005 1.7543 15.2442 1.91058C15.088 2.06686 15.0002 2.27882 15.0002 2.49984V8.33317H5.00016V2.49984C5.00016 2.27882 4.91237 2.06686 4.75609 1.91058C4.5998 1.7543 4.38784 1.6665 4.16683 1.6665C3.94582 1.6665 3.73385 1.7543 3.57757 1.91058C3.42129 2.06686 3.3335 2.27882 3.3335 2.49984V9.1665C3.3335 9.38752 3.42129 9.59948 3.57757 9.75576C3.73385 9.91204 3.94582 9.99984 4.16683 9.99984H15.8335C16.0545 9.99984 16.2665 9.91204 16.4228 9.75576C16.579 9.59948 16.6668 9.38752 16.6668 9.1665Z" fill="#616161"/>
<path d="M13.3335 18.3332H6.66683C6.44582 18.3332 6.23385 18.2454 6.07757 18.0891C5.92129 17.9328 5.8335 17.7209 5.8335 17.4998C5.8335 17.2788 5.92129 17.0669 6.07757 16.9106C6.23385 16.7543 6.44582 16.6665 6.66683 16.6665H13.3335C13.5545 16.6665 13.7665 16.7543 13.9228 16.9106C14.079 17.0669 14.1668 17.2788 14.1668 17.4998C14.1668 17.7209 14.079 17.9328 13.9228 18.0891C13.7665 18.2454 13.5545 18.3332 13.3335 18.3332Z" fill="#67C688"/>
</svg>
