<svg width="20" height="20" viewBox="0 0 20 20" fill="none" xmlns="http://www.w3.org/2000/svg">
<g clip-path="url(#clip0_2616_16124)">
<path d="M5.73516 5.89554C6.13154 5.57845 8.70063 3.64355 9.0324 3.64355C9.36418 3.64355 12.2621 4.30418 12.2621 4.30418L14.7343 5.95133L15.8324 8.91679C15.8324 8.91679 16.9305 9.08121 17.8642 9.137C18.7979 9.19279 19.1825 9.41299 19.1825 9.90626C19.1825 10.3995 18.9065 10.7871 18.1373 10.7871C17.368 10.7871 15.1718 10.6785 14.9075 10.3467C14.6433 10.0149 13.4777 7.99779 13.4777 7.99779L11.4459 11.1306C11.4459 11.1306 13.3132 12.3931 13.9739 12.7866C14.2587 12.9681 14.4701 13.2445 14.5706 13.567C14.6711 13.8894 14.6542 14.237 14.5229 14.5482C14.3027 15.0973 13.2604 18.0099 12.7613 19.0522C12.2621 20.0945 11.4429 20.1503 10.9497 19.8215C10.4564 19.4926 10.4564 18.9406 10.7295 18.2272C11.0025 17.5137 12.1594 14.2165 12.1594 14.2165C12.1594 14.2165 9.08232 12.1847 8.63603 11.8C8.18974 11.4154 8.36004 10.5904 8.47161 10.0971C8.58318 9.60384 11.0113 5.99244 11.0113 5.99244L8.97956 5.55202C8.48294 5.88922 7.96943 6.20085 7.44104 6.4857C6.61599 6.92612 5.86435 7.44287 5.42394 6.89382C5.19786 6.62663 5.47385 6.10694 5.73516 5.89554Z" fill="#E2AF8D"/>
<path d="M7.32936 11.5005L6.11968 13.4501H2.43781C1.85059 13.4501 1.47771 14.0373 1.47771 14.5217C1.46549 14.65 1.48081 14.7793 1.52264 14.9011C1.56446 15.023 1.63183 15.1345 1.72023 15.2281C1.80863 15.3218 1.91602 15.3955 2.03522 15.4444C2.15442 15.4932 2.28267 15.516 2.41139 15.5112H7.02694L8.83851 13.0654C8.48411 12.9372 8.16381 12.7295 7.9022 12.4582C7.64058 12.1869 7.44462 11.8593 7.32936 11.5005Z" fill="#E2AF8D"/>
<path d="M13.4277 2.95659C13.4277 3.43705 13.6186 3.89783 13.9583 4.23757C14.2981 4.57731 14.7588 4.76817 15.2393 4.76817C15.7198 4.76817 16.1805 4.57731 16.5203 4.23757C16.86 3.89783 17.0509 3.43705 17.0509 2.95659C17.0509 2.47613 16.86 2.01535 16.5203 1.67562C16.1805 1.33588 15.7198 1.14502 15.2393 1.14502C14.7588 1.14502 14.2981 1.33588 13.9583 1.67562C13.6186 2.01535 13.4277 2.47613 13.4277 2.95659Z" fill="#E2AF8D"/>
<path d="M11.1932 19.4985C10.9182 19.4982 10.6495 19.4165 10.421 19.2636C9.54014 18.6764 9.94239 17.6223 10.0775 17.2788C10.3035 16.6916 11.1462 14.2928 11.4163 13.5206C10.7028 13.0479 8.46553 11.5563 8.07797 11.2187C7.47606 10.6931 7.69921 9.68017 7.80784 9.19572C7.91648 8.71126 9.36398 6.53561 10.1127 5.41989L8.69455 5.12628C8.45379 5.28777 7.88418 5.65772 7.24411 6.00711L6.96518 6.15685C6.21941 6.56497 5.37675 7.03768 4.81302 6.32715C4.72442 6.20429 4.67056 6.05983 4.65713 5.90896C4.6437 5.75808 4.67118 5.60638 4.73668 5.46981C4.82923 5.23048 4.98072 5.01839 5.1771 4.85322C5.20646 4.82974 8.1455 2.52783 8.67987 2.52783C9.02045 2.52783 11.3018 3.03871 11.9947 3.19433C12.0335 3.20329 12.0703 3.2192 12.1034 3.2413L14.5756 4.88846C14.6333 4.9267 14.6775 4.98218 14.7018 5.04701L15.7324 7.83043C16.0847 7.88034 16.8628 7.98017 17.544 8.01834C18.0313 8.0477 19.1735 8.11523 19.1735 9.11644C19.1735 9.87396 18.6597 10.3261 17.7994 10.3261C17.6761 10.3261 14.7635 10.3261 14.3054 9.76826C14.097 9.51869 13.4775 8.46169 13.1134 7.82749L11.5514 10.2351C12.0916 10.5992 13.313 11.4095 13.7946 11.7031C14.1445 11.9247 14.4052 12.2625 14.5308 12.6571C14.6565 13.0518 14.639 13.4781 14.4816 13.8612C14.4229 14.0109 14.2996 14.3368 14.144 14.742C13.7212 15.8812 13.0781 17.6018 12.7141 18.371C12.6149 18.6262 12.4602 18.8561 12.2611 19.044C12.062 19.2319 11.8236 19.3731 11.5631 19.4574C11.4422 19.4876 11.3178 19.5014 11.1932 19.4985ZM8.63289 4.42162H8.70336L10.7351 4.86203C10.788 4.87328 10.8373 4.8974 10.8787 4.93226C10.92 4.96711 10.9522 5.01163 10.9722 5.06186C10.9922 5.11209 10.9996 5.16649 10.9935 5.22023C10.9875 5.27398 10.9684 5.32541 10.9377 5.36998C9.7809 7.07585 8.53893 9.02249 8.45966 9.32491C8.38038 9.62732 8.21303 10.4377 8.52132 10.7078C8.82961 10.9779 11.1638 12.537 12.0035 13.0978C12.065 13.1382 12.1111 13.1981 12.1345 13.2678C12.1579 13.3375 12.1573 13.4131 12.1327 13.4824C12.0857 13.6175 10.973 16.7914 10.6999 17.5019C10.4063 18.3006 10.5766 18.556 10.7939 18.7028C10.8795 18.7592 10.976 18.797 11.0772 18.8137C11.1783 18.8304 11.2819 18.8256 11.3811 18.7997C11.5484 18.7369 11.7003 18.6388 11.8264 18.5121C11.9525 18.3855 12.05 18.2333 12.1122 18.0657C12.4645 17.3228 13.1251 15.5465 13.5186 14.4895C13.6771 14.0667 13.8122 13.732 13.8621 13.5793C13.9623 13.3426 13.976 13.0781 13.9009 12.8323C13.8257 12.5864 13.6665 12.3748 13.451 12.2346C12.7904 11.8411 10.9847 10.6197 10.9084 10.5698C10.8369 10.5215 10.7873 10.447 10.7703 10.3624C10.7533 10.2778 10.7702 10.1899 10.8173 10.1177L12.8491 6.98483C12.8801 6.93581 12.9237 6.89604 12.9754 6.86969C13.0271 6.84334 13.0849 6.83139 13.1427 6.83509C13.1993 6.83691 13.2543 6.85326 13.3027 6.88258C13.351 6.9119 13.391 6.95318 13.4187 7.00245C13.8533 7.76584 14.5932 9.05772 14.8046 9.30435C15.0659 9.48052 16.6866 9.63613 17.8023 9.63613C18.4307 9.63613 18.5158 9.3572 18.5158 9.08708C18.5158 8.94615 18.5158 8.70539 17.5087 8.64667C16.5721 8.59088 15.4916 8.4294 15.4535 8.42352C15.3949 8.41505 15.3397 8.39094 15.2937 8.35373C15.2478 8.31653 15.2127 8.26761 15.1921 8.21212L14.1293 5.34649L11.798 3.79036C10.465 3.49675 8.99403 3.17965 8.7151 3.15322C8.30404 3.30003 6.17831 4.8679 5.5999 5.33181C5.4946 5.42475 5.41306 5.54153 5.36207 5.6724C5.34461 5.70388 5.33354 5.73851 5.32951 5.77428C5.32548 5.81006 5.32856 5.84628 5.33858 5.88086C5.53237 6.12456 5.90819 5.9572 6.65689 5.54321L6.9505 5.38759C7.4676 5.10872 7.97031 4.80396 8.45672 4.47447C8.50922 4.44045 8.57034 4.42212 8.63289 4.42162Z" fill="#6D320A"/>
<path d="M6.67478 15.027H2.05923C1.88754 15.031 1.71688 14.9993 1.55815 14.9337C1.39942 14.8681 1.25609 14.7702 1.13731 14.6462C1.01852 14.5221 0.926885 14.3747 0.868242 14.2133C0.809599 14.0519 0.785235 13.88 0.796705 13.7087C0.788505 13.3533 0.918631 13.0086 1.15964 12.7473C1.40066 12.4861 1.73372 12.3286 2.08859 12.3081H5.58549L6.69827 10.5142C6.7312 10.4622 6.77807 10.4205 6.83354 10.3938C6.88901 10.3671 6.95085 10.3565 7.01203 10.3633C7.07322 10.37 7.13128 10.3938 7.17962 10.4319C7.22797 10.47 7.26465 10.5209 7.28549 10.5788C7.38301 10.888 7.5498 11.1709 7.77316 11.406C7.99652 11.6411 8.27057 11.8221 8.57444 11.9353C8.62604 11.9495 8.6734 11.9761 8.71239 12.0127C8.75139 12.0494 8.78084 12.095 8.7982 12.1456C8.81556 12.1963 8.8203 12.2504 8.812 12.3033C8.80371 12.3561 8.78263 12.4062 8.7506 12.4491L6.93903 14.8948C6.90834 14.936 6.86846 14.9693 6.82258 14.9923C6.77669 15.0152 6.72608 15.0271 6.67478 15.027ZM2.08859 12.9717C1.69809 12.9717 1.45733 13.4033 1.45733 13.7145C1.44661 13.7991 1.45443 13.885 1.48024 13.9662C1.50605 14.0474 1.54923 14.122 1.60678 14.1849C1.66433 14.2478 1.73487 14.2973 1.81351 14.3302C1.89215 14.363 1.977 14.3784 2.06217 14.3752H6.51036L7.97841 12.3933C7.54884 12.1533 7.18952 11.8051 6.93609 11.3833L6.05526 12.8161C6.02455 12.8658 5.98116 12.9064 5.92956 12.9337C5.87796 12.9611 5.82 12.9742 5.76165 12.9717H2.07978H2.08859ZM14.89 4.28671C14.4661 4.28671 14.0517 4.161 13.6992 3.92549C13.3467 3.68997 13.072 3.35523 12.9098 2.96358C12.7476 2.57193 12.7051 2.14098 12.7878 1.72521C12.8705 1.30944 13.0747 0.927528 13.3744 0.627775C13.6742 0.328021 14.0561 0.123887 14.4718 0.0411849C14.8876 -0.0415169 15.3186 0.000928678 15.7102 0.163154C16.1019 0.325379 16.4366 0.600098 16.6721 0.952571C16.9076 1.30504 17.0333 1.71944 17.0333 2.14335C17.0326 2.71157 16.8065 3.25629 16.4047 3.65808C16.0029 4.05987 15.4582 4.28593 14.89 4.28671ZM14.89 0.660624C14.5967 0.660624 14.3101 0.747584 14.0662 0.910509C13.8224 1.07343 13.6324 1.305 13.5201 1.57594C13.4079 1.84687 13.3785 2.145 13.4358 2.43262C13.493 2.72024 13.6342 2.98444 13.8415 3.1918C14.0489 3.39917 14.3131 3.54038 14.6007 3.5976C14.8883 3.65481 15.1865 3.62544 15.4574 3.51322C15.7283 3.401 15.9599 3.21095 16.1228 2.96712C16.2858 2.72328 16.3727 2.43661 16.3727 2.14335C16.3719 1.75035 16.2155 1.37366 15.9376 1.09576C15.6597 0.817865 15.283 0.6614 14.89 0.660624Z" fill="#6D320A"/>
</g>
<defs>
<clipPath id="clip0_2616_16124">
<rect width="20" height="20" fill="white"/>
</clipPath>
</defs>
</svg>
