<svg width="23" height="22" viewBox="0 0 23 22" fill="none" xmlns="http://www.w3.org/2000/svg">
<path d="M10.8647 18.6358C10.697 18.6374 10.5322 18.5931 10.388 18.5075C10.1841 18.376 10.0406 18.169 9.98903 17.9318C9.93748 17.6947 9.98206 17.4468 10.113 17.2425L11.5613 14.8592L9.10467 12.6042C8.95249 12.4636 8.85243 12.2756 8.8208 12.0708C8.78918 11.8661 8.82784 11.6566 8.9305 11.4767L11.8363 6.41666C11.9208 6.26979 12.0443 6.1492 12.1932 6.06829C12.3421 5.98738 12.5105 5.94932 12.6797 5.95833C12.8481 5.96722 13.0108 6.02241 13.1499 6.11784C13.289 6.21326 13.3991 6.34521 13.468 6.49916L14.4947 8.79999C14.5778 8.9675 14.7102 9.10557 14.874 9.19569C15.0379 9.2858 15.2254 9.32365 15.4113 9.30416L16.1355 9.22166C16.2559 9.20782 16.3778 9.21782 16.4943 9.2511C16.6108 9.28437 16.7196 9.34027 16.8146 9.41561C16.9095 9.49094 16.9886 9.58422 17.0475 9.69014C17.1063 9.79606 17.1437 9.91253 17.1576 10.0329C17.1714 10.1533 17.1614 10.2752 17.1281 10.3917C17.0949 10.5082 17.039 10.6171 16.9636 10.712C16.8883 10.8069 16.795 10.886 16.6891 10.9449C16.5832 11.0037 16.4667 11.0412 16.3463 11.055L15.6222 11.1375C15.0556 11.1926 14.486 11.0705 13.9918 10.7881C13.4976 10.5057 13.1032 10.0769 12.863 9.56083L12.5605 8.89166L10.9197 11.7608L12.8172 13.5208C13.1259 13.8077 13.3264 14.1922 13.3848 14.6096C13.4433 15.027 13.3561 15.4518 13.138 15.8125L11.6897 18.1958C11.6043 18.3364 11.4826 18.4515 11.3375 18.5289C11.1923 18.6063 11.029 18.6433 10.8647 18.6358Z" fill="#DFA043"/>
<path d="M15.7598 20.1668C15.0098 20.1664 14.2654 20.0361 13.5598 19.7818L3.38482 16.1151C3.16281 16.0277 2.98366 15.857 2.88544 15.6396C2.78723 15.4221 2.77769 15.1749 2.85885 14.9505C2.94002 14.7261 3.10549 14.5422 3.3201 14.4379C3.53471 14.3335 3.78155 14.317 4.00815 14.3918L14.1832 18.0585C15.3249 18.4725 16.5843 18.4165 17.6848 17.9026L17.9782 17.7743C18.0882 17.7138 18.2096 17.6767 18.3347 17.665C18.4597 17.6534 18.5858 17.6676 18.7052 17.7068C18.8245 17.746 18.9345 17.8092 19.0284 17.8927C19.1223 17.9761 19.198 18.078 19.2509 18.1919C19.3038 18.3058 19.3326 18.4294 19.3358 18.555C19.3389 18.6805 19.3162 18.8054 19.269 18.9218C19.2219 19.0382 19.1513 19.1437 19.0617 19.2317C18.9721 19.3198 18.8654 19.3884 18.7482 19.4335L18.464 19.5618C17.6181 19.96 16.6947 20.1666 15.7598 20.1668ZM11.1765 12.2193L13.8532 7.55347C13.9531 7.39661 14.0202 7.22109 14.0504 7.03754C14.0806 6.854 14.0732 6.66624 14.0287 6.48562C13.9842 6.30501 13.9036 6.1353 13.7916 5.98676C13.6796 5.83823 13.5387 5.71395 13.3773 5.62147C13.2159 5.52898 13.0374 5.4702 12.8527 5.44868C12.6679 5.42717 12.4807 5.44336 12.3024 5.49629C12.1241 5.54922 11.9583 5.63778 11.8152 5.75661C11.6721 5.87544 11.5546 6.02207 11.4698 6.18763L8.76565 10.8443C8.67564 11.0013 8.61752 11.1745 8.59461 11.3541C8.5717 11.5336 8.58445 11.7159 8.63214 11.8905C8.67984 12.0651 8.76152 12.2285 8.87252 12.3714C8.98352 12.5144 9.12165 12.634 9.27898 12.7235C9.48401 12.8456 9.71868 12.909 9.95732 12.9068C10.199 12.9079 10.4367 12.8448 10.646 12.724C10.8554 12.6033 11.0289 12.4291 11.149 12.2193H11.1765Z" fill="#67C688"/>
<path d="M16.2732 3.41849C16.0825 3.0068 15.7929 2.64868 15.4303 2.37605C15.0676 2.10342 14.6431 1.92476 14.1947 1.85599C13.7462 1.78722 13.2877 1.83048 12.86 1.98191C12.4323 2.13334 12.0487 2.38823 11.7434 2.72387C11.4382 3.05952 11.2207 3.46547 11.1104 3.90556C11 4.34565 11.0003 4.8062 11.1112 5.24616C11.222 5.68611 11.44 6.0918 11.7457 6.42707C12.0514 6.76233 12.4353 7.01676 12.8632 7.16766C13.1576 7.2727 13.4673 7.32845 13.7799 7.33266C14.2426 7.33298 14.6979 7.21652 15.1037 6.99408C15.5095 6.77164 15.8525 6.4504 16.1012 6.06012C16.3498 5.66984 16.4959 5.22313 16.5259 4.76137C16.556 4.29961 16.4691 3.83772 16.2732 3.41849Z" fill="#DFA043"/>
<path d="M14.1648 10.8624C14.0706 10.8756 13.9749 10.8756 13.8807 10.8624L5.319 8.1124C5.19717 8.0821 5.08286 8.0271 4.98315 7.95081C4.88345 7.87452 4.80048 7.77856 4.73939 7.66888C4.6783 7.55921 4.64038 7.43815 4.628 7.31322C4.61562 7.18829 4.62904 7.06214 4.66741 6.94261C4.70579 6.82307 4.76831 6.7127 4.8511 6.61832C4.93389 6.52394 5.03519 6.44758 5.14871 6.39396C5.26222 6.34034 5.38555 6.31061 5.51103 6.30662C5.63651 6.30262 5.76147 6.32444 5.87817 6.37073L14.4398 9.12073C14.6461 9.18846 14.8216 9.32717 14.9351 9.51218C15.0486 9.69718 15.0928 9.91648 15.0598 10.131C15.0268 10.3456 14.9187 10.5414 14.7549 10.6837C14.591 10.8261 14.3819 10.9056 14.1648 10.9082V10.8624Z" fill="#DFA043"/>
</svg>
