<svg width="21" height="20" viewBox="0 0 21 20" fill="none" xmlns="http://www.w3.org/2000/svg">
<path d="M16.8952 8.5752H15.2007V9.06962H16.8952V8.5752Z" fill="#F3F8FF"/>
<path d="M16.2705 3.3667H15.7344V6.86947H16.2705V3.3667Z" fill="#F3F8FF"/>
<path d="M16.8952 1.43604H15.2007V1.81663H16.8952V1.43604Z" fill="#F3F8FF"/>
<path d="M6.43974 18.0698H4.74805V18.5615H6.43974V18.0698Z" fill="#F3F8FF"/>
<path d="M6.43974 10.9277H4.74805V11.3111H6.43974V10.9277Z" fill="#F3F8FF"/>
<path d="M5.81738 12.8584H5.28125V16.3612H5.81738V12.8584Z" fill="#F3F8FF"/>
<path d="M18.3203 7.85558V9.7889C18.3203 10.1834 18.0008 10.5056 17.6065 10.5056H16.6926V15.9001C16.6926 17.7418 15.2065 19.239 13.3759 19.239C11.6037 19.239 10.1564 17.8334 10.0675 16.0695L10.0592 4.03326C10.0592 2.98328 9.21198 2.12769 8.16747 2.12769C7.12582 2.12769 6.27854 2.98328 6.27854 4.03326V9.49162H7.15356C7.54803 9.49162 7.86741 9.81386 7.86741 10.2111V12.1416C7.86741 12.5083 7.59519 12.8056 7.24242 12.8499V16.6417C7.59519 16.6861 7.86741 16.9833 7.86741 17.35V19.2805C7.86741 19.6778 7.54794 20 7.15356 20H4.03416C3.6397 20 3.32031 19.6778 3.32031 19.2805V17.35C3.32031 17.0166 3.54806 16.7361 3.85644 16.6555V12.8333C3.54806 12.7528 3.32031 12.475 3.32031 12.1416V10.2111C3.32031 9.81386 3.63979 9.49162 4.03416 9.49162H4.85084V4.03326C4.85084 2.18881 6.33975 0.691571 8.16755 0.691571C9.99813 0.691571 11.4843 2.18881 11.4843 4.03326V15.9C11.4843 16.95 12.3342 17.8028 13.376 17.8028C14.4177 17.8028 15.2677 16.95 15.2677 15.9V10.5055H14.4872C14.0927 10.5055 13.7733 10.1833 13.7733 9.78881V7.8555C13.7733 7.52215 14.001 7.24438 14.3094 7.16384V3.34168C14.001 3.26114 13.7733 2.98337 13.7733 2.64725V0.716713C13.7733 0.319474 14.0928 0 14.4872 0H17.6066C18.0011 0 18.3205 0.319474 18.3205 0.716713V2.64725C18.3205 3.01389 18.0483 3.31394 17.6955 3.35833V7.14728C18.0481 7.19175 18.3203 7.49172 18.3203 7.85558ZM16.8954 9.0695V8.57507H15.2009V9.0695H16.8954ZM16.8954 1.81671V1.43611H15.2009V1.81671H16.8954ZM16.2704 6.86951V3.36665H15.7343V6.86942L16.2704 6.86951ZM6.4398 18.5613V18.0696H4.7481V18.5613H6.4398ZM6.4398 11.3112V10.9278H4.7481V11.3112H6.4398ZM5.81749 16.3612V12.8584H5.28137V16.3612H5.81749Z" fill="#5CC166"/>
</svg>
