<svg width="21" height="20" viewBox="0 0 21 20" fill="none" xmlns="http://www.w3.org/2000/svg">
<path d="M4.68609 15.9985L2.44922 18.6828C2.44922 18.6828 5.13346 19.1302 6.92296 16.8933L4.68609 15.9985Z" fill="#E64A19"/>
<path d="M5.58077 15.9993C5.26761 15.9993 4.95444 15.8203 4.7755 15.5072C4.55181 15.0598 4.73077 14.5229 5.17814 14.2993L8.26501 12.7782V9.73605C8.26501 9.24394 8.66765 8.84131 9.15975 8.84131C9.65186 8.84131 10.5019 9.24394 10.5019 9.73605L10.0545 13.315C10.0545 13.6729 9.87557 13.9861 9.56241 14.1203L5.98341 15.9098C5.8492 15.9545 5.715 15.9993 5.58077 15.9993Z" fill="#F9A825"/>
<path d="M15.1996 2.17529C16.0496 2.17529 16.7654 2.89109 16.7654 3.7411C16.7654 4.5911 16.0496 5.3069 15.1996 5.3069C14.3496 5.3069 13.6338 4.5911 13.6338 3.7411C13.6338 2.89109 14.3496 2.17529 15.1996 2.17529Z" fill="#FFB74D"/>
<path d="M18.7786 9.46718L14.9759 6.11188L14.9312 6.06714L13.3206 4.94871C13.2312 4.90397 13.1417 4.85924 13.0522 4.85924L10.0995 4.27764L8.66795 1.68287C8.53374 1.32497 8.13111 1.19077 7.77321 1.32497C7.41531 1.45918 7.2811 1.86181 7.41531 2.21971L8.98111 5.12765C9.07058 5.35134 9.24954 5.48555 9.47322 5.53028L11.5311 5.93292L8.80215 8.39348C8.13109 8.97508 8.08635 9.95929 8.66795 10.5856C8.84689 10.7646 9.07058 10.8988 9.29428 10.9883L12.2469 12.8672L11.8443 15.8646C11.7548 16.3567 12.1127 16.8041 12.6048 16.8936H12.739C13.1864 16.8936 13.5443 16.5804 13.6338 16.1331L14.0812 12.5541C14.1259 12.1962 13.9917 11.8383 13.6785 11.6593L11.3969 10.2277L14.4838 7.45399L17.8838 10.4514C18.018 10.5856 18.1523 10.6303 18.3312 10.6303C18.5102 10.6303 18.6891 10.5409 18.8233 10.4066C19.0918 10.1382 19.047 9.69086 18.7786 9.46718Z" fill="#FFBA57"/>
<path d="M17.2131 8.08002L14.9762 6.11158L14.9315 6.06684L13.3209 4.94841C13.2315 4.90367 13.142 4.85894 13.0525 4.85894L10.0998 4.27734C10.0998 4.27734 9.24982 5.48525 9.47349 5.52998L11.5314 5.93262L8.80243 8.39318C8.13136 8.97478 8.08663 9.95899 8.66823 10.5853C8.84716 10.7643 9.07086 10.8985 9.29455 10.988L11.3972 10.2274L14.5288 7.54318L16.3183 9.06425L17.2131 8.08002Z" fill="#BA68C8"/>
<path d="M10.0547 10.2276H11.3968L14.5284 7.54332L13.8574 6.91699L10.0547 10.2276Z" fill="#AB47BC"/>
<path d="M8.80243 8.39355C8.13136 8.97515 8.08663 9.95936 8.66822 10.5857C8.84716 10.7646 9.07086 10.8989 9.29455 10.9883L11.3972 10.2278L8.80243 8.39355Z" fill="#2D4C5C"/>
<path d="M14.5731 17.8329C6.52039 17.8329 2.89668 15.9091 2.71772 15.8197C2.44929 15.6855 2.40455 15.417 2.49402 15.1933C2.62823 14.9697 2.89666 14.9249 3.12035 15.0144C3.16509 15.0591 7.81779 17.1171 18.9574 16.7592C19.2258 16.7592 19.4048 16.9381 19.4495 17.1618C19.4942 17.3855 19.2705 17.6092 19.0469 17.6539C17.4363 17.7881 15.9152 17.8329 14.5731 17.8329Z" fill="#FF754C"/>
</svg>
