<svg width="18" height="18" viewBox="0 0 18 18" fill="none" xmlns="http://www.w3.org/2000/svg">
<path d="M11.3543 9.03839L11.3472 8.95961C11.3326 8.80425 11.3163 8.61589 11.2926 8.4002C11.2687 8.18452 11.2406 7.94141 11.2081 7.67623C11.1914 7.54366 11.1753 7.40549 11.155 7.26265L11.0906 6.82028C11.0429 6.50108 10.9916 6.18242 10.9367 5.86438C10.909 5.6983 10.8732 5.53005 10.8387 5.35915C10.821 5.27376 10.8001 5.18812 10.7801 5.10184C10.7596 5.0156 10.7392 4.9288 10.7158 4.84193C10.622 4.48522 10.5174 4.13145 10.4021 3.78113C10.3724 3.68987 10.3411 3.59912 10.3083 3.50891C10.2762 3.41472 10.2414 3.32148 10.2038 3.22932C10.1638 3.13464 10.1232 3.03726 10.0705 2.93341C10.0423 2.87786 10.0114 2.82374 9.97794 2.77123C9.94123 2.71445 9.89838 2.65409 9.83784 2.58842L9.82648 2.57622L9.80897 2.5579L9.80606 2.55512L9.79438 2.54398L9.76992 2.52067L9.72319 2.47901C9.70762 2.46551 9.69036 2.45071 9.6789 2.44234C9.62704 2.40234 9.5774 2.36507 9.52811 2.33371C9.42989 2.26937 9.33623 2.21696 9.24528 2.16837C9.15415 2.12014 9.06679 2.07517 8.9795 2.03558C8.8927 1.99487 8.80776 1.95553 8.72349 1.92041C8.64094 1.88527 8.55763 1.85193 8.47363 1.82039C8.39229 1.79131 8.31046 1.7636 8.22817 1.73728C8.07143 1.68974 7.9118 1.6523 7.75026 1.62521C7.59431 1.59891 7.44226 1.58274 7.29625 1.56551L7.08113 1.5428L6.87378 1.52853C6.73839 1.52079 6.60937 1.51169 6.48615 1.50958C6.36299 1.50722 6.24638 1.50599 6.13694 1.50553C5.93841 1.50859 5.76365 1.51373 5.6155 1.52364L5.53788 1.45948C5.47034 1.40369 5.39982 1.35183 5.32494 1.30961C5.25076 1.26612 5.17345 1.23096 5.09575 1.20235C5.01967 1.17464 4.94142 1.15327 4.86182 1.13843C4.82287 1.13028 4.78458 1.12634 4.74609 1.12107C4.70829 1.11731 4.67038 1.11465 4.63243 1.11308C4.55765 1.11101 4.48407 1.11291 4.4134 1.12075C4.34218 1.12746 4.2738 1.13966 4.20739 1.1546C4.08003 1.1838 3.95608 1.22627 3.83758 1.28131C3.72732 1.33253 3.62161 1.39303 3.5216 1.46215C3.49695 1.47857 3.47333 1.49576 3.45019 1.5133C3.42685 1.53067 3.40354 1.54797 3.38157 1.56632C3.33639 1.602 3.2941 1.63962 3.25212 1.67717C3.21152 1.71573 3.17098 1.75402 3.13333 1.79406C3.09452 1.83326 3.05904 1.8745 3.02326 1.9151L2.97158 1.97716C2.95449 1.99762 2.93653 2.02124 2.91923 2.04311L2.89325 2.07651C2.88485 2.08744 2.87954 2.09591 2.87251 2.10576L2.83281 2.16282C2.72974 2.31103 2.73413 2.51582 2.8563 2.66014C3.00209 2.83233 3.25982 2.85374 3.43202 2.70795L3.48507 2.66305C3.49361 2.65599 3.50338 2.64713 3.51094 2.64154L3.53302 2.62558L3.57742 2.59341L3.62524 2.56008C3.65758 2.53913 3.68919 2.5174 3.72195 2.49894C3.75412 2.47919 3.78703 2.46224 3.81926 2.44484C3.8521 2.42902 3.88441 2.41299 3.917 2.3997C3.9331 2.39228 3.94945 2.38637 3.96558 2.38029C3.98144 2.37392 3.99754 2.36819 4.01385 2.3631C4.06024 2.34741 4.10766 2.33497 4.15578 2.32587C4.15757 2.3336 4.15933 2.34134 4.16147 2.34904C4.23935 2.62751 4.52822 2.79011 4.8067 2.7122L5.43156 2.53744C5.47322 2.52582 5.51343 2.5095 5.55141 2.48882C5.68641 2.52995 5.84476 2.57527 6.02177 2.62895C6.12316 2.65838 6.23067 2.69037 6.34334 2.725L6.69635 2.8324L7.07442 2.95218C7.20393 2.99349 7.33598 3.03979 7.46964 3.08563C7.53637 3.10855 7.60359 3.13239 7.6706 3.15661C7.73806 3.17968 7.80493 3.20411 7.8719 3.229C8.0056 3.27593 8.13909 3.32568 8.26305 3.38003C8.32364 3.40452 8.38339 3.43103 8.4422 3.45952C8.49831 3.48676 8.55115 3.51457 8.59447 3.54207C8.63788 3.56928 8.6735 3.59624 8.69171 3.61554C8.70152 3.62521 8.70486 3.63231 8.70352 3.63488C8.70654 3.63783 8.6967 3.63136 8.69055 3.62665C8.68401 3.6217 8.6778 3.61633 8.67195 3.61058L8.69097 3.63294L8.70148 3.64521L8.70412 3.64827C8.71101 3.65558 8.6587 3.60092 8.67919 3.62254L8.67329 3.61709C8.64221 3.58661 8.63317 3.57575 8.62878 3.57571C8.62488 3.57575 8.62685 3.58622 8.63015 3.60176C8.63725 3.63301 8.64998 3.68459 8.66186 3.74235C8.68654 3.85974 8.70929 4.00346 8.72662 4.15298C8.76272 4.45374 8.78322 4.78002 8.8104 5.10251L8.84953 5.58682C8.86542 5.74724 8.87582 5.90724 8.89199 6.06449C8.90697 6.22189 8.92061 6.37738 8.93316 6.53L8.95116 6.75668L8.97127 6.97817L9.0072 7.40409C9.0181 7.54186 9.03216 7.67493 9.04306 7.80297C9.06004 8.00761 9.07885 8.19844 9.09573 8.37331C8.91534 8.4438 8.73372 8.53714 8.5558 8.65168L8.15888 8.25476C8.15621 8.25209 8.15326 8.24984 8.15055 8.24724C8.52806 7.4481 8.3868 6.46478 7.72604 5.80405L7.6135 5.66174C7.62008 5.65584 7.62683 5.65028 7.63315 5.64399C7.82121 5.45594 7.82117 5.15067 7.63301 4.96252C7.46546 4.79496 7.20523 4.777 7.01743 4.90778L6.96947 4.84714C6.07313 3.95079 4.61967 3.95062 3.72297 4.84728C2.82663 5.74362 2.82677 7.19709 3.72315 8.09346L3.78456 8.14198L3.78453 8.14202C3.65835 8.32933 3.67815 8.58593 3.84387 8.75166C4.03203 8.93982 4.33729 8.93985 4.52534 8.7518C4.52991 8.74723 4.53388 8.74227 4.53824 8.73753L4.68031 8.84978C5.3229 9.49237 6.27032 9.64347 7.0568 9.30425C7.06499 9.31353 7.0729 9.32298 7.08176 9.33188L7.48079 9.7309C6.96044 10.546 6.89083 11.4379 7.37535 11.9224L10.7775 15.9839L14.82 11.9414L11.3543 9.03839Z" fill="#E2AF8D"/>
<path d="M4.69404 7.42729L4.92105 7.65429L4.92069 7.65464C4.92104 7.65499 4.92168 7.65492 4.92168 7.65492C5.01083 7.74408 5.01083 7.88875 4.92168 7.9779C4.83252 8.06706 4.68785 8.06706 4.59852 7.97773L4.59806 7.97727L4.59736 7.97797L4.37036 7.75097L4.37229 7.74904C4.29681 7.65914 4.30019 7.52562 4.38477 7.44103C4.46911 7.35669 4.60263 7.35332 4.69242 7.4289L4.69404 7.42729ZM6.62591 5.49538C6.53612 5.41979 6.40249 5.42327 6.31791 5.50786C6.23367 5.59209 6.23019 5.72572 6.30578 5.81551L6.30385 5.81745L6.53085 6.04445L6.53155 6.04375L6.53201 6.0442C6.62134 6.13354 6.76601 6.13354 6.85481 6.04473C6.89763 6.00189 6.92168 5.94381 6.92168 5.88324C6.92168 5.82268 6.89763 5.76459 6.85481 5.72175L6.85418 5.72112L6.62718 5.49411L6.62591 5.49538Z" fill="#2B3B47"/>
<path d="M4.50707 7.63222L4.56364 7.68879L4.56378 7.68893C4.57422 7.69964 4.58001 7.71403 4.57991 7.72899C4.57981 7.74395 4.57383 7.75826 4.56325 7.76884C4.55268 7.77941 4.53836 7.7854 4.52341 7.7855C4.50845 7.7856 4.49406 7.7798 4.48334 7.76936L4.4832 7.76922L4.48313 7.76929L4.42656 7.71273L4.42695 7.71234C4.4178 7.70148 4.41305 7.68759 4.41362 7.6734C4.41419 7.65921 4.42005 7.64575 4.43004 7.63566C4.4401 7.62565 4.45356 7.61978 4.46775 7.61923C4.48193 7.61868 4.4958 7.62348 4.50661 7.63268L4.50707 7.63222ZM6.45199 5.6873C6.44117 5.67811 6.4273 5.67332 6.41312 5.67387C6.39894 5.67442 6.38548 5.68029 6.37542 5.69029C6.36542 5.70038 6.35956 5.71384 6.35899 5.72803C6.35842 5.74222 6.36317 5.75611 6.37232 5.76697L6.37193 5.76736L6.4285 5.82392L6.42861 5.82385L6.42875 5.82399C6.434 5.82939 6.44028 5.83369 6.44721 5.83664C6.45414 5.83959 6.46159 5.84113 6.46912 5.84118C6.47665 5.84123 6.48412 5.83979 6.49109 5.83693C6.49806 5.83407 6.50439 5.82985 6.50972 5.82452C6.51504 5.8192 6.51926 5.81287 6.52212 5.8059C6.52498 5.79893 6.52643 5.79146 6.52638 5.78393C6.52633 5.7764 6.52478 5.76895 6.52183 5.76202C6.51888 5.75509 6.51458 5.74881 6.50919 5.74355L6.50904 5.74341L6.45248 5.68685L6.45199 5.6873Z" fill="white"/>
<path d="M7.67993 8.56117C8.02766 8.21344 8.24503 7.78485 8.33243 7.33594C8.332 7.88596 8.12205 8.43587 7.70239 8.85553C6.86251 9.69541 5.50024 9.69562 4.66021 8.8556L4.57812 8.78381C5.50948 9.47987 6.83382 9.40727 7.67993 8.56117Z" fill="#CE8E63"/>
<path d="M4.46097 7.11688L4.44135 7.12946C4.39777 7.15851 4.35572 7.18981 4.31539 7.22323C4.28993 7.24488 4.26293 7.26844 4.23875 7.29322C4.2262 7.30549 4.21442 7.31801 4.20366 7.33063C4.19195 7.34304 4.18267 7.35566 4.17318 7.36782C4.16288 7.37995 4.15676 7.3919 4.14885 7.40315C4.14077 7.41447 4.13736 7.42485 4.13159 7.43462C4.12554 7.44453 4.12484 7.45258 4.12125 7.46028C4.11763 7.46805 4.11668 7.47417 4.11609 7.47902C4.11422 7.48897 4.11261 7.49481 4.11261 7.49481L4.1047 7.5229C4.09877 7.54406 4.08527 7.5623 4.06675 7.57413C4.04824 7.58596 4.02602 7.59057 4.00433 7.58706C3.98263 7.58355 3.963 7.57218 3.94916 7.55511C3.93532 7.53804 3.92825 7.51647 3.9293 7.49453L3.93102 7.45708C3.93152 7.44492 3.93278 7.43047 3.93672 7.4156C3.94052 7.4008 3.94312 7.38174 3.94994 7.36529C3.95648 7.34863 3.96238 7.32841 3.97156 7.31098C3.98056 7.29336 3.98928 7.27311 4.00056 7.25571C4.01143 7.23757 4.02264 7.21855 4.0353 7.20132C4.0475 7.18322 4.0605 7.16574 4.07397 7.14905C4.10051 7.11484 4.12895 7.08355 4.15602 7.05458C4.18081 7.02868 4.20638 7.00354 4.2327 6.97921C4.25139 6.96188 4.2705 6.94502 4.29 6.92862L4.31345 6.90946C4.32689 6.89834 4.34246 6.89009 4.35921 6.88523C4.37595 6.88036 4.39352 6.87898 4.41082 6.88116C4.42812 6.88335 4.44479 6.88906 4.4598 6.89794C4.47481 6.90682 4.48784 6.91868 4.49808 6.93279C4.50833 6.94691 4.51557 6.96297 4.51937 6.97999C4.52317 6.99701 4.52344 7.01463 4.52016 7.03175C4.51688 7.04888 4.51013 7.06516 4.50032 7.07957C4.49051 7.09399 4.47785 7.10624 4.46311 7.11558L4.46097 7.11688ZM5.78067 5.44548C5.77163 5.45958 5.76546 5.47533 5.76251 5.49182C5.75956 5.50831 5.75989 5.52521 5.76347 5.54158C5.76706 5.55794 5.77383 5.57343 5.7834 5.58718C5.79298 5.60092 5.80516 5.61265 5.81927 5.62168C5.83337 5.63072 5.84912 5.63689 5.8656 5.63984C5.88209 5.64279 5.899 5.64246 5.91536 5.63887C5.93173 5.63529 5.94722 5.62852 5.96097 5.61894C5.97471 5.60937 5.98643 5.59718 5.99547 5.58308L5.99677 5.58108L6.00936 5.56146C6.03841 5.51788 6.0697 5.47583 6.10312 5.43549C6.12477 5.41004 6.14833 5.38304 6.17311 5.35885C6.18538 5.3463 6.1979 5.33453 6.21052 5.32377C6.22293 5.31206 6.23555 5.30278 6.24772 5.29329C6.25985 5.28299 6.2718 5.27687 6.28305 5.26896C6.29437 5.26087 6.30474 5.25746 6.31451 5.2517C6.32443 5.24565 6.33248 5.24495 6.34018 5.24136C6.34795 5.23774 6.35406 5.23679 6.35892 5.23619C6.36886 5.23433 6.3747 5.23271 6.3747 5.23271L6.40283 5.2248C6.42393 5.21882 6.4421 5.20529 6.45388 5.18679C6.46567 5.16828 6.47024 5.14609 6.46673 5.12444C6.46321 5.10278 6.45187 5.08318 6.43484 5.06934C6.41781 5.05551 6.3963 5.04841 6.37438 5.04941L6.33694 5.05113C6.32478 5.05162 6.31033 5.05289 6.29546 5.05683C6.28066 5.06062 6.2616 5.06323 6.24515 5.07005C6.22849 5.07658 6.20827 5.08249 6.19083 5.09167C6.17322 5.10067 6.15297 5.10939 6.13557 5.12067C6.11743 5.13153 6.09841 5.14275 6.08118 5.1554C6.06308 5.1676 6.0456 5.18061 6.0289 5.19408C5.9947 5.22062 5.96341 5.24906 5.93444 5.27613C5.90854 5.30092 5.8834 5.32649 5.85906 5.35281C5.84174 5.3715 5.82487 5.39061 5.80847 5.41011L5.78931 5.43356C5.78621 5.43737 5.78333 5.44135 5.78067 5.44548Z" fill="#8E6049"/>
<path d="M6.07791 7.64463C6.04588 7.64463 6.01361 7.64108 5.98158 7.63381C5.96999 7.63118 5.95904 7.62629 5.94934 7.61943C5.93964 7.61256 5.93139 7.60386 5.92506 7.59381C5.91873 7.58376 5.91443 7.57256 5.91243 7.56085C5.91043 7.54914 5.91075 7.53715 5.91338 7.52556C5.91601 7.51397 5.92089 7.50302 5.92775 7.49332C5.93462 7.48362 5.94332 7.47537 5.95337 7.46904C5.96343 7.46271 5.97463 7.45841 5.98634 7.45641C5.99805 7.45441 6.01004 7.45473 6.02162 7.45736C6.10779 7.47697 6.19758 7.45015 6.26195 7.38588C6.32643 7.32144 6.35332 7.23144 6.33381 7.14506C6.32853 7.12166 6.33276 7.09711 6.34558 7.07682C6.35839 7.05653 6.37875 7.04217 6.40215 7.03689C6.42556 7.03161 6.45011 7.03584 6.4704 7.04866C6.49068 7.06147 6.50505 7.08182 6.51033 7.10523C6.54359 7.25254 6.49855 7.40533 6.38985 7.51389C6.30488 7.59872 6.19297 7.64463 6.07791 7.64463ZM6.65806 8.37304C6.96933 8.33057 7.20699 8.09291 7.24945 7.78167C7.25106 7.7699 7.25033 7.75793 7.24731 7.74643C7.24429 7.73494 7.23904 7.72416 7.23185 7.7147C7.22466 7.70524 7.21568 7.69729 7.20542 7.6913C7.19515 7.68531 7.18381 7.6814 7.17204 7.67979C7.16027 7.67818 7.14829 7.67891 7.1368 7.68193C7.12531 7.68495 7.11453 7.69021 7.10507 7.6974C7.0956 7.70458 7.08765 7.71357 7.08166 7.72383C7.07567 7.73409 7.07176 7.74543 7.07016 7.7572C7.03831 7.99057 6.86695 8.16196 6.63359 8.19377C6.62182 8.19538 6.61048 8.19929 6.60022 8.20528C6.58996 8.21127 6.58098 8.21922 6.57379 8.22868C6.5666 8.23814 6.56135 8.24892 6.55833 8.26041C6.55531 8.2719 6.55458 8.28387 6.55619 8.29564C6.5578 8.30741 6.56171 8.31875 6.5677 8.32901C6.57368 8.33927 6.58163 8.34825 6.59109 8.35543C6.60055 8.36262 6.61133 8.36788 6.62282 8.3709C6.63431 8.37392 6.64629 8.37464 6.65806 8.37304Z" fill="#CE8E63"/>
<path d="M7.04052 4.91762L6.38999 4.26709C5.76003 3.63713 4.6609 3.05132 3.54824 4.05865L3.54564 4.05605L3.04857 4.55312C1.89917 5.70252 2.34045 6.78558 3.0525 7.49763L3.76456 8.20969C3.8914 8.33653 4.03178 8.24629 3.90571 8.00107C3.7178 7.63555 2.95129 6.46464 3.703 6.40631C4.24131 6.36455 5.89236 5.47235 5.58235 5.44127C5.48135 5.43115 5.37292 5.41297 5.2599 5.38868C6.33248 4.67866 6.77601 5.0277 6.92771 5.07259C7.18445 5.14856 7.04052 4.91762 7.04052 4.91762Z" fill="#332A23"/>
<path d="M3.5615 7.90155C3.57613 8.00846 3.45315 8.05666 3.3745 7.9828C2.14477 6.82792 1.85804 5.36559 3.04868 4.17499C4.28867 2.93499 5.8932 3.05881 6.91913 4.57964C6.97939 4.66894 6.93924 4.78186 6.83297 4.76438C6.37678 4.68933 5.58907 4.6876 4.65405 5.62265C3.72041 6.55626 3.50093 7.45904 3.5615 7.90155Z" fill="#C2CACE"/>
<path d="M17.1894 17.6348C17.4215 17.6348 17.6113 17.4449 17.6113 17.2129V11.9905C16.4879 12.0429 15.5474 12.0273 15.2597 11.8613C14.2049 11.2529 15.3711 10.7304 14.9479 10.7304C13.9635 10.7304 13.6765 11.5244 13.0507 11.4246C11.7851 11.2226 12.9655 10.0619 12.6534 10.0619C11.2226 10.0619 10.2985 11.8451 9.39446 11.4863C8.28704 11.0469 9.60688 9.55127 9.25384 9.55127C7.07415 9.55127 5.9701 10.7277 3.91027 11.5517C2.94639 11.9373 1.35634 11.8334 0.341309 11.7095V17.2129C0.341309 17.4449 0.531152 17.6347 0.763184 17.6347H17.1894V17.6348Z" fill="#59CAFC"/>
</svg>
