<svg width="22" height="23" viewBox="0 0 22 23" fill="none" xmlns="http://www.w3.org/2000/svg">
<g clip-path="url(#clip0_106_3389)">
<g clip-path="url(#clip1_106_3389)">
<path d="M5.54492 17.2424C5.54492 17.2424 6.51773 15.8571 6.55383 15.8021C6.58992 15.7471 8.04742 12.4711 8.04742 12.4711L8.69539 12.7238L8.57508 12.9953C8.57508 12.9953 8.41523 13.1088 8.27086 13.4336C8.12648 13.7585 7.31352 15.9189 7.31352 15.9189L10.6204 14.8481L14.5804 14.2724C14.5804 14.2724 16.5432 13.1569 16.9024 12.9403C17.2616 12.7238 19.3138 10.4739 19.3138 10.4739L20.376 8.34955L20.6098 5.95533L20.2815 3.80518C20.2815 3.80518 21.6548 5.06846 21.2148 7.80643C20.6579 11.268 18.1193 14.0953 14.0957 15.1077C12.2137 15.5821 9.95695 15.735 8.01477 16.5342C7.00758 16.9485 5.80273 18.2856 5.80273 18.2856L5.54492 17.2424Z" fill="#024AB1"/>
<path d="M8.8001 7.93535L8.434 10.4585L8.14697 12.2924L10.1321 13.1019C10.1321 13.1019 8.73478 10.7593 9.55463 8.50426C10.5807 5.68379 13.3668 3.25348 15.651 3.08504C17.2306 2.96816 17.6568 3.32223 18.4406 3.70035C19.4563 4.18848 20.0407 5.35035 20.0407 5.35035C20.0407 5.35035 19.8104 3.81895 19.7537 3.74848C19.697 3.67801 17.2151 2.25488 17.2151 2.25488C17.2151 2.25488 14.5803 2.32363 14.5098 2.3666C14.4393 2.40957 12.2118 3.45285 12.1688 3.56457C12.1259 3.67801 10.0393 5.89004 9.81416 6.21488C9.589 6.53973 8.8001 7.93535 8.8001 7.93535Z" fill="#024AB1"/>
<path d="M18.1636 12.0295C18.0983 12.0295 18.033 12.0054 17.9831 11.9555L11.3471 5.48617C11.2981 5.43852 11.27 5.37338 11.2691 5.30505C11.2681 5.23673 11.2943 5.17082 11.3419 5.1218C11.4416 5.02039 11.6049 5.01867 11.7063 5.11664L18.3424 11.5877C18.4438 11.6874 18.4472 11.8507 18.3475 11.9521C18.2977 12.0037 18.2306 12.0295 18.1636 12.0295Z" fill="#B7CDD2"/>
<path d="M19.2121 10.7987C19.1468 10.7987 19.0798 10.7729 19.03 10.7231L12.5761 4.28809C12.4746 4.1884 12.4746 4.02512 12.5761 3.92371C12.6775 3.8223 12.839 3.8223 12.9404 3.92371L19.3926 10.3587C19.494 10.4584 19.494 10.6217 19.3926 10.7231C19.3445 10.7729 19.2775 10.7987 19.2121 10.7987Z" fill="#B7CDD2"/>
<path d="M19.9098 9.27243C19.8427 9.27243 19.7757 9.24664 19.7259 9.19508L14.1365 3.45789C14.0368 3.35649 14.0385 3.19321 14.1416 3.09352C14.243 2.99383 14.4063 2.99555 14.506 3.09867L20.0954 8.83414C20.1951 8.93555 20.1934 9.09883 20.0902 9.19852C20.0404 9.24836 19.9751 9.27243 19.9098 9.27243Z" fill="#B7CDD2"/>
<path d="M20.2969 7.28721C20.2316 7.28721 20.1662 7.26315 20.1164 7.21331L16.0155 3.16737C15.9912 3.14366 15.972 3.11538 15.9587 3.08417C15.9455 3.05296 15.9386 3.01943 15.9385 2.98554C15.9383 2.95165 15.9449 2.91806 15.9578 2.88672C15.9707 2.85539 15.9897 2.82693 16.0137 2.80299C16.1134 2.70159 16.2767 2.69987 16.3781 2.80127L20.4773 6.84549C20.5787 6.94518 20.5805 7.10846 20.4791 7.20987C20.4292 7.26143 20.3639 7.28721 20.2969 7.28721Z" fill="#B7CDD2"/>
<path d="M16.9213 13.2117C16.856 13.2117 16.7907 13.1877 16.7409 13.1378L10.2801 6.80765C10.234 6.75923 10.2085 6.69479 10.209 6.62793C10.2095 6.56108 10.236 6.49703 10.2828 6.44931C10.3296 6.40159 10.3931 6.37393 10.46 6.37216C10.5268 6.37039 10.5917 6.39466 10.641 6.43984L17.1018 12.77C17.1383 12.8059 17.1633 12.8518 17.1736 12.9019C17.1839 12.952 17.1791 13.004 17.1598 13.0514C17.1404 13.0988 17.1074 13.1393 17.0649 13.1679C17.0225 13.1964 16.9725 13.2117 16.9213 13.2117Z" fill="#B7CDD2"/>
<path d="M15.204 14.0883C15.137 14.0883 15.07 14.0625 15.0201 14.011L9.48574 8.3666C9.44056 8.31731 9.41629 8.2524 9.41806 8.18557C9.41983 8.11873 9.44749 8.0552 9.49521 8.00837C9.54293 7.96154 9.60697 7.93508 9.67383 7.93458C9.74069 7.93407 9.80513 7.95956 9.85355 8.00566L15.3879 13.65C15.4235 13.6863 15.4475 13.7322 15.457 13.7821C15.4666 13.8319 15.4612 13.8835 15.4415 13.9303C15.4219 13.9771 15.3889 14.017 15.3466 14.0451C15.3044 14.0733 15.2548 14.0883 15.204 14.0883Z" fill="#B7CDD2"/>
<path d="M13.439 14.4942C13.3737 14.4942 13.3101 14.4701 13.2585 14.4203L9.04928 10.321C9.00282 10.2729 8.97692 10.2085 8.97705 10.1416C8.97719 10.0746 9.00335 10.0104 9.05 9.96239C9.09666 9.91439 9.16015 9.88642 9.22705 9.8844C9.29395 9.88237 9.35902 9.90644 9.4085 9.95152L13.6194 14.0507C13.7208 14.1504 13.7243 14.3137 13.6246 14.4151C13.573 14.4684 13.506 14.4942 13.439 14.4942Z" fill="#B7CDD2"/>
<path d="M9.72489 12.471C9.67372 12.4709 9.62372 12.4557 9.58126 12.4271C9.5388 12.3986 9.50579 12.358 9.48644 12.3107C9.46708 12.2633 9.46226 12.2112 9.47259 12.1611C9.48291 12.111 9.50792 12.0651 9.54442 12.0293L18.1674 3.5541C18.2167 3.50892 18.2816 3.48465 18.3484 3.48642C18.4152 3.48819 18.4788 3.51585 18.5256 3.56357C18.5724 3.61129 18.5989 3.67533 18.5994 3.74219C18.5999 3.80905 18.5744 3.87349 18.5283 3.92191L9.90535 12.3971C9.85551 12.4469 9.7902 12.471 9.72489 12.471Z" fill="#B7CDD2"/>
<path d="M9.28475 10.9445C9.21944 10.9445 9.15584 10.9205 9.106 10.8724C9.00287 10.7727 9.00115 10.6094 9.10084 10.508C11.9488 7.5672 16.2474 3.1122 16.4812 2.82173C16.5169 2.76591 16.5728 2.72603 16.6372 2.71039C16.7017 2.69475 16.7696 2.70457 16.827 2.73779C16.8844 2.77102 16.9267 2.82509 16.9452 2.88875C16.9637 2.95241 16.9569 3.02075 16.9263 3.07955C16.904 3.12423 16.8352 3.26173 9.47209 10.8655C9.41881 10.9188 9.35178 10.9445 9.28475 10.9445Z" fill="#B7CDD2"/>
<path d="M9.66984 8.42677C9.61948 8.42675 9.57023 8.41199 9.52817 8.3843C9.48611 8.35662 9.45307 8.31721 9.43315 8.27097C9.41322 8.22472 9.40728 8.17365 9.41605 8.12406C9.42482 8.07447 9.44792 8.02853 9.4825 7.99193L14.1231 3.09349C14.2211 2.99036 14.3998 2.99552 14.503 3.09349C14.6061 3.19146 14.6061 3.33411 14.5081 3.43724L9.85719 8.34599C9.80734 8.39927 9.73859 8.42677 9.66984 8.42677Z" fill="#B7CDD2"/>
<path d="M10.5701 13.9422C10.5194 13.9422 10.4697 13.9271 10.4275 13.899C10.3852 13.8709 10.3522 13.831 10.3326 13.7842C10.3129 13.7374 10.3076 13.6858 10.3171 13.6359C10.3266 13.5861 10.3507 13.5402 10.3862 13.5039L19.2257 4.4358C19.3254 4.3344 19.511 4.30518 19.6124 4.40487C19.7139 4.50455 19.6932 4.69534 19.5935 4.79674L10.7557 13.8649C10.7042 13.9164 10.6371 13.9422 10.5701 13.9422Z" fill="#B7CDD2"/>
<path d="M12.2614 14.5853C12.196 14.5853 12.1307 14.5612 12.0809 14.5114C12.0567 14.4877 12.0374 14.4594 12.0242 14.4282C12.011 14.397 12.0041 14.3634 12.0039 14.3295C12.0037 14.2956 12.0103 14.262 12.0232 14.2307C12.0362 14.1994 12.0552 14.1709 12.0792 14.147L20.2054 5.91073C20.2535 5.86223 20.3189 5.8348 20.3872 5.83448C20.4556 5.83415 20.5212 5.86096 20.5698 5.90902C20.6712 6.0087 20.6729 6.17198 20.5715 6.27339L12.4453 14.5096C12.3954 14.5595 12.3284 14.5853 12.2614 14.5853Z" fill="#B7CDD2"/>
<path d="M14.6353 14.3254C14.5751 14.3254 14.515 14.3047 14.4669 14.2635C14.3603 14.1707 14.3465 14.0126 14.4359 13.906C14.5287 13.796 18.6933 9.62975 19.9669 8.35444C19.9907 8.33032 20.019 8.31118 20.0503 8.29811C20.0816 8.28505 20.1151 8.27832 20.149 8.27832C20.1829 8.27832 20.2165 8.28505 20.2478 8.29811C20.279 8.31118 20.3074 8.33032 20.3312 8.35444C20.4326 8.45584 20.4326 8.61912 20.3312 8.71881C18.8462 10.2038 14.9636 14.0899 14.8278 14.2394C14.7762 14.2962 14.7058 14.3254 14.6353 14.3254Z" fill="#B7CDD2"/>
<path d="M6.89027 15.8365C6.89027 15.8365 7.89746 12.98 8.17074 12.8889C8.29965 12.8459 8.45949 13.1897 8.96137 13.6795C9.50793 14.2123 9.82418 14.3979 9.78121 14.6145C9.71246 14.9583 6.89027 15.8365 6.89027 15.8365ZM20.2071 6.73576C20.0886 9.58544 17.9298 12.607 15.0561 13.7122C13.2823 14.3945 11.2181 14.2415 10.0064 12.9611C8.8359 11.7253 8.69496 10.4603 8.99918 9.00279C9.52855 6.47794 11.8471 3.67982 13.9801 2.93044C16.1131 2.18107 17.5551 2.53513 18.8459 3.49763C19.8514 4.25044 20.2536 5.62716 20.2071 6.73576ZM20.2295 3.72966C19.5471 2.91497 18.057 1.41622 15.1764 1.83732C12.5793 2.21716 10.4292 4.28826 9.16762 6.50029C8.16387 8.26373 8.06418 9.65247 7.76512 11.0928C7.47465 12.4901 6.40043 15.1628 6.17527 15.6097C5.63043 16.6873 5.09074 16.8661 5.01855 17.0225L5.43449 18.3665C5.43449 18.3665 5.8023 17.7083 6.67543 16.8369C7.54684 15.9654 9.50965 15.5426 10.345 15.3725C11.3006 15.1765 12.8182 15.1886 15.2829 14.2965C18.124 13.2687 20.8087 9.95154 20.9221 7.10701C20.9875 5.42951 20.9359 4.57357 20.2295 3.72966Z" fill="#1F87FF"/>
<path d="M5.21488 16.6633C4.95878 16.7062 2.34628 19.525 2.34628 19.525C2.34628 19.525 1.36144 20.0097 1.17753 20.1369C0.993626 20.264 0.974719 20.5958 1.15863 20.7986C1.34253 21.0014 2.44597 22.0859 2.59206 22.2148C2.73816 22.3437 3.13863 22.3351 3.23488 22.0498C3.31738 21.8075 3.70238 21.1251 3.70238 21.1251C3.70238 21.1251 6.56409 18.162 6.56409 18.0142C6.56409 17.8664 5.32488 16.6461 5.21488 16.6633Z" fill="#5F6369"/>
<path d="M2.02288 20.3755C2.11226 20.8499 2.75163 20.855 3.12288 20.5886C3.40819 20.3824 3.26897 20.1125 3.46835 19.8994C3.70554 19.645 3.92382 19.7894 4.14382 19.5333C4.36382 19.2772 4.28991 19.1071 4.42913 18.9472C4.62679 18.7203 4.83304 18.8664 5.03757 18.6241C5.24382 18.3817 5.12522 18.1841 5.27991 18.0294C5.4346 17.8747 5.79382 17.9486 5.70616 17.5533C5.61851 17.158 5.08226 17.2078 4.83991 17.3986C4.64913 17.5499 4.64913 17.8094 4.45147 17.9847C4.27616 18.1394 4.07679 18.0878 3.84304 18.301C3.60757 18.5141 3.6746 18.7857 3.51304 18.961C3.35147 19.1363 3.13147 19.0057 2.88226 19.2841C2.62272 19.5746 2.75679 19.731 2.50757 19.9149C2.33913 20.0369 1.94897 19.9871 2.02288 20.3755Z" fill="#858686"/>
<path d="M2.15348 2.54708L0.708008 4.87083C0.708008 4.87083 0.708008 6.58958 2.27035 7.46786C3.87738 8.37193 6.0241 7.73427 6.80098 6.12036C7.56238 4.53911 6.84051 2.68286 6.05848 2.07786C5.17332 1.39208 2.15348 2.54708 2.15348 2.54708Z" fill="#B6D401"/>
<path d="M2.59881 1.5173C1.43178 2.07418 0.751155 3.11918 0.653186 4.17277C0.62053 4.52855 0.653186 4.83965 0.653186 4.83965C0.653186 4.83965 1.13444 6.50511 3.25365 6.64433C5.53272 6.79558 6.59319 5.3759 6.66022 3.81871C6.7135 2.58293 6.026 2.01402 6.026 2.01402C6.026 2.01402 5.7149 1.59465 5.02569 1.3798C4.73178 1.28527 3.70569 0.991365 2.59881 1.5173Z" fill="#D5F100"/>
<path d="M1.29748 4.19373C2.05201 5.09951 3.38404 5.8867 3.61951 6.76154C3.82404 7.52467 3.50091 7.87873 3.50091 7.87873C3.50091 7.87873 3.59716 7.93201 3.70544 7.94404C3.81373 7.95436 3.9306 7.90107 3.9306 7.90107C3.9306 7.90107 4.16779 7.61061 4.08185 6.78389C3.99591 5.95717 3.20013 5.30061 2.66388 4.88123C2.21873 4.53404 1.68763 4.11123 1.49169 3.77436C1.1806 3.23811 1.19091 2.62451 1.19091 2.62451C1.19091 2.62451 1.03966 2.67779 0.965757 2.89264C0.89357 3.09545 0.814507 3.61451 1.29748 4.19373Z" fill="white"/>
<path d="M4.54443 1.22711C4.54443 1.22711 4.64068 1.44196 5.04975 1.91461C5.43303 2.35805 6.00021 2.98196 6.39381 3.69868C6.69459 4.24696 7.02803 5.53602 7.02803 5.53602C7.02803 5.53602 7.15693 5.08399 7.15693 4.78321C7.15693 4.62164 6.88881 3.89118 6.65162 3.43914C6.37318 2.90633 5.83521 2.27899 5.60834 1.98852C5.46912 1.80805 5.04975 1.31133 5.04975 1.31133C5.04975 1.31133 4.56506 1.17383 4.54443 1.22711Z" fill="white"/>
</g>
</g>
<defs>
<clipPath id="clip0_106_3389">
<rect width="22" height="22" fill="white" transform="translate(0 0.5)"/>
</clipPath>
<clipPath id="clip1_106_3389">
<rect width="22" height="22" fill="white" transform="translate(0 0.939941)"/>
</clipPath>
</defs>
</svg>
