<svg width="21" height="20" viewBox="0 0 21 20" fill="none" xmlns="http://www.w3.org/2000/svg">
<g clip-path="url(#clip0_4755_83080)">
<path d="M10.3508 0.702637C5.21551 0.702637 1.06055 4.85759 1.06055 9.99286C1.06055 15.1282 5.21551 19.2831 10.3508 19.2831C15.4861 19.2831 19.6411 15.1282 19.6411 9.99286C19.6411 4.85755 15.4861 0.702592 10.3508 0.702637Z" fill="#5A3392"/>
<path d="M10.3384 0.693848C8.94859 0.693848 7.63457 1.0048 6.44997 1.54821C6.43863 1.67696 6.37879 2.3821 6.38821 3.31286C6.39847 4.3323 6.52418 5.53694 6.83286 6.14917C6.87816 6.23904 6.95929 6.34083 7.02783 6.43821C9.8453 5.15235 11.5088 4.62059 13.1901 4.64402C14.7281 4.66544 16.2718 5.15253 18.6832 5.85887C17.1518 2.79806 13.9972 0.693892 10.3384 0.693848Z" fill="white"/>
<path d="M5.74369 1.94043C4.42718 2.6947 3.31742 3.76086 2.5083 5.04056C2.91935 7.98196 3.43461 9.80047 4.45235 11.1055C5.46027 12.3979 7.01795 13.2622 9.5997 14.2363C10.0276 13.1787 10.0751 11.8842 9.88558 9.74023C9.69752 9.62282 9.1559 9.28089 8.44777 8.7431C7.6034 8.10196 6.6559 7.30262 6.229 6.45601C5.80211 5.60932 5.7237 4.37443 5.71299 3.31964C5.70737 2.7715 5.72437 2.29231 5.74369 1.94043Z" fill="#EE746C"/>
<path d="M13.1764 5.35422C11.698 5.3328 10.1835 5.79985 7.53955 6.99561C7.93333 7.40372 8.41373 7.82026 8.87972 8.17401C9.62716 8.74161 10.1907 9.08648 10.2924 9.14891C10.4238 9.11107 11.0442 8.93092 11.984 8.72773C13.0175 8.5046 14.2489 8.29151 15.1622 8.36943C16.0725 8.44708 17.2434 8.86683 18.2205 9.26057C18.8672 9.521 19.3233 9.72749 19.6262 9.8686C19.6114 8.75067 19.3954 7.68455 19.0196 6.69595C16.2534 5.89598 14.6748 5.3752 13.1764 5.35431V5.35422H13.1764Z" fill="white"/>
<path d="M1.94513 6.04647C1.38368 7.24451 1.06055 8.57691 1.06055 9.98866C1.06055 13.5414 3.04837 16.6236 5.97246 18.19C7.65682 16.8013 8.69746 15.8597 9.2871 14.8824C6.6983 13.9007 5.00844 12.9858 3.88609 11.5466C2.8688 10.2422 2.34408 8.50658 1.94508 6.04639L1.94513 6.04647Z" fill="#EE746C"/>
<path d="M14.4667 9.07814C13.7656 9.11598 12.8925 9.26651 12.1377 9.42948C11.3994 9.58889 10.8902 9.72442 10.6065 9.80185C10.8042 12.119 10.7402 13.5897 10.1087 14.8626C9.50411 16.0813 8.39997 17.0864 6.67383 18.5164C7.66422 18.9438 8.74604 19.1944 9.87995 19.2513C11.8755 17.3836 13.0732 16.1372 13.7555 14.7469C14.4391 13.3539 14.6427 11.7418 14.6285 9.07935C14.5714 9.07935 14.5264 9.07221 14.4667 9.07935L14.4667 9.07814Z" fill="#29A3EC"/>
<path d="M15.3452 9.12109C15.3568 11.7977 15.1431 13.5371 14.394 15.0634C13.7165 16.4439 12.5933 17.6521 10.916 19.247C15.5641 18.9672 19.2767 15.283 19.6 10.6467C19.5234 10.6089 18.8558 10.2807 17.9572 9.91883C17.0994 9.57324 16.0793 9.23315 15.3452 9.12109Z" fill="#29A3EC"/>
<path d="M10.2336 9.27832C10.0364 9.27877 9.87693 9.43906 9.87738 9.63622C9.87742 9.64849 9.87809 9.66081 9.87939 9.67308C10.096 12.0768 10.0273 13.4182 9.46659 14.5485C8.90587 15.6788 7.80003 16.6733 5.84349 18.2817C5.691 18.4069 5.66882 18.632 5.794 18.7845C5.91918 18.937 6.14423 18.9592 6.29676 18.834C8.26142 17.2189 9.45624 16.1776 10.1067 14.8664C10.7572 13.5553 10.8105 12.0494 10.5906 9.60891C10.5767 9.4221 10.4209 9.27787 10.2336 9.27841L10.2336 9.27832Z" fill="#5A3392"/>
<path d="M10.5754 1.08789C9.30828 1.08789 8.10949 1.37037 7.02936 1.86572C7.01883 1.98358 6.96448 2.62749 6.97309 3.47628C6.98255 4.40602 7.09711 5.50458 7.37861 6.06295C7.66011 6.62122 8.4761 7.3729 9.22073 7.93827C9.90922 8.46106 10.4324 8.77764 10.5217 8.83253C10.6422 8.79826 11.2114 8.63252 12.0735 8.44607C13.0215 8.24132 14.1511 8.0459 14.9888 8.11731C15.8238 8.18871 16.8966 8.56861 17.7929 8.92964C18.3863 9.16847 18.8059 9.35917 19.0837 9.48867C19.0229 4.83493 15.2438 1.08789 10.5754 1.08789Z" fill="#EBFEFF"/>
<path d="M5.73204 2.50049C3.1339 3.98899 1.38135 6.78241 1.38135 9.99474C1.38135 13.2946 3.22766 16.1585 5.94361 17.6135C7.68349 16.1792 8.68691 15.2655 9.19623 14.2389C9.71251 13.1983 9.78056 11.9584 9.58689 9.76621C9.41142 9.65741 8.90326 9.33788 8.24351 8.837C7.45764 8.24022 6.58101 7.49107 6.1837 6.70324C5.78639 5.91515 5.71338 4.76584 5.70348 3.78416C5.69808 3.27386 5.71428 2.82795 5.73204 2.50049Z" fill="#FB9761"/>
<path d="M14.3528 9.5284C13.7121 9.56195 12.912 9.69485 12.2235 9.84372C11.5468 9.98996 11.0824 10.1157 10.8269 10.1871C11.0077 12.3015 10.9541 13.643 10.3779 14.8044C9.82681 15.9152 8.82027 16.8315 7.24756 18.1345C8.27516 18.5774 9.40822 18.8238 10.5992 18.8238C15.0771 18.8238 18.7276 15.3542 19.035 10.9554C18.9668 10.9225 18.3562 10.6258 17.5354 10.2952C16.6676 9.9456 15.6007 9.58788 14.9303 9.53072C14.7621 9.51711 14.5665 9.51711 14.3529 9.53072L14.3528 9.5284Z" fill="#3CDEF6"/>
<path d="M13.1859 4.63844C11.4998 4.61492 9.84005 5.1499 6.99402 6.45276C6.81529 6.53634 6.73822 6.74911 6.82185 6.9278C6.90441 7.10429 7.11317 7.18204 7.29109 7.10265C10.1089 5.81268 11.6458 5.33112 13.1748 5.35245C14.7038 5.37387 16.2996 5.91193 19.1728 6.74006C19.3606 6.80021 19.5616 6.69672 19.6218 6.50898C19.6819 6.32115 19.5785 6.12016 19.3907 6.06C19.3837 6.05772 19.3766 6.05571 19.3695 6.05388C16.509 5.22959 14.872 4.662 13.1859 4.63844Z" fill="#5A3392"/>
<path d="M14.982 8.56552C14.7854 8.57016 14.6296 8.73278 14.6333 8.9294C14.657 11.6913 14.4511 13.3259 13.7534 14.7476C13.0557 16.1693 11.832 17.4281 9.75375 19.3678C9.60371 19.4957 9.58586 19.7212 9.71385 19.8711C9.84184 20.0211 10.0672 20.039 10.2172 19.9111C10.2253 19.9042 10.233 19.897 10.2404 19.8894C12.3284 17.9407 13.626 16.6295 14.3949 15.0628C15.1638 13.4961 15.3713 11.7236 15.3474 8.92391C15.3482 8.72676 15.189 8.56619 14.9918 8.56543C14.9885 8.56543 14.9853 8.56543 14.982 8.56552Z" fill="#5A3392"/>
<path d="M2.11999 4.63285C1.92306 4.64298 1.77164 4.81081 1.78173 5.0077C1.78235 5.01948 1.78351 5.03122 1.7853 5.04282C2.2042 8.08717 2.73146 10.0641 3.88692 11.5457C5.04233 13.0272 6.78168 13.951 9.50704 14.9666C9.69188 15.0355 9.89761 14.9415 9.96656 14.7567C10.0355 14.5718 9.94152 14.3661 9.75668 14.2972C7.07139 13.2965 5.48038 12.4272 4.45037 11.1064C3.42035 9.78555 2.90729 7.95138 2.49378 4.94661C2.47124 4.75994 2.30778 4.62276 2.11999 4.63285Z" fill="#5A3392"/>
<path d="M6.1321 1.06689C5.94797 1.06993 5.79638 1.21255 5.78205 1.3961C5.78205 1.3961 5.70025 2.2643 5.71092 3.31922C5.72159 4.37413 5.80142 5.6076 6.22832 6.4542C6.65521 7.3008 7.60133 8.10434 8.4457 8.74549C9.29007 9.38663 10.0411 9.84164 10.0411 9.84164C10.1268 9.89385 10.2306 9.90764 10.327 9.87948C10.327 9.87948 11.1279 9.6451 12.1343 9.42764C13.1407 9.21027 14.3625 9.01887 15.1006 9.08179C15.8356 9.14462 17.0038 9.53818 17.9553 9.92134C18.9067 10.3046 19.6539 10.6702 19.6539 10.6702C19.831 10.7568 20.0449 10.6835 20.1315 10.5063C20.2181 10.3292 20.1448 10.1153 19.9676 10.0287C19.9676 10.0287 19.1988 9.65394 18.2216 9.26029C17.2445 8.86678 16.0722 8.44823 15.1619 8.37054C14.2486 8.29262 13.0172 8.50714 11.9837 8.7304C11.0441 8.93332 10.4264 9.11504 10.2949 9.15288C10.1975 9.0929 9.62851 8.74669 8.87799 8.17677C8.06624 7.5603 7.17251 6.74226 6.86562 6.13365C6.55873 5.525 6.4352 4.32594 6.42494 3.31252C6.41467 2.29902 6.49326 1.46331 6.49326 1.46331C6.51482 1.26726 6.37344 1.0909 6.17744 1.06935C6.1624 1.06769 6.14723 1.06698 6.1321 1.06725V1.06689Z" fill="#5A3392"/>
<path d="M14.7255 1.04346C14.782 1.04448 14.8374 1.05894 14.8873 1.08558C18.6284 2.99094 20.7808 7.03415 20.2731 11.2018C19.7654 15.3694 16.7047 18.7781 12.6155 19.7296C8.52629 20.681 4.27579 18.9736 1.98053 15.458C1.87392 15.292 1.92203 15.071 2.08804 14.9644C2.25235 14.8589 2.47093 14.9049 2.57883 15.0676C4.71143 18.3339 8.65432 19.9177 12.4537 19.0337C16.2532 18.1497 19.0929 14.9876 19.5647 11.1153C20.0364 7.24301 18.0398 3.49182 14.5637 1.7215C14.3865 1.63489 14.3132 1.42108 14.3998 1.24387C14.4605 1.11981 14.5873 1.04185 14.7255 1.04377V1.04346Z" fill="#5A3392"/>
<path d="M1.3015 12.889C1.44519 12.8988 1.5689 12.994 1.61526 13.1303C1.75084 13.5078 1.91038 13.875 2.09361 14.2319C2.18375 14.4075 2.11445 14.6229 1.93885 14.7131C1.76324 14.8032 1.54783 14.7339 1.45769 14.5583C1.26035 14.1739 1.08908 13.7781 0.943104 13.3715C0.873353 13.1871 0.966309 12.981 1.15075 12.9112C1.19881 12.8931 1.25022 12.8855 1.3015 12.889Z" fill="#5A3392"/>
<path d="M11.3173 0.0434159C11.5142 0.0534122 11.6658 0.221163 11.6558 0.418143C11.6458 0.615123 11.478 0.766627 11.2811 0.75663C11.2699 0.756006 11.2587 0.754936 11.2476 0.753329C8.25475 0.462545 5.30756 1.64036 3.33758 3.91201C1.36756 6.1837 0.620786 9.26719 1.33217 12.1887C1.37876 12.3805 1.26108 12.5737 1.06928 12.6204C0.877476 12.667 0.684244 12.5492 0.637655 12.3575C-0.128263 9.21194 0.67822 5.8893 2.79926 3.44348C4.92029 0.997612 8.09499 -0.269502 11.3173 0.0434159Z" fill="#5A3392"/>
<path d="M12.2572 0.184082C12.2773 0.184796 12.2974 0.187157 12.3172 0.191218C12.8655 0.301266 13.4042 0.456878 13.9265 0.656982C14.111 0.727446 14.2034 0.934159 14.1329 1.11864C14.0624 1.30308 13.8558 1.39555 13.6713 1.32504C13.1863 1.13926 12.6855 0.993418 12.1763 0.891269C11.983 0.852623 11.8575 0.66457 11.8962 0.471205C11.9303 0.300242 12.083 0.178946 12.2572 0.184256L12.2572 0.184082Z" fill="#5A3392"/>
</g>
<defs>
<clipPath id="clip0_4755_83080">
<rect width="20" height="20" fill="white" transform="translate(0.350586 -0.00341797)"/>
</clipPath>
</defs>
</svg>
