<svg width="24" height="24" viewBox="0 0 24 24" fill="none" xmlns="http://www.w3.org/2000/svg">
<path d="M2 2L2 22" stroke="#888888" stroke-width="1.5" stroke-miterlimit="10" stroke-linecap="round" stroke-linejoin="round"/>
<path d="M20 9.75L2 9.75V14.25H20C21.1 14.25 22 13.8 22 12.45V11.55C22 10.2 21.1 9.75 20 9.75Z" stroke="#888888" stroke-width="1.5" stroke-linecap="round" stroke-linejoin="round"/>
<path d="M14 3L2 3V7L14 7C15.1 7 16 6.6 16 5.4V4.6C16 3.4 15.1 3 14 3Z" stroke="#888888" stroke-width="1.5" stroke-linecap="round" stroke-linejoin="round"/>
<path d="M9 17H2V21H9C10.1 21 11 20.6 11 19.4V18.6C11 17.4 10.1 17 9 17Z" stroke="#888888" stroke-width="1.5" stroke-linecap="round" stroke-linejoin="round"/>
</svg>
