<svg width="41" height="40" viewBox="0 0 41 40" fill="none" xmlns="http://www.w3.org/2000/svg">
<path d="M17.596 5.83398C16.3098 5.83398 15.1247 6.53131 14.5 7.65567L13.4287 9.58398H10.2917C7.6453 9.58398 5.5 11.7293 5.5 14.3757V28.5423C5.5 31.1887 7.6453 33.334 10.2917 33.334H19.6636C19.3868 32.6704 19.1742 31.9733 19.0335 31.2507H10.2917C8.79589 31.2507 7.58333 30.0381 7.58333 28.5423V14.3757C7.58333 12.8799 8.79589 11.6673 10.2917 11.6673H14.6546L16.3212 8.6674C16.5784 8.20445 17.0664 7.91732 17.596 7.91732H23.404C23.9336 7.91732 24.4216 8.20445 24.6788 8.6674L26.3454 11.6673H30.7083C32.2041 11.6673 33.4167 12.8799 33.4167 14.3757V19.0006C34.1519 19.2719 34.8497 19.6207 35.5 20.037V14.3757C35.5 11.7293 33.3547 9.58398 30.7083 9.58398H27.5712L26.5 7.65567C25.8753 6.53131 24.6902 5.83398 23.404 5.83398H17.596Z" fill="#FAFAFA"/>
<path d="M20.4997 14.166C23.4395 14.166 25.9348 16.0688 26.8213 18.7101C26.1423 18.8944 25.4897 19.1432 24.8706 19.4493C24.2839 17.5942 22.5488 16.2493 20.4997 16.2493C17.9683 16.2493 15.9163 18.3013 15.9163 20.8327C15.9163 23.0339 17.4682 24.8728 19.5375 25.3148C19.2927 25.9585 19.1073 26.6316 18.9884 27.3273C16.0345 26.6427 13.833 23.9948 13.833 20.8327C13.833 17.1508 16.8178 14.166 20.4997 14.166Z" fill="#FAFAFA"/>
<path d="M38.8333 29.1667C38.8333 34.2292 34.7292 38.3333 29.6667 38.3333C24.6041 38.3333 20.5 34.2292 20.5 29.1667C20.5 24.1041 24.6041 20 29.6667 20C34.7292 20 38.8333 24.1041 38.8333 29.1667ZM30.5 24.1667C30.5 23.7064 30.1269 23.3333 29.6667 23.3333C29.2064 23.3333 28.8333 23.7064 28.8333 24.1667V28.3333H24.6667C24.2064 28.3333 23.8333 28.7064 23.8333 29.1667C23.8333 29.6269 24.2064 30 24.6667 30H28.8333V34.1667C28.8333 34.6269 29.2064 35 29.6667 35C30.1269 35 30.5 34.6269 30.5 34.1667V30H34.6667C35.1269 30 35.5 29.6269 35.5 29.1667C35.5 28.7064 35.1269 28.3333 34.6667 28.3333H30.5V24.1667Z" fill="#FAFAFA"/>
</svg>
