<svg width="30" height="30" viewBox="0 0 30 30" fill="none" xmlns="http://www.w3.org/2000/svg">
<path d="M26.25 19.65V5.35002C26.2557 5.15728 26.2166 4.96584 26.136 4.79068C26.0554 4.61552 25.9353 4.46139 25.7852 4.34034C25.6351 4.21929 25.4591 4.13461 25.2708 4.09292C25.0825 4.05123 24.8872 4.05366 24.7 4.10002L11.25 7.50002V17.5L24.7 20.8625C24.8841 20.908 25.0761 20.9111 25.2615 20.8714C25.4469 20.8317 25.6208 20.7504 25.7702 20.6336C25.9195 20.5168 26.0403 20.3675 26.1234 20.1971C26.2066 20.0267 26.2499 19.8396 26.25 19.65Z" stroke="#C8C8C8" stroke-width="2" stroke-linecap="round" stroke-linejoin="round"/>
<path d="M11.25 17.5V25C11.25 25.3315 11.1183 25.6495 10.8838 25.8839C10.6494 26.1183 10.3315 26.25 9.99995 26.25H8.52495C8.23252 26.2559 7.94728 26.1591 7.71888 25.9763C7.49048 25.7936 7.33339 25.5366 7.27495 25.25L5.51245 16.25" stroke="#C8C8C8" stroke-width="2" stroke-linecap="round" stroke-linejoin="round"/>
<path d="M11.25 7.5H8.75C7.42392 7.5 6.15215 8.02678 5.21447 8.96447C4.27678 9.90215 3.75 11.1739 3.75 12.5C3.75 13.8261 4.27678 15.0979 5.21447 16.0355C6.15215 16.9732 7.42392 17.5 8.75 17.5H11.25V7.5Z" stroke="#C8C8C8" stroke-width="2" stroke-linecap="round" stroke-linejoin="round"/>
</svg>
