<svg width="30" height="31" viewBox="0 0 30 31" fill="none" xmlns="http://www.w3.org/2000/svg">
<path d="M15.2 14.5592C15.075 14.5467 14.925 14.5467 14.7875 14.5592C11.8125 14.4592 9.44995 12.0217 9.44995 9.02168C9.44995 5.95918 11.925 3.47168 15 3.47168C18.0625 3.47168 20.55 5.95918 20.55 9.02168C20.5375 12.0217 18.175 14.4592 15.2 14.5592Z" stroke="#FAFAFA" stroke-width="2" stroke-linecap="round" stroke-linejoin="round"/>
<path d="M8.95002 19.1717C5.92502 21.1967 5.92502 24.4967 8.95002 26.5092C12.3875 28.8092 18.025 28.8092 21.4625 26.5092C24.4875 24.4842 24.4875 21.1842 21.4625 19.1717C18.0375 16.8842 12.4 16.8842 8.95002 19.1717Z" stroke="#FAFAFA" stroke-width="2" stroke-linecap="round" stroke-linejoin="round"/>
</svg>
