<svg width="30" height="30" viewBox="0 0 30 30" fill="none" xmlns="http://www.w3.org/2000/svg">
<path d="M11.875 27.5H18.125M12.5 12.5H17.5M15 12.5L15 20M18.75 19.158C21.7062 17.7536 23.75 14.7405 23.75 11.25C23.75 6.41751 19.8325 2.5 15 2.5C10.1675 2.5 6.25 6.41751 6.25 11.25C6.25 14.7405 8.29382 17.7536 11.25 19.158V20C11.25 21.1649 11.25 21.7473 11.4403 22.2067C11.694 22.8193 12.1807 23.306 12.7933 23.5597C13.2527 23.75 13.8351 23.75 15 23.75C16.1649 23.75 16.7473 23.75 17.2067 23.5597C17.8193 23.306 18.306 22.8193 18.5597 22.2067C18.75 21.7473 18.75 21.1649 18.75 20V19.158Z" stroke="#C8C8C8" stroke-width="2" stroke-linecap="round" stroke-linejoin="round"/>
</svg>
